<svg fill="none" stroke-linecap="square" stroke-miterlimit="10" width="606.802" height="217.362" xmlns="http://www.w3.org/2000/svg"><path fill="none" d="M-4.448-6.06h960v720h-960z"/><path fill="#fce5cd" d="M315.57 1.5h289.732v214.362H315.569z" fill-rule="evenodd"/><path stroke="#f90" stroke-width="3" stroke-linejoin="round" stroke-linecap="butt" d="M315.57 1.5h289.732v214.362H315.569z"/><path fill="none" d="M316.964 1.5H566.86v11.181H316.964z"/><path fill="#000" d="m323.917 11.223 1.922 3.797h-1.72l-1.64-3.547q-.406-.016-.984-.047l-.656 3.594h-1.579l1.579-8.578q1.703-.094 2.234-.094 1.39 0 2.187.547.813.531.813 1.531 0 1.032-.594 1.797-.578.766-1.562 1zm-1.75-3.469-.438 2.407q.344.03.61.03 2.218 0 2.218-1.405 0-.594-.437-.844-.422-.25-1.406-.25-.079 0-.547.062zm6.295 4.547q-.016.14-.016.25 0 .656.39 1.016.391.344 1.079.344.375 0 .844-.188.484-.203.765-.469l-.172 1.547q-.75.344-1.812.344-1.172 0-1.89-.734-.72-.735-.72-2.016 0-1.625 1.032-2.688 1.047-1.078 2.734-1.078.984 0 1.594.422.625.406.625 1.188 0 1.062-.922 1.672-.906.593-2.25.593-.656 0-1.281-.203zm.28-1.11q.376.11.829.11.797 0 1.344-.234.547-.25.547-.719 0-.5-1.11-.5-.437 0-.906.39-.453.376-.703.954zm6.106 3.657-.468 2.64h-1.454l1.266-6.812q.063-.375.063-.75 0-.515-.11-1.031l1.438-.266q.078.22.14.594.813-.594 1.61-.594 2.515 0 2.515 2.438 0 1.781-1.03 2.937-1.032 1.141-2.72 1.141-.687 0-1.25-.297zm.235-1.25q.281.297.843.297 1.157 0 1.766-.688.625-.703.625-2 0-.593-.375-.953-.375-.359-1.016-.359-.28 0-.671.187-.391.188-.579.422zm5.59-.922q0-1.703 1.03-2.875 1.048-1.172 2.626-1.172 1.219 0 1.875.625.656.625.656 1.797 0 1.735-1.031 2.922-1.016 1.172-2.64 1.172-1.188 0-1.86-.64-.656-.641-.656-1.829zm1.53-.078q0 1.344 1.141 1.344.922 0 1.454-.844.53-.844.53-2.016 0-1.265-1.155-1.265-.891 0-1.438.844-.531.828-.531 1.937zm5.854 1.61q0-.391.266-.657.266-.281.656-.281t.656.281q.282.266.282.656 0 .391-.282.672-.265.266-.656.266-.39 0-.656-.266-.266-.28-.266-.672zm.735-4.532q0-.39.265-.656.282-.281.657-.281.39 0 .656.281.281.266.281.656t-.281.672q-.266.266-.656.266-.375 0-.657-.266-.265-.281-.265-.672zm12.146.156q.125.297.125.704 0 .921-.39 1.593-.391.657-1.297 1.078-.907.407-1 .563.39-.078.625-.078.656 0 1.11.406.468.39.468 1.016 0 1.14-.797 1.75-.797.625-2.328.625-.563 0-1.25-.235-.672-.218-1.094-.547l.64-1.109q.844.594 1.735.594 1.64 0 1.64-.875 0-.188-.171-.313-.172-.125-.516-.187l-1.11-.203q-.624-.188-.624-.719 0-.313.515-.625-.64-.188-1.046-.688-.391-.5-.391-1.109 0-1.266.828-2.047.844-.797 2.156-.797.813 0 1.36.344l.562-.594.86.844zm-3.672 1.5q0 .47.203.782.22.297.594.297.64 0 1.063-.516.422-.516.422-1.25 0-.828-.86-.828-.656 0-1.047.437-.375.422-.375 1.078zm4.688 1.344q0-1.703 1.031-2.875 1.047-1.172 2.625-1.172 1.219 0 1.875.625.656.625.656 1.797 0 1.735-1.031 2.922-1.016 1.172-2.64 1.172-1.188 0-1.86-.64-.656-.641-.656-1.829zm1.531-.078q0 1.344 1.14 1.344.923 0 1.454-.844.531-.844.531-2.016 0-1.265-1.156-1.265-.89 0-1.438.844-.531.828-.531 1.937zm10.432 2.422H372.4l.688-3.656q.078-.438.078-.735 0-.78-.922-.78-.781 0-1.406.655l-.844 4.516h-1.469l.89-4.703q.016-.125.016-.344 0-.516-.172-1.11l1.438-.265.14.703q.766-.672 1.938-.672 1.938 0 1.938 1.813 0 .312-.079.75zm6.119-5.094h-1.719l-.64 2.781q-.079.329-.079.547 0 .657.735.657.328 0 1.047-.313v1.328q-.625.219-1.72.219-.718 0-1.155-.453-.422-.453-.422-1.156 0-.235.047-.47l.718-3.14h-.734l.25-1.187h.734l.25-1.282 1.672-.609-.437 1.89h1.719zm6.13 2.844q-.046.219-.046.484 0 1.282.203 1.766h-.922q-.406 0-.61-.625-.75.75-1.859.75-1.031 0-1.593-.578-.547-.578-.547-1.61 0-1.78 1.078-3.046 1.078-1.282 2.719-1.282 1.593 0 2.296.297zm-1.702-2.953q-.985 0-1.579.953-.578.937-.578 2.156 0 1.016 1 1.016.625 0 1.094-.781.484-.782.844-3.22-.406-.124-.781-.124zm5.644 3.937h2.969l-.235 1.266h-5.187v-.5l3.656-4.5h-3.078l.25-1.281h5.219v.531zm9.565-.984q-.047.219-.047.484 0 1.282.203 1.766h-.922q-.406 0-.61-.625-.75.75-1.859.75-1.031 0-1.594-.578-.546-.578-.546-1.61 0-1.78 1.078-3.046 1.078-1.282 2.718-1.282 1.594 0 2.297.297zm-1.704-2.953q-.984 0-1.578.953-.578.937-.578 2.156 0 1.016 1 1.016.625 0 1.094-.781.484-.782.844-3.22-.407-.124-.782-.124zm7.489 5.203-1.985-2.578-.25.203-.406 2.375h-1.469l1.532-8.844h1.437l-.75 4.656 1.11-.968q1.124-.985 1.5-1.5l1.015.89q-.25.313-2.594 2.375l2.594 3.391zm7.802-2.25q-.046.219-.046.484 0 1.282.203 1.766h-.922q-.406 0-.61-.625-.75.75-1.859.75-1.031 0-1.594-.578-.547-.578-.547-1.61 0-1.78 1.079-3.046 1.078-1.282 2.718-1.282 1.594 0 2.297.297zm-1.703-2.953q-.984 0-1.578.953-.578.937-.578 2.156 0 1.016 1 1.016.625 0 1.094-.781.484-.782.844-3.22-.407-.124-.782-.124zm4.348 5.203h-1.39l3.265-8.625h1.375zm8.81 0-.265-1.75h-3.063l-1.015 1.75h-1.594l5.219-8.703h.547l1.765 8.703zm-.921-6.094-1.766 3.203h2.25zm8.584 6.094h-1.453l.109-.594q-.484.719-1.61.719-1.093 0-1.718-.64-.625-.657-.625-1.782 0-1.797 1-2.937 1-1.157 2.672-1.157.312 0 .703.125.39.125.578.266l.531-2.844h1.422zm-1.532-5.156q-1.015 0-1.625.75-.593.734-.593 1.89 0 1.422 1.187 1.422 1.281 0 1.656-2.031l.282-1.5q-.282-.531-.907-.531zm10.041 4.375q-1.328.922-3.25.922-1.468 0-2.39-.938-.922-.953-.922-2.406 0-2.547 1.39-4.031 1.407-1.5 3.829-1.5 1.312 0 1.953.593l-.453 1.266q-.86-.516-1.72-.516-1.546 0-2.483 1.141-.938 1.125-.938 2.828 0 1.047.578 1.64.578.594 1.594.594.828 0 1.453-.468l.313-1.703h-1.188l.234-1.266h2.704zm6.49.781h-1.468l.094-.453q-.782.578-1.97.578-.812 0-1.28-.469-.454-.469-.454-1.281 0-.266.063-.61l.766-4.046h1.484l-.75 3.984q-.047.25-.047.438 0 .75.86.75.703 0 1.171-.454.47-.453.594-1.093l.64-3.625h1.47zm7.046-2.25q-.047.219-.047.484 0 1.282.203 1.766h-.922q-.406 0-.61-.625-.75.75-1.859.75-1.031 0-1.594-.578-.546-.578-.546-1.61 0-1.78 1.078-3.046 1.078-1.282 2.718-1.282 1.594 0 2.297.297zm-1.704-2.953q-.984 0-1.578.953-.578.937-.578 2.156 0 1.016 1 1.016.625 0 1.094-.781.484-.782.844-3.22-.407-.124-.782-.124zm8.114.422q-.516-.39-.922-.39-.563 0-1.047.5-.469.483-.594 1.124l-.656 3.547h-1.469l1.172-6.281h1.469l-.094.547q.781-.657 1.719-.657.234 0 .86.11zm5.94 4.781h-1.454l.11-.594q-.485.719-1.61.719-1.094 0-1.719-.64-.625-.657-.625-1.782 0-1.797 1-2.937 1-1.157 2.672-1.157.313 0 .703.125.39.125.578.266l.532-2.844h1.422zm-1.532-5.156q-1.016 0-1.625.75-.594.734-.594 1.89 0 1.422 1.188 1.422 1.28 0 1.656-2.031l.281-1.5q-.281-.531-.906-.531zm8.494-1.735q-.687-.5-1.39-.5-1.407 0-1.407 1.063 0 .453.75 1.078l.875.75q.422.36.578.516.157.156.328.453.172.281.266.578.094.297.094.594 0 1.187-.89 1.843-.876.657-2.282.657-1.156 0-2.188-.5l.5-1.5q.782.593 1.813.593.625 0 1.031-.265.422-.266.422-.766 0-.484-.75-1.062l-.922-.735q-.422-.344-.578-.484-.14-.156-.312-.422-.157-.281-.235-.563-.078-.296-.078-.609 0-1.172.781-1.86.782-.702 2.063-.702.422 0 1.078.109.656.094.922.203zm2.83 6.891h-2.078l1.563-8.563q.859-.156 1.609-.156 1.969 0 3.031.906 1.078.891 1.078 2.579 0 2.39-1.422 3.812-1.421 1.422-3.78 1.422zm.766-7.328-1.047 5.969q.25.015.469.015 1.562 0 2.484-1.11.938-1.108.938-2.843 0-.937-.641-1.515-.64-.579-1.64-.579-.282 0-.563.063zm11.01 7.453h-.579l-3.171-5.563-.954 5.438h-1.5l1.563-8.578h.703l3.11 5.312.921-5.312h1.516zm6.921-7.016q-.687-.5-1.39-.5-1.406 0-1.406 1.063 0 .453.75 1.078l.875.75q.421.36.578.516.156.156.328.453.172.281.265.578.094.297.094.594 0 1.187-.89 1.843-.876.657-2.282.657-1.156 0-2.187-.5l.5-1.5q.781.593 1.812.593.625 0 1.031-.265.422-.266.422-.766 0-.484-.75-1.062l-.921-.735q-.422-.344-.579-.484-.14-.156-.312-.422-.156-.281-.234-.563-.079-.296-.079-.609 0-1.172.782-1.86.78-.702 2.062-.702.422 0 1.078.109.657.094.922.203zm7.768-.359h-4.125l-.36 1.969h3.016l-.234 1.281h-3.031l-.72 4H496l1.593-8.578h5.688zm1.65-1.047q0-.39.282-.64.28-.266.671-.266t.672.265q.282.25.282.641 0 .39-.282.656-.28.266-.672.266-.39 0-.671-.266-.282-.265-.282-.656zm.438 8.297h-1.485l.938-5.094h-.797l.25-1.187h2.266zm4.389-.5q-.344.562-1.047.562-.532 0-.844-.343-.297-.36-.297-.907 0-.718.281-2.046l1.172-5.61h1.453l-1.203 5.844q-.25 1.234-.25 1.781 0 .328.203.531.219.188.532.188zm5.962-4.594h-1.718l-.64 2.781q-.079.329-.079.547 0 .657.734.657.328 0 1.047-.313v1.328q-.625.219-1.719.219-.718 0-1.156-.453-.422-.453-.422-1.156 0-.235.047-.47l.719-3.14h-.734l.25-1.187h.734l.25-1.282 1.672-.609-.438 1.89h1.72zm2.35 2.375q-.016.14-.016.25 0 .656.391 1.016.39.344 1.078.344.375 0 .844-.188.484-.203.766-.469l-.172 1.547q-.75.344-1.813.344-1.172 0-1.89-.734-.72-.735-.72-2.016 0-1.625 1.032-2.688 1.047-1.078 2.734-1.078.985 0 1.594.422.625.406.625 1.188 0 1.062-.922 1.672-.906.593-2.25.593-.656 0-1.28-.203zm.281-1.11q.375.11.828.11.797 0 1.344-.234.547-.25.547-.719 0-.5-1.11-.5-.437 0-.906.39-.453.376-.703.954zm9.418-.952q-.515-.39-.922-.39-.562 0-1.046.5-.47.483-.594 1.124l-.656 3.547h-1.47l1.173-6.281h1.468l-.093.547q.78-.657 1.718-.657.235 0 .86.11z"/><path fill="#b6d7a8" d="M1.898 59.272h245.67v103.81H1.897z" fill-rule="evenodd"/><path stroke="#38761d" stroke-width="3" stroke-linejoin="round" stroke-linecap="butt" d="M1.898 59.272h245.67v103.81H1.897z"/><path fill="none" d="M0 59.843h249.89v11.181H0z"/><path fill="#000" d="m6.953 69.566 1.922 3.797H7.156l-1.64-3.547q-.407-.016-.985-.047l-.656 3.594H2.297l1.578-8.578q1.703-.094 2.234-.094 1.391 0 2.188.547.812.531.812 1.531 0 1.031-.593 1.797-.579.766-1.563 1zm-1.75-3.469-.437 2.407q.343.03.609.03 2.219 0 2.219-1.405 0-.594-.438-.844-.422-.25-1.406-.25-.078 0-.547.062zm6.295 4.547q-.016.14-.016.25 0 .656.391 1.016.39.344 1.078.344.375 0 .844-.188.484-.203.766-.469l-.172 1.547q-.75.344-1.813.344-1.172 0-1.89-.734-.72-.735-.72-2.016 0-1.625 1.032-2.688 1.047-1.078 2.734-1.078.985 0 1.594.422.625.406.625 1.188 0 1.062-.922 1.672-.906.593-2.25.593-.656 0-1.281-.203zm.281-1.11q.375.11.828.11.797 0 1.344-.234.547-.25.547-.719 0-.5-1.11-.5-.437 0-.906.39-.453.376-.703.954zm6.106 3.657-.469 2.64h-1.453l1.266-6.812q.062-.375.062-.75 0-.515-.11-1.031l1.438-.266q.078.22.14.594.813-.594 1.61-.594 2.516 0 2.516 2.438 0 1.781-1.031 2.937-1.032 1.14-2.72 1.14-.687 0-1.25-.296zm.234-1.25q.281.297.844.297 1.156 0 1.766-.688.625-.703.625-2 0-.593-.375-.953t-1.016-.36q-.281 0-.672.188-.39.188-.578.422zm5.59-.922q0-1.703 1.031-2.875 1.047-1.172 2.625-1.172 1.219 0 1.875.625.656.625.656 1.797 0 1.735-1.03 2.922-1.016 1.172-2.641 1.172-1.188 0-1.86-.64-.656-.641-.656-1.829zm1.531-.078q0 1.344 1.14 1.344.923 0 1.454-.844.531-.844.531-2.016 0-1.265-1.156-1.265-.89 0-1.438.844-.53.828-.53 1.937zm5.854 1.61q0-.391.265-.657.266-.281.657-.281.39 0 .656.281.281.266.281.656 0 .391-.281.672-.266.266-.656.266-.391 0-.657-.266-.265-.28-.265-.672zm.734-4.532q0-.39.266-.656.281-.281.656-.281.39 0 .656.28.281.267.281.657t-.28.672q-.266.266-.657.266-.375 0-.656-.266-.266-.281-.266-.672zm11.693 5.344-.265-1.75h-3.063l-1.015 1.75h-1.594l5.219-8.703h.547l1.765 8.703zm-.921-6.094-1.766 3.203h2.25zm8.584 6.094H49.73l.11-.594q-.485.719-1.61.719-1.093 0-1.718-.64-.625-.657-.625-1.782 0-1.797 1-2.937 1-1.157 2.672-1.157.312 0 .703.125.39.125.578.266l.531-2.844h1.422zm-1.532-5.156q-1.015 0-1.625.75-.593.734-.593 1.89 0 1.422 1.187 1.422 1.281 0 1.656-2.031l.282-1.5q-.282-.531-.907-.531zm8.807-.032q.125.297.125.704 0 .921-.39 1.593-.391.657-1.298 1.078-.906.407-1 .563.391-.078.625-.078.657 0 1.11.406.469.39.469 1.016 0 1.14-.797 1.75-.797.625-2.328.625-.563 0-1.25-.235-.672-.218-1.094-.547l.64-1.109q.844.594 1.735.594 1.64 0 1.64-.875 0-.188-.171-.313-.172-.125-.516-.187l-1.11-.203q-.624-.188-.624-.72 0-.312.515-.624-.64-.188-1.047-.688-.39-.5-.39-1.109 0-1.266.828-2.047.844-.797 2.156-.797.813 0 1.36.344l.562-.594.86.844zm-3.672 1.5q0 .47.203.782.219.297.594.297.64 0 1.062-.516.422-.516.422-1.25 0-.828-.859-.828-.656 0-1.047.437-.375.422-.375 1.078zm9.703 3.688h-1.469l.094-.453q-.781.578-1.969.578-.812 0-1.28-.469-.454-.469-.454-1.281 0-.266.063-.61l.765-4.046h1.485l-.75 3.984q-.047.25-.047.438 0 .75.86.75.702 0 1.171-.454.469-.453.594-1.093l.64-3.625h1.47zm7.045-2.25q-.047.219-.047.484 0 1.282.203 1.766h-.921q-.407 0-.61-.625-.75.75-1.86.75-1.03 0-1.593-.578-.547-.578-.547-1.61 0-1.78 1.078-3.046 1.078-1.282 2.719-1.282 1.594 0 2.297.297zm-1.703-2.953q-.984 0-1.578.953-.578.937-.578 2.156 0 1.016 1 1.016.625 0 1.094-.781.484-.782.843-3.22-.406-.124-.781-.124zm8.113.422q-.515-.39-.922-.39-.562 0-1.046.5-.47.483-.594 1.124l-.656 3.547h-1.47l1.173-6.281h1.468l-.093.547q.78-.657 1.718-.657.235 0 .86.11zm5.94 4.78h-1.453l.109-.593q-.484.719-1.61.719-1.093 0-1.718-.64-.625-.657-.625-1.782 0-1.797 1-2.937 1-1.157 2.672-1.157.312 0 .703.125.39.125.578.266l.531-2.844h1.422zm-1.531-5.155q-1.016 0-1.625.75-.594.734-.594 1.89 0 1.422 1.187 1.422 1.282 0 1.657-2.031l.28-1.5q-.28-.531-.905-.531zm11.134-2.094H90.77l-1.313 7.25H87.91l1.328-7.25h-2.734l.25-1.328h6.984zm2.08 4.531q-.015.14-.015.25 0 .656.39 1.016.391.344 1.079.344.375 0 .843-.188.485-.203.766-.469l-.172 1.547q-.75.344-1.812.344-1.172 0-1.891-.734-.719-.735-.719-2.016 0-1.625 1.031-2.688 1.047-1.078 2.735-1.078.984 0 1.594.422.625.406.625 1.188 0 1.062-.922 1.672-.907.593-2.25.593-.657 0-1.282-.203zm.282-1.11q.375.11.828.11.797 0 1.343-.234.547-.25.547-.719 0-.5-1.109-.5-.438 0-.906.39-.453.376-.703.954zm10.12 1.579q-.046.219-.046.484 0 1.282.203 1.766h-.922q-.406 0-.61-.625-.75.75-1.859.75-1.031 0-1.593-.578-.547-.578-.547-1.61 0-1.78 1.078-3.046 1.078-1.282 2.719-1.282 1.593 0 2.296.297zm-1.702-2.953q-.985 0-1.579.953-.578.937-.578 2.156 0 1.016 1 1.016.625 0 1.094-.781.484-.782.844-3.22-.406-.124-.781-.124zm12.691 1.094-.766 4.109h-1.5l.735-3.969q.047-.187.047-.39 0-.813-.875-.813-.297 0-.657.219-.359.203-.53.453l-.845 4.5h-1.5l.844-4.422v-.14q0-.61-.922-.61-.281 0-.64.203-.36.203-.563.485l-.844 4.484h-1.484l.844-4.531q.031-.157.031-.5 0-.578-.172-1.125l1.438-.25q.078.297.125.562.718-.547 1.78-.547 1.235 0 1.75.672.75-.672 1.876-.672 1.89 0 1.89 1.703 0 .25-.062.579zm5.232 4.109h-1.39l3.265-8.625h1.375zm12.426 0-.265-1.75h-3.063l-1.016 1.75h-1.593l5.218-8.703h.547l1.766 8.703zm-.922-6.094-1.765 3.203h2.25zm8.584 6.094h-1.453l.11-.594q-.485.719-1.61.719-1.094 0-1.719-.64-.625-.657-.625-1.782 0-1.797 1-2.937 1-1.157 2.672-1.157.313 0 .703.125.391.125.579.266l.53-2.844h1.423zm-1.531-5.156q-1.016 0-1.625.75-.594.734-.594 1.89 0 1.422 1.188 1.422 1.281 0 1.656-2.031l.281-1.5q-.281-.531-.906-.531zm8.807-.032q.125.297.125.704 0 .921-.39 1.593-.392.657-1.298 1.078-.906.407-1 .563.39-.078.625-.078.656 0 1.11.406.468.39.468 1.016 0 1.14-.797 1.75-.796.625-2.328.625-.562 0-1.25-.235-.672-.218-1.093-.547l.64-1.109q.844.594 1.735.594 1.64 0 1.64-.875 0-.188-.172-.313t-.515-.187l-1.11-.203q-.625-.188-.625-.72 0-.312.516-.624-.64-.188-1.047-.688-.39-.5-.39-1.109 0-1.266.828-2.047.843-.797 2.156-.797.812 0 1.36.344l.562-.594.86.844zm-3.672 1.5q0 .47.203.782.219.297.594.297.64 0 1.062-.516.422-.516.422-1.25 0-.828-.86-.828-.656 0-1.046.437-.375.422-.375 1.078zm9.703 3.688h-1.469l.094-.453q-.781.578-1.969.578-.812 0-1.281-.469-.453-.469-.453-1.281 0-.266.062-.61l.766-4.046h1.484l-.75 3.984q-.047.25-.047.438 0 .75.86.75.703 0 1.172-.454.468-.453.593-1.093l.641-3.625h1.469zm7.045-2.25q-.047.219-.047.484 0 1.282.203 1.766h-.922q-.406 0-.61-.625-.75.75-1.859.75-1.03 0-1.593-.578-.547-.578-.547-1.61 0-1.78 1.078-3.046 1.078-1.282 2.719-1.282 1.593 0 2.297.297zm-1.703-2.953q-.985 0-1.578.953-.579.937-.579 2.156 0 1.016 1 1.016.625 0 1.094-.781.485-.782.844-3.22-.406-.124-.781-.124zm8.113.422q-.516-.39-.922-.39-.562 0-1.047.5-.468.483-.593 1.124l-.657 3.547h-1.468l1.171-6.281h1.47l-.095.547q.782-.657 1.72-.657.234 0 .859.11zm5.94 4.78h-1.454l.11-.593q-.485.719-1.61.719-1.093 0-1.718-.64-.625-.657-.625-1.782 0-1.797 1-2.937 1-1.157 2.671-1.157.313 0 .704.125.39.125.578.266l.531-2.844h1.422zm-1.532-5.155q-1.015 0-1.625.75-.594.734-.594 1.89 0 1.422 1.188 1.422 1.281 0 1.656-2.031l.281-1.5q-.28-.531-.906-.531zm10.244-2.094h-4.125l-.359 1.969h3.016l-.235 1.28h-3.031l-.719 4h-1.578l1.594-8.577h5.687zm1.65-1.047q0-.39.282-.64.281-.266.672-.266.39 0 .672.265.281.25.281.641 0 .39-.281.656t-.672.266q-.39 0-.672-.266-.281-.265-.281-.656zm.438 8.297h-1.484l.937-5.094h-.796l.25-1.187h2.265zm4.389-.5q-.344.562-1.047.562-.531 0-.844-.343-.297-.36-.297-.907 0-.718.282-2.046l1.172-5.61h1.453l-1.203 5.844q-.25 1.234-.25 1.781 0 .328.203.531.218.188.53.188zm5.963-4.594h-1.719l-.64 2.781q-.079.329-.079.547 0 .657.735.657.328 0 1.047-.313v1.328q-.625.219-1.72.219-.718 0-1.155-.453-.422-.453-.422-1.156 0-.235.047-.47l.718-3.14h-.734l.25-1.187h.734l.25-1.282 1.672-.609-.437 1.89h1.718zm2.35 2.375q-.016.14-.016.25 0 .656.39 1.016.391.344 1.079.344.375 0 .843-.188.485-.203.766-.469l-.172 1.547q-.75.344-1.812.344-1.172 0-1.891-.734-.719-.735-.719-2.016 0-1.625 1.031-2.688 1.047-1.078 2.735-1.078.984 0 1.594.422.625.406.625 1.188 0 1.062-.922 1.672-.907.593-2.25.593-.657 0-1.282-.203zm.28-1.11q.376.11.829.11.797 0 1.344-.234.546-.25.546-.719 0-.5-1.109-.5-.437 0-.906.39-.453.376-.703.954zm9.419-.952q-.516-.39-.922-.39-.563 0-1.047.5-.469.483-.594 1.124l-.656 3.547h-1.469l1.172-6.281h1.469l-.094.547q.781-.657 1.719-.657.234 0 .86.11zm4.908.218q-.703-.609-1.297-.609-.36 0-.625.172-.266.156-.266.437 0 .344.625.672.641.328.985.516.343.187.547.516.218.328.218.75 0 1.03-.78 1.64-.767.594-1.97.594-1.03 0-2.015-.594l.765-1.328q.735.688 1.438.688.453 0 .734-.22.297-.218.297-.593 0-.328-.562-.61-.547-.28-.97-.515-.421-.25-.64-.594-.219-.343-.219-.75 0-.922.735-1.453.734-.547 1.781-.547.734 0 1.89.485z"/><path fill="none" d="M9.898 82.17h224v73.102h-224z"/><path fill="#274e13" d="m17.789 91.641-1.125.016 1.015.687.313.39-.797.688-.344-.453-.531-1.047-.594 1.063-.281.406-.86-.656.329-.438 1.03-.546-1.155-.172-.579-.203.47-.985.624.235.813.625-.407-1.329v-.515h1.141v.484l-.39 1.375 1.03-.687.485-.188.36 1.063zm10.143 7.328-1.906-2.531-1.703 2.531h-1.438l2.532-3.562L23.089 92h1.39l1.563 2.39 1.75-2.39h1.375l-2.532 3.406 2.766 3.562zm6.677 0-1.906-2.531L31 98.969h-1.438l2.532-3.562L29.766 92h1.39l1.563 2.39 1.75-2.39h1.375l-2.532 3.406 2.766 3.562zm6.677 0-1.906-2.531-1.703 2.531H36.24l2.53-3.562L36.444 92h1.39l1.563 2.39 1.75-2.39h1.375l-2.531 3.406 2.765 3.562zm6.678 0-1.907-2.531-1.703 2.531h-1.437l2.53-3.562L43.12 92h1.39l1.563 2.39 1.75-2.39h1.375l-2.531 3.406 2.765 3.562zm6.677 0-1.907-2.531-1.703 2.531h-1.437l2.531-3.562L49.797 92h1.39l1.563 2.39 1.75-2.39h1.375l-2.531 3.406 2.765 3.562zm7.848 0h-1.047l3.454-9.578h1.03zm9.146-.422.437-1.171q1.031.687 1.672.687 1.14 0 1.14-.969 0-.687-1.109-1.187-.843-.39-1.14-.594-.297-.203-.516-.453-.219-.25-.328-.547-.11-.297-.11-.625 0-.86.626-1.328.625-.484 1.64-.484.75 0 1.906.468l-.343 1.157q-.735-.594-1.485-.594-.437 0-.75.219-.297.203-.297.515 0 .672.766 1.016l.89.406q.813.375 1.173.86.375.468.375 1.171 0 .938-.657 1.469-.656.531-1.812.531-1.11 0-2.078-.547zm11.723-2.937h-5.031q0 1.219.672 1.875.593.578 1.53.578 1.063 0 1.766-.625l.516.89q-.281.298-.875.5-.734.266-1.656.266-1.313 0-2.235-.89-1.015-.985-1.015-2.641 0-1.719 1.047-2.766.937-.921 2.218-.921 1.5 0 2.344.828.813.812.813 2.14 0 .422-.094.766zm-3-2.703q-.828 0-1.39.531-.532.516-.61 1.266h3.86q0-.75-.47-1.25-.5-.547-1.39-.547zm9.66-.344-.61.875q-.187-.187-.671-.36-.485-.171-.938-.171-1.016 0-1.61.719-.593.703-.593 1.921 0 1.235.61 1.875.609.641 1.687.641.828 0 1.672-.656l.484 1.047q-.984.64-2.469.64-1.422 0-2.36-.953-.92-.953-.92-2.594 0-1.656.968-2.656.969-1.015 2.64-1.015.547 0 1.172.234.64.219.938.453zm1.786.406h-.812v-.968h.812v-1.454l1.235-.484v1.938h1.906v.968h-1.906v3.469q0 .875.297 1.25.296.375.953.375.468 0 .984-.25l.172 1.094q-.766.187-1.688.187-.828 0-1.39-.61-.563-.608-.563-1.546zm6.113-3.61q.312 0 .531.235.234.219.234.532 0 .312-.234.546-.219.22-.531.22-.313 0-.547-.22-.219-.234-.219-.546 0-.313.219-.532.219-.234.547-.234zm-.672 9.61v-5.922h-.969v-1.046h2.203v6.968zm2.738-3.5q0-1.61.86-2.593.874-1 2.296-1 1.5 0 2.328.953.829.953.829 2.64 0 1.688-.86 2.657-.844.968-2.297.968-1.484 0-2.328-.968-.828-.985-.828-2.657zm1.297 0q0 2.625 1.86 2.625.859 0 1.343-.703.5-.703.5-1.922 0-2.593-1.844-2.593-.843 0-1.36.687-.5.688-.5 1.906zm10.605 3.5v-4.047q0-1.125-.344-1.562-.328-.453-1.125-.453-.421 0-.89.265-.453.25-.703.61v5.187h-1.235v-6.968h.844l.39.89q.626-1.015 2-1.015 2.298 0 2.298 2.78v4.313zm2.533-.422.437-1.171q1.031.687 1.672.687 1.14 0 1.14-.969 0-.687-1.109-1.187-.844-.39-1.14-.594-.297-.203-.516-.453-.219-.25-.328-.547-.11-.297-.11-.625 0-.86.625-1.328.625-.484 1.641-.484.75 0 1.906.468l-.343 1.157q-.735-.594-1.485-.594-.437 0-.75.219-.297.203-.297.515 0 .672.766 1.016l.89.406q.813.375 1.172.86.375.468.375 1.171 0 .938-.656 1.469-.656.531-1.812.531-1.11 0-2.078-.547zm11.27.422h-1.048l3.454-9.578h1.03zm13.848 0-1.906-2.531-1.704 2.531h-1.437l2.531-3.562L134.692 92h1.39l1.563 2.39 1.75-2.39h1.375l-2.531 3.406 2.766 3.562zm6.677 0-1.906-2.531-1.703 2.531h-1.438l2.531-3.562L141.37 92h1.39l1.563 2.39 1.75-2.39h1.375l-2.531 3.406 2.766 3.562zm6.677 0-1.906-2.531-1.703 2.531h-1.438l2.531-3.562L148.046 92h1.39L151 94.39l1.75-2.39h1.375l-2.53 3.406 2.765 3.562zm6.677 0-1.906-2.531-1.703 2.531h-1.438l2.531-3.562L154.723 92h1.391l1.562 2.39 1.75-2.39h1.375l-2.53 3.406 2.765 3.562zm6.677 0-1.906-2.531-1.703 2.531h-1.438l2.532-3.562L161.4 92h1.391l1.563 2.39 1.75-2.39h1.375l-2.532 3.406 2.766 3.562zm6.677 0-1.906-2.531-1.703 2.531h-1.438l2.532-3.562L168.077 92h1.391l1.563 2.39 1.75-2.39h1.375l-2.532 3.406 2.766 3.562zM17.789 107.641l-1.125.016 1.015.687.313.39-.797.688-.344-.453-.531-1.047-.594 1.063-.281.406-.86-.656.329-.438 1.03-.546-1.155-.172-.579-.203.47-.985.624.235.813.625-.407-1.329v-.515h1.141v.484l-.39 1.375 1.03-.687.485-.188.36 1.063zm7.3-1.031v2.64h3.14v1.11h-3.14v3.437H29.4v1.172h-5.625v-9.531h5.703v1.172zm10.03 8.36v-4.048q0-1.125-.344-1.562-.329-.453-1.125-.453-.422 0-.891.265-.453.25-.703.61v5.187H30.82v-6.968h.844l.39.89q.626-1.015 2-1.015 2.298 0 2.298 2.78v4.313zm2.735 1.906.672-.985q1.078.719 1.984.719.844 0 1.328-.297.484-.281.484-.719 0-.843-1.218-.843-.219 0-.766.109-.531.11-.844.11-1.484 0-1.484-1.126 0-.343.344-.625.36-.281.86-.406-1.47-.687-1.47-2.39 0-1.094.766-1.813.766-.734 1.875-.734 1.031 0 1.61.421l.624-.75.813.766-.75.563q.469.609.469 1.609 0 1.062-.657 1.781-.656.703-1.718.813l-1.016.093q-.188.032-.5.157-.297.109-.297.312 0 .266.64.266.282 0 .86-.094.594-.11.89-.11 1.016 0 1.594.5.579.485.579 1.344 0 .97-.86 1.563-.86.594-2.187.594-.672 0-1.422-.25-.75-.235-1.203-.578zm2.625-8.016q-.64 0-1.047.469-.406.453-.406 1.093 0 .735.39 1.22.39.468 1.063.468.656 0 1.015-.453.375-.469.375-1.235 0-.64-.406-1.093-.39-.47-.984-.47zm4.409 4.14v-7.859h1.25v7.64q0 .563.312.891.328.329.844.329v1.093q-2.406 0-2.406-2.093zm5.118-7.64q.312 0 .531.234.234.219.234.532 0 .312-.234.546-.219.22-.531.22-.313 0-.547-.22-.219-.234-.219-.546 0-.313.219-.532.219-.234.547-.234zm-.672 9.61v-5.923h-.969v-1.046h2.203v6.968zm2.738-.423.438-1.171q1.03.687 1.671.687 1.141 0 1.141-.969 0-.687-1.11-1.187-.843-.39-1.14-.594-.297-.203-.516-.453-.218-.25-.328-.547-.11-.297-.11-.625 0-.86.626-1.328.625-.484 1.64-.484.75 0 1.907.468l-.344 1.157q-.734-.594-1.484-.594-.438 0-.75.219-.297.203-.297.515 0 .672.765 1.016l.891.406q.813.375 1.172.86.375.468.375 1.171 0 .938-.656 1.469-.657.531-1.813.531-1.11 0-2.078-.547zm10.145.422v-4.375q0-.781-.39-1.234-.376-.453-1.079-.453-.437 0-.89.265-.453.266-.703.61v5.187H57.92v-9.828h1.235v3.625q.25-.39.796-.64.563-.25 1.141-.25 1.11 0 1.734.734.625.719.625 1.984v4.375zm4.392-8.36v2.642h3.344v1.109h-3.344v4.61h-1.313v-9.532h5.89v1.172zm6.87-1.25q.313 0 .532.235.234.219.234.532 0 .312-.234.546-.219.22-.531.22-.313 0-.547-.22-.219-.234-.219-.546 0-.313.219-.532.219-.234.547-.234zm-.671 9.61v-5.922h-.969v-1.046h2.203v6.968zm3.285-1.968v-7.86h1.25v7.64q0 .563.312.891.328.329.844.329v1.093q-2.406 0-2.406-2.093zm4.29-4.032h-.813v-.968h.813v-1.454l1.234-.484v1.938h1.907v.968h-1.907v3.469q0 .875.297 1.25t.953.375q.47 0 .985-.25l.172 1.094q-.766.187-1.688.187-.828 0-1.39-.61-.563-.608-.563-1.546zm10.706 2.64h-5.031q0 1.22.672 1.876.594.578 1.531.578 1.063 0 1.766-.625l.515.89q-.28.298-.875.5-.734.266-1.656.266-1.312 0-2.234-.89-1.016-.985-1.016-2.641 0-1.719 1.047-2.766.937-.921 2.219-.921 1.5 0 2.343.828.813.812.813 2.14 0 .422-.094.766zm-3-2.702q-.828 0-1.39.531-.532.516-.61 1.266h3.86q0-.75-.47-1.25-.5-.547-1.39-.547zm8.191.281q-.406-.281-.812-.281-.656 0-1.156.61-.485.609-.485 1.452v4h-1.25v-6.968h1.25v1.109q.672-1.234 2-1.234.344 0 .969.109zm6.805 5.781h-1.046l3.453-9.578h1.03zm9.146-.422.437-1.171q1.032.687 1.672.687 1.14 0 1.14-.969 0-.687-1.109-1.187-.843-.39-1.14-.594-.297-.203-.516-.453-.219-.25-.328-.547-.11-.297-.11-.625 0-.86.626-1.328.625-.484 1.64-.484.75 0 1.907.468l-.344 1.157q-.735-.594-1.485-.594-.437 0-.75.219-.296.203-.296.515 0 .672.765 1.016l.89.406q.813.375 1.173.86.375.468.375 1.171 0 .938-.657 1.469-.656.531-1.812.531-1.11 0-2.078-.547zm11.723-2.937h-5.031q0 1.219.672 1.875.593.578 1.53.578 1.063 0 1.767-.625l.515.89q-.281.298-.875.5-.734.266-1.656.266-1.313 0-2.234-.89-1.016-.985-1.016-2.641 0-1.719 1.047-2.766.937-.921 2.219-.921 1.5 0 2.343.828.813.812.813 2.14 0 .422-.094.766zm-3-2.703q-.828 0-1.39.531-.532.516-.61 1.266h3.86q0-.75-.47-1.25-.5-.547-1.39-.547zm9.66-.344-.61.875q-.187-.187-.671-.36-.485-.171-.938-.171-1.015 0-1.61.719-.593.703-.593 1.921 0 1.235.61 1.875.609.641 1.687.641.828 0 1.672-.656l.484 1.047q-.984.64-2.469.64-1.421 0-2.359-.953-.922-.953-.922-2.594 0-1.656.969-2.656.969-1.015 2.64-1.015.547 0 1.172.234.641.219.938.453zm1.786.406h-.812v-.968h.812v-1.454l1.235-.484v1.938h1.906v.968h-1.906v3.469q0 .875.297 1.25t.953.375q.469 0 .984-.25l.172 1.094q-.766.187-1.687.187-.829 0-1.391-.61-.563-.608-.563-1.546zm6.113-3.61q.312 0 .531.235.235.219.235.532 0 .312-.235.546-.219.22-.531.22-.313 0-.547-.22-.219-.234-.219-.546 0-.313.22-.532.218-.234.546-.234zm-.672 9.61v-5.922h-.969v-1.046h2.203v6.968zm2.738-3.5q0-1.61.86-2.593.875-1 2.296-1 1.5 0 2.329.953.828.953.828 2.64 0 1.688-.86 2.657-.843.968-2.297.968-1.484 0-2.328-.968-.828-.985-.828-2.657zm1.297 0q0 2.625 1.86 2.625.859 0 1.343-.703.5-.703.5-1.922 0-2.593-1.844-2.593-.843 0-1.359.687-.5.688-.5 1.906zm10.605 3.5v-4.047q0-1.125-.343-1.562-.329-.453-1.125-.453-.422 0-.891.265-.453.25-.703.61v5.187h-1.235v-6.968h.844l.39.89q.626-1.015 2-1.015 2.298 0 2.298 2.78v4.313zm2.533-.422.437-1.171q1.031.687 1.672.687 1.14 0 1.14-.969 0-.687-1.109-1.187-.843-.39-1.14-.594-.297-.203-.516-.453-.219-.25-.328-.547-.11-.297-.11-.625 0-.86.626-1.328.625-.484 1.64-.484.75 0 1.906.468l-.343 1.157q-.735-.594-1.485-.594-.437 0-.75.219-.297.203-.297.515 0 .672.766 1.016l.89.406q.813.375 1.173.86.375.468.375 1.171 0 .938-.657 1.469-.656.531-1.812.531-1.11 0-2.078-.547zm11.27.422h-1.047l3.453-9.578h1.03zm13.848 0-1.906-2.531-1.703 2.531h-1.438l2.531-3.562-2.328-3.406h1.39l1.563 2.39 1.75-2.39h1.375l-2.53 3.406 2.765 3.562zm6.677 0-1.906-2.531-1.703 2.531h-1.438l2.531-3.562-2.328-3.406h1.391l1.562 2.39 1.75-2.39h1.375l-2.53 3.406 2.765 3.562zm6.677 0-1.906-2.531-1.703 2.531h-1.438l2.532-3.562-2.329-3.406h1.391l1.563 2.39 1.75-2.39h1.375l-2.532 3.406 2.766 3.562zm6.677 0-1.906-2.531-1.703 2.531h-1.438l2.532-3.562-2.329-3.406h1.391l1.563 2.39 1.75-2.39h1.375l-2.532 3.406 2.766 3.562zm6.677 0-1.906-2.531-1.703 2.531h-1.438l2.532-3.562-2.328-3.406h1.39l1.563 2.39 1.75-2.39h1.375l-2.532 3.406 2.766 3.562zm6.677 0-1.906-2.531-1.703 2.531h-1.437l2.53-3.562-2.327-3.406h1.39l1.563 2.39 1.75-2.39h1.375l-2.531 3.406 2.765 3.562zM17.789 123.641l-1.125.016 1.015.687.313.39-.797.688-.344-.453-.531-1.047-.594 1.063-.281.406-.86-.656.329-.438 1.03-.546-1.155-.172-.579-.203.47-.985.624.235.813.625-.407-1.329v-.515h1.141v.484l-.39 1.375 1.03-.687.485-.188.36 1.063zm10.143 7.328-1.906-2.531-1.703 2.531h-1.438l2.532-3.562L23.089 124h1.39l1.563 2.39 1.75-2.39h1.375l-2.532 3.406 2.766 3.562zm6.677 0-1.906-2.531L31 130.969h-1.438l2.532-3.562L29.766 124h1.39l1.563 2.39 1.75-2.39h1.375l-2.532 3.406 2.766 3.562zm6.677 0-1.906-2.531-1.703 2.531H36.24l2.53-3.562L36.444 124h1.39l1.563 2.39 1.75-2.39h1.375l-2.531 3.406 2.765 3.562zm6.678 0-1.907-2.531-1.703 2.531h-1.437l2.53-3.562L43.12 124h1.39l1.563 2.39 1.75-2.39h1.375l-2.531 3.406 2.765 3.562zm6.677 0-1.907-2.531-1.703 2.531h-1.437l2.531-3.562L49.797 124h1.39l1.563 2.39 1.75-2.39h1.375l-2.531 3.406 2.765 3.562zm7.848 0h-1.047l3.454-9.578h1.03zm9.146-.422.437-1.171q1.031.687 1.672.687 1.14 0 1.14-.969 0-.687-1.109-1.187-.843-.39-1.14-.594-.297-.203-.516-.453-.219-.25-.328-.547-.11-.297-.11-.625 0-.86.626-1.328.625-.484 1.64-.484.75 0 1.906.468l-.343 1.157q-.735-.594-1.485-.594-.437 0-.75.219-.297.203-.297.515 0 .672.766 1.016l.89.406q.813.375 1.173.86.375.468.375 1.171 0 .938-.657 1.469-.656.531-1.812.531-1.11 0-2.078-.547zm11.723-2.937h-5.031q0 1.219.672 1.875.593.578 1.53.578 1.063 0 1.766-.625l.516.89q-.281.298-.875.5-.734.266-1.656.266-1.313 0-2.235-.89-1.015-.985-1.015-2.641 0-1.719 1.047-2.766.937-.921 2.218-.921 1.5 0 2.344.828.813.812.813 2.14 0 .422-.094.766zm-3-2.703q-.828 0-1.39.531-.532.516-.61 1.266h3.86q0-.75-.47-1.25-.5-.547-1.39-.547zm9.66-.344-.61.875q-.187-.187-.671-.36-.485-.171-.938-.171-1.016 0-1.61.719-.593.703-.593 1.921 0 1.235.61 1.875.609.641 1.687.641.828 0 1.672-.656l.484 1.047q-.984.64-2.469.64-1.422 0-2.36-.953-.92-.953-.92-2.594 0-1.656.968-2.656.969-1.015 2.64-1.015.547 0 1.172.234.64.219.938.453zm1.786.406h-.812v-.968h.812v-1.454l1.235-.484v1.938h1.906v.968h-1.906v3.469q0 .875.297 1.25.296.375.953.375.468 0 .984-.25l.172 1.094q-.766.187-1.688.187-.828 0-1.39-.61-.563-.608-.563-1.546zm6.113-3.61q.312 0 .531.235.234.219.234.532 0 .312-.234.546-.219.22-.531.22-.313 0-.547-.22-.219-.234-.219-.546 0-.313.219-.532.219-.234.547-.234zm-.672 9.61v-5.922h-.969v-1.046h2.203v6.968zm2.738-3.5q0-1.61.86-2.593.874-1 2.296-1 1.5 0 2.328.953.829.953.829 2.64 0 1.688-.86 2.657-.844.968-2.297.968-1.484 0-2.328-.968-.828-.985-.828-2.657zm1.297 0q0 2.625 1.86 2.625.859 0 1.343-.703.5-.703.5-1.922 0-2.593-1.844-2.593-.843 0-1.36.687-.5.688-.5 1.906zm10.605 3.5v-4.047q0-1.125-.344-1.562-.328-.453-1.125-.453-.421 0-.89.265-.453.25-.703.61v5.187h-1.235v-6.968h.844l.39.89q.626-1.015 2-1.015 2.298 0 2.298 2.78v4.313zm2.533-.422.437-1.171q1.031.687 1.672.687 1.14 0 1.14-.969 0-.687-1.109-1.187-.844-.39-1.14-.594-.297-.203-.516-.453-.219-.25-.328-.547-.11-.297-.11-.625 0-.86.625-1.328.625-.484 1.641-.484.75 0 1.906.468l-.343 1.157q-.735-.594-1.485-.594-.437 0-.75.219-.297.203-.297.515 0 .672.766 1.016l.89.406q.813.375 1.172.86.375.468.375 1.171 0 .938-.656 1.469-.656.531-1.812.531-1.11 0-2.078-.547zm11.27.422h-1.048l3.454-9.578h1.03zm13.848 0-1.906-2.531-1.704 2.531h-1.437l2.531-3.562-2.328-3.406h1.39l1.563 2.39 1.75-2.39h1.375l-2.531 3.406 2.766 3.562zm6.677 0-1.906-2.531-1.703 2.531h-1.438l2.531-3.562L141.37 124h1.39l1.563 2.39 1.75-2.39h1.375l-2.531 3.406 2.766 3.562zm6.677 0-1.906-2.531-1.703 2.531h-1.438l2.531-3.562-2.328-3.406h1.39l1.563 2.39 1.75-2.39h1.375l-2.53 3.406 2.765 3.562zm6.677 0-1.906-2.531-1.703 2.531h-1.438l2.531-3.562-2.328-3.406h1.391l1.562 2.39 1.75-2.39h1.375l-2.53 3.406 2.765 3.562zm6.677 0-1.906-2.531-1.703 2.531h-1.438l2.532-3.562L161.4 124h1.391l1.563 2.39 1.75-2.39h1.375l-2.532 3.406 2.766 3.562zm6.677 0-1.906-2.531-1.703 2.531h-1.438l2.532-3.562-2.329-3.406h1.391l1.563 2.39 1.75-2.39h1.375l-2.532 3.406 2.766 3.562z"/><path fill="none" d="M375.483 20.786H581.94v40.787H375.483z"/><path fill="#783f04" d="M381.593 37.195v3.125h-1.235v-9.703h1.235v.578q.703-.703 1.703-.703 1.484 0 2.312.922.828.922.828 2.703 0 1.594-.843 2.594-.829 1-2.407 1-.437 0-.937-.156t-.656-.36zm0-5.078v4.063q.125.172.5.344.375.156.734.156 2.312 0 2.312-2.61 0-1.312-.546-1.921-.547-.625-1.766-.625-.25 0-.625.187-.375.188-.61.406zm6.284 3.5v-7.859h1.25v7.64q0 .563.313.891.328.328.844.328v1.094q-2.407 0-2.407-2.094zm7.775 1.172q-.734.922-2.266.922-.828 0-1.437-.594-.594-.593-.594-1.484 0-1.047.922-1.781.937-.735 2.375-.735.39 0 .89.172 0-1.703-1.515-1.703-1.156 0-1.781.625l-.516-1.031q.344-.281.969-.485.625-.203 1.187-.203 1.516 0 2.203.688.688.687.688 2.187v2.5q0 .922.547 1.22v.624q-.75 0-1.125-.219-.375-.218-.547-.703zm-.11-2.625q-.593-.125-.828-.125-.937 0-1.53.485-.595.468-.595 1.125 0 1.093 1.297 1.093.922 0 1.657-.89zm3.628-2.578h-.812v-.969h.812v-1.453l1.234-.484v1.937h1.907v.97h-1.907v3.468q0 .875.297 1.25t.953.375q.47 0 .985-.25l.172 1.094q-.766.187-1.688.187-.828 0-1.39-.61-.563-.609-.563-1.546zm8.597-2.719q-.375-.125-.703-.125-.563 0-.938.438-.359.422-.359 1.078 0 .172.031.36h1.422v1.046h-1.422v5.922h-1.234v-5.922h-1.016v-1.047h1.016q0-1.328.656-2.093.656-.766 1.734-.766.547 0 1.157.203zm.708 5.22q0-1.61.86-2.595.874-1 2.296-1 1.5 0 2.328.953.828.954.828 2.641 0 1.688-.86 2.656-.843.97-2.296.97-1.484 0-2.328-.97-.828-.984-.828-2.656zm1.297 0q0 2.624 1.859 2.624.86 0 1.344-.703.5-.703.5-1.922 0-2.594-1.844-2.594-.844 0-1.36.688-.5.687-.5 1.906zm10.105-2.282q-.406-.281-.813-.281-.656 0-1.156.609-.484.61-.484 1.453v4h-1.25v-6.969h1.25v1.11q.672-1.235 2-1.235.343 0 .968.11zm9.461 5.781V33.18q0-1.656-1.437-1.656-.438 0-.828.28-.39.282-.532.626v5.156h-1.25v-4.953q0-.516-.39-.813-.375-.296-1.016-.296-.375 0-.797.296-.406.282-.593.625v5.141h-1.235v-6.969h.813l.406.813q.719-.938 1.797-.938 1.484 0 2.094.922.203-.39.765-.656.578-.266 1.172-.266 1.078 0 1.672.641.594.64.594 1.797v4.656zm8.407 0h-1.047l3.453-9.578h1.032zm13.536-.797q-.734.922-2.265.922-.828 0-1.438-.594-.594-.593-.594-1.484 0-1.047.922-1.781.938-.735 2.375-.735.39 0 .89.172 0-1.703-1.515-1.703-1.156 0-1.781.625l-.516-1.031q.344-.281.97-.485.624-.203 1.187-.203 1.515 0 2.203.688.687.687.687 2.187v2.5q0 .922.547 1.22v.624q-.75 0-1.125-.219-.375-.218-.547-.703zm-.11-2.625q-.593-.125-.827-.125-.938 0-1.531.485-.594.468-.594 1.125 0 1.093 1.297 1.093.922 0 1.656-.89zm7.472 3.422V33.54q0-1.125-.344-1.562-.328-.453-1.125-.453-.421 0-.89.265-.453.25-.703.61v5.187h-1.235v-6.969h.844l.39.891q.626-1.016 2-1.016 2.298 0 2.298 2.782v4.312zm7.407 0v-.516q-.64.641-1.875.641-1.312 0-2.125-.937-.812-.938-.812-2.5 0-1.563.937-2.672.938-1.11 2.235-1.11 1.078 0 1.64.5v-3.234h1.235v9.828zm0-5.36q-.468-.702-1.28-.702-1 0-1.61.75-.61.734-.61 1.89 0 2.516 2.282 2.516.297 0 .703-.188.406-.187.515-.39zm6.801-.421q-.406-.281-.813-.281-.656 0-1.156.609-.484.61-.484 1.453v4h-1.25v-6.969h1.25v1.11q.672-1.235 2-1.235.344 0 .969.11zm.93 2.281q0-1.61.86-2.594.875-1 2.296-1 1.5 0 2.329.953.828.954.828 2.641 0 1.688-.86 2.656-.843.97-2.297.97-1.484 0-2.328-.97-.828-.984-.828-2.656zm1.297 0q0 2.625 1.86 2.625.859 0 1.343-.703.5-.703.5-1.922 0-2.594-1.844-2.594-.843 0-1.359.688-.5.687-.5 1.906zm7.59-6.11q.312 0 .531.235.234.219.234.531 0 .313-.234.547-.219.219-.531.219-.313 0-.547-.219-.219-.234-.219-.547 0-.312.219-.53.219-.235.547-.235zm-.672 9.61v-5.922h-.969v-1.047h2.203v6.97zm7.613 0v-.516q-.64.641-1.875.641-1.313 0-2.125-.937-.813-.938-.813-2.5 0-1.563.938-2.672.937-1.11 2.234-1.11 1.078 0 1.641.5v-3.234h1.234v9.828zm0-5.36q-.469-.702-1.281-.702-1 0-1.61.75-.609.734-.609 1.89 0 2.516 2.281 2.516.297 0 .703-.188.407-.187.516-.39zm8.425 5.36h-1.047l3.453-9.578h1.032zm13.849 0-1.906-2.531-1.704 2.531h-1.437l2.531-3.562-2.328-3.407h1.39l1.563 2.391 1.75-2.39h1.375l-2.531 3.406 2.766 3.562zm6.677 0-1.906-2.531-1.703 2.531h-1.438l2.531-3.562-2.328-3.407h1.39l1.563 2.391 1.75-2.39h1.375l-2.531 3.406 2.766 3.562zm6.677 0-1.906-2.531-1.703 2.531h-1.438l2.531-3.562-2.328-3.407h1.39l1.563 2.391 1.75-2.39h1.375l-2.53 3.406 2.765 3.562zm6.677 0-1.906-2.531-1.703 2.531h-1.438l2.531-3.562-2.328-3.407h1.39l1.563 2.391 1.75-2.39h1.375l-2.53 3.406 2.765 3.562zm6.677 0-1.906-2.531-1.703 2.531h-1.438l2.531-3.562-2.328-3.407h1.39l1.563 2.391 1.75-2.39h1.375l-2.53 3.406 2.765 3.562zM381.593 53.195v3.125h-1.235v-9.703h1.235v.578q.703-.703 1.703-.703 1.484 0 2.312.922.828.922.828 2.703 0 1.594-.843 2.594-.829 1-2.407 1-.437 0-.937-.156t-.656-.36zm0-5.078v4.063q.125.172.5.344.375.156.734.156 2.312 0 2.312-2.61 0-1.312-.546-1.921-.547-.625-1.766-.625-.25 0-.625.187-.375.188-.61.406zm6.284 3.5v-7.859h1.25v7.64q0 .563.313.891.328.328.844.328v1.094q-2.407 0-2.407-2.094zm7.775 1.172q-.734.922-2.266.922-.828 0-1.437-.594-.594-.593-.594-1.484 0-1.047.922-1.781.937-.735 2.375-.735.39 0 .89.172 0-1.703-1.515-1.703-1.156 0-1.781.625l-.516-1.031q.344-.281.969-.485.625-.203 1.187-.203 1.516 0 2.203.688.688.687.688 2.187v2.5q0 .922.547 1.22v.624q-.75 0-1.125-.219-.375-.218-.547-.703zm-.11-2.625q-.593-.125-.828-.125-.937 0-1.53.485-.595.468-.595 1.125 0 1.093 1.297 1.093.922 0 1.657-.89zm3.628-2.578h-.812v-.969h.812v-1.453l1.234-.484v1.937h1.907v.97h-1.907v3.468q0 .875.297 1.25t.953.375q.47 0 .985-.25l.172 1.094q-.766.187-1.688.187-.828 0-1.39-.61-.563-.609-.563-1.546zm8.597-2.719q-.375-.125-.703-.125-.563 0-.938.438-.359.422-.359 1.078 0 .172.031.36h1.422v1.046h-1.422v5.922h-1.234v-5.922h-1.016v-1.047h1.016q0-1.328.656-2.093.656-.766 1.734-.766.547 0 1.157.203zm.708 5.22q0-1.61.86-2.595.874-1 2.296-1 1.5 0 2.328.953.828.954.828 2.641 0 1.688-.86 2.656-.843.97-2.296.97-1.484 0-2.328-.97-.828-.984-.828-2.656zm1.297 0q0 2.624 1.859 2.624.86 0 1.344-.703.5-.703.5-1.922 0-2.594-1.844-2.594-.844 0-1.36.688-.5.687-.5 1.906zm10.105-2.282q-.406-.281-.813-.281-.656 0-1.156.609-.484.61-.484 1.453v4h-1.25v-6.969h1.25v1.11q.672-1.235 2-1.235.343 0 .968.11zm9.461 5.781V49.18q0-1.656-1.437-1.656-.438 0-.828.28-.39.282-.532.626v5.156h-1.25v-4.953q0-.516-.39-.813-.375-.296-1.016-.296-.375 0-.797.296-.406.282-.593.625v5.141h-1.235v-6.969h.813l.406.813q.719-.938 1.797-.938 1.484 0 2.094.922.203-.39.765-.656.578-.266 1.172-.266 1.078 0 1.672.641.594.64.594 1.797v4.656zm8.407 0h-1.047l3.453-9.578h1.032zm10.88-9.61q.313 0 .531.235.235.219.235.531 0 .313-.235.547-.218.219-.531.219-.312 0-.547-.219-.219-.234-.219-.547 0-.312.22-.53.218-.235.546-.235zm-.672 9.61v-5.922h-.969v-1.047h2.204v6.97zm2.738-3.5q0-1.61.86-2.594.875-1 2.297-1 1.5 0 2.328.953.828.954.828 2.641 0 1.688-.86 2.656-.843.97-2.296.97-1.485 0-2.329-.97-.828-.984-.828-2.656zm1.297 0q0 2.625 1.86 2.625.859 0 1.343-.703.5-.703.5-1.922 0-2.594-1.843-2.594-.844 0-1.36.688-.5.687-.5 1.906zm5.855 3.078.438-1.172q1.031.688 1.672.688 1.14 0 1.14-.969 0-.687-1.109-1.187-.844-.391-1.14-.594-.297-.203-.516-.453-.219-.25-.328-.547-.11-.297-.11-.625 0-.86.625-1.328.625-.485 1.64-.485.75 0 1.907.47l-.344 1.155q-.734-.593-1.484-.593-.437 0-.75.218-.297.203-.297.516 0 .672.766 1.016l.89.406q.813.375 1.172.86.375.468.375 1.171 0 .938-.656 1.469-.656.531-1.812.531-1.11 0-2.079-.547zm11.27.422h-1.047l3.453-9.578h1.032zm13.849 0-1.906-2.531-1.704 2.531h-1.437l2.531-3.562-2.328-3.407h1.39l1.563 2.391 1.75-2.39h1.375l-2.531 3.406 2.766 3.562zm6.677 0-1.906-2.531-1.704 2.531h-1.437l2.531-3.562-2.328-3.407h1.39l1.563 2.391 1.75-2.39h1.375l-2.531 3.406 2.766 3.562zm6.677 0-1.906-2.531-1.703 2.531h-1.438l2.531-3.562-2.328-3.407h1.39l1.563 2.391 1.75-2.39h1.375l-2.53 3.406 2.765 3.562zm6.677 0-1.906-2.531-1.703 2.531h-1.438l2.531-3.562-2.328-3.407h1.39l1.563 2.391 1.75-2.39h1.375l-2.53 3.406 2.765 3.562zm6.677 0-1.906-2.531-1.703 2.531h-1.438l2.531-3.562-2.328-3.407h1.391l1.562 2.391 1.75-2.39h1.375l-2.53 3.406 2.765 3.562z"/><path fill="none" d="M355.04 177.382h63.464v24.63H355.04z"/><path fill="#783f04" d="m360.977 193.682-.437.625h-.625v-9.953h1.234v3.375q.187-.25.672-.438.484-.203.953-.203 1.422 0 2.312.985.891.984.891 2.5 0 1.734-.89 2.734-.891 1-2.422 1-.485 0-.97-.172-.468-.187-.718-.453zm.172-5.016v4.032q0 .093.469.343.468.235.703.235 1.265 0 1.812-.61.547-.61.547-2.031 0-1.187-.64-1.844-.641-.672-1.72-.672-.234 0-.64.204-.406.187-.531.343zm7.363-1.453v4.438q0 1.625 1.406 1.625.61 0 1.11-.344.515-.36.671-.828v-4.89h1.235v6.968h-1.235v-.969q-.203.422-.828.766-.625.328-1.234.328-1.14 0-1.75-.656-.61-.657-.61-1.86v-4.578zm7.392-2.64q.312 0 .53.234.235.219.235.531 0 .313-.234.547-.219.219-.531.219-.313 0-.547-.219-.219-.234-.219-.547 0-.312.219-.531.219-.234.547-.234zm-.672 9.609v-5.922h-.969v-1.047h2.203v6.969zm3.285-1.969v-7.86h1.25v7.641q0 .563.312.891.328.328.844.328v1.094q-2.406 0-2.406-2.094zm8.259 1.969v-.516q-.641.64-1.875.64-1.313 0-2.125-.937-.813-.937-.813-2.5 0-1.562.938-2.671.937-1.11 2.234-1.11 1.078 0 1.64.5v-3.234h1.235v9.828zm0-5.36q-.47-.703-1.282-.703-1 0-1.609.75-.61.735-.61 1.891 0 2.516 2.282 2.516.297 0 .703-.188.406-.187.516-.39zm4.41 5.36h-1.047l3.453-9.578h1.031z"/><path fill="none" d="m428.504 63.335-41.732 114.047"/><path stroke="#000" stroke-width="4" stroke-linejoin="round" stroke-linecap="butt" d="m428.504 63.335-33.485 91.508"/><path fill="#000" stroke="#000" stroke-width="4" stroke-linecap="butt" d="m388.815 152.573-.034 19.317 12.443-14.776z" fill-rule="evenodd"/><path fill="#b6d7a8" d="M73.52 5.122h133.67v40H73.52z" fill-rule="evenodd"/><path stroke="#38761d" stroke-width="3" stroke-linejoin="round" stroke-linecap="butt" d="M73.52 5.122h133.67v40H73.52z"/><path fill="none" d="M73.52 5.626h113.386v23.433H73.52z"/><path fill="#000" d="M82.333 19.146h-1.547l.734-4h-3.406l-.735 4h-1.546l1.578-8.578h1.547l-.61 3.297h3.406l.61-3.297h1.547zm1.748-2.344q0-1.703 1.03-2.875 1.048-1.172 2.626-1.172 1.219 0 1.875.625.656.625.656 1.797 0 1.735-1.031 2.922-1.016 1.172-2.64 1.172-1.188 0-1.86-.64-.656-.641-.656-1.829zm1.53-.078q0 1.344 1.141 1.344.922 0 1.454-.844.53-.844.53-2.016 0-1.265-1.155-1.265-.891 0-1.438.844-.531.828-.531 1.937zm9.526-2.14q-.703-.61-1.297-.61-.359 0-.625.172-.265.156-.265.437 0 .344.625.672.64.328.984.516.344.187.547.516.219.328.219.75 0 1.03-.782 1.64-.765.594-1.968.594-1.032 0-2.016-.594l.766-1.328q.734.688 1.437.688.453 0 .735-.22.296-.218.296-.593 0-.328-.562-.61-.547-.28-.969-.515-.422-.25-.64-.594-.22-.343-.22-.75 0-.922.735-1.453.735-.547 1.781-.547.735 0 1.891.485zm5.79-.532h-1.72l-.64 2.781q-.078.329-.078.547 0 .657.734.657.328 0 1.047-.313v1.328q-.625.219-1.719.219-.718 0-1.156-.453-.422-.453-.422-1.156 0-.235.047-.47l.719-3.14h-.735l.25-1.187h.735l.25-1.282 1.672-.609-.438 1.89h1.719zm1.302 4.281q0-.39.266-.656.265-.281.656-.281.39 0 .656.281.281.266.281.656 0 .391-.28.672-.266.266-.657.266-.39 0-.656-.266-.266-.28-.266-.672zm.734-4.53q0-.391.266-.657.281-.281.656-.281.39 0 .657.281.28.266.28.656t-.28.672q-.266.266-.657.266-.375 0-.656-.266-.266-.281-.266-.672zm12.116 3.093q-.047.219-.047.484 0 1.282.203 1.766h-.922q-.406 0-.61-.625-.75.75-1.859.75-1.031 0-1.594-.578-.546-.578-.546-1.61 0-1.78 1.078-3.046 1.078-1.282 2.718-1.282 1.594 0 2.297.297zm-1.704-2.953q-.984 0-1.578.953-.578.937-.578 2.156 0 1.016 1 1.016.625 0 1.094-.781.484-.782.844-3.22-.407-.124-.782-.124zm8.692 5.203h-1.453l.11-.594q-.485.719-1.61.719-1.094 0-1.719-.64-.625-.657-.625-1.782 0-1.797 1-2.937 1-1.157 2.672-1.157.312 0 .703.125.39.125.578.266l.531-2.844h1.422zm-1.531-5.156q-1.016 0-1.625.75-.594.734-.594 1.89 0 1.422 1.187 1.422 1.282 0 1.657-2.031l.28-1.5q-.28-.531-.905-.531zm7.9.062h-1.719l-.64 2.781q-.078.329-.078.547 0 .657.734.657.328 0 1.047-.313v1.328q-.625.219-1.719.219-.719 0-1.156-.453-.422-.453-.422-1.156 0-.235.047-.47l.719-3.14h-.735l.25-1.187h.735l.25-1.282 1.671-.609-.437 1.89h1.719zm2.225-3.203q0-.39.28-.64.282-.266.673-.266.39 0 .672.265.28.25.28.641 0 .39-.28.656-.282.266-.672.266-.39 0-.672-.266-.281-.265-.281-.656zm.437 8.297h-1.484l.937-5.094h-.797l.25-1.187h2.266zm7.264 0h-1.453l.11-.594q-.485.719-1.61.719-1.094 0-1.72-.64-.624-.657-.624-1.782 0-1.797 1-2.937 1-1.157 2.672-1.157.312 0 .703.125.39.125.578.266l.531-2.844h1.422zm-1.531-5.156q-1.016 0-1.625.75-.594.734-.594 1.89 0 1.422 1.187 1.422 1.282 0 1.657-2.031l.28-1.5q-.28-.531-.905-.531zm6.619 5.781q-.875 1.828-3.39 1.844v-1.422q1.655 0 2.124-1.078l.297-.703q-.797-.22-1.078-1.688l-.75-3.86h1.547q.687 4.126.875 4.313l2.015-4.312h1.657zm4.33-1.438q0-.39.265-.656.266-.281.657-.281.39 0 .656.281.281.266.281.656 0 .391-.281.672-.266.266-.656.266-.391 0-.657-.266-.265-.28-.265-.672zm3.625-1.53q0-1.704 1.031-2.876 1.047-1.172 2.625-1.172 1.219 0 1.875.625.656.625.656 1.797 0 1.735-1.031 2.922-1.016 1.172-2.64 1.172-1.188 0-1.86-.64-.656-.641-.656-1.829zm1.531-.079q0 1.344 1.14 1.344.923 0 1.454-.844.531-.844.531-2.016 0-1.265-1.156-1.265-.89 0-1.438.844-.531.828-.531 1.937zm9.979-2.36q-.516-.39-.922-.39-.563 0-1.047.5-.469.484-.594 1.125l-.656 3.547h-1.469l1.172-6.281h1.469l-.094.547q.781-.657 1.719-.657.234 0 .86.11zm6.095-.406q.125.297.125.704 0 .921-.39 1.593-.391.657-1.297 1.078-.906.407-1 .563.39-.078.625-.078.656 0 1.11.406.468.39.468 1.016 0 1.14-.797 1.75-.797.625-2.328.625-.563 0-1.25-.235-.672-.218-1.094-.547l.64-1.109q.845.594 1.735.594 1.64 0 1.64-.875 0-.188-.171-.313-.172-.125-.516-.187l-1.11-.203q-.624-.188-.624-.719 0-.313.516-.625-.641-.188-1.047-.688-.391-.5-.391-1.109 0-1.266.828-2.047.844-.797 2.156-.797.813 0 1.36.344l.562-.594.86.844zm-3.672 1.5q0 .47.204.782.218.297.593.297.64 0 1.063-.516.422-.516.422-1.25 0-.828-.86-.828-.656 0-1.047.437-.375.422-.375 1.078z"/><path fill="none" d="M224.176 103.007 375.483 41.18"/><path stroke="#000" stroke-width="4" stroke-linejoin="round" stroke-linecap="butt" d="m224.176 103.007 129.09-52.749"/><path fill="#000" stroke="#000" stroke-width="4" stroke-linecap="butt" d="m355.766 56.374 14.304-12.982-19.303.75z" fill-rule="evenodd"/><path fill="#434343" d="M253.85 57.056h100.472v28.882H253.849z" fill-rule="evenodd"/><path fill="#fff" d="M264.873 68.045v2.39h3.016v.985h-3.016v4.156h-1.171v-8.578h5.312v1.047zm6.19-1.125q.297 0 .484.203.203.203.203.484 0 .297-.203.5-.187.203-.484.203-.281 0-.485-.203-.203-.203-.203-.5 0-.281.203-.484.204-.203.485-.203zm-.61 8.656v-5.344h-.859v-.937h1.969v6.28zm2.97-1.781v-7.063h1.124v6.875q0 .516.281.813.297.28.766.28v1q-2.172 0-2.172-1.905zm3.85-3.61h-.718v-.89h.719v-1.313l1.11-.422v1.735h1.734v.89h-1.735v3.11q0 .797.266 1.125.281.328.86.328.437 0 .89-.203l.172.968q-.703.188-1.532.188-.734 0-1.25-.547-.515-.562-.515-1.406zm9.65 2.36h-4.532q0 1.109.61 1.687.53.516 1.374.516.953 0 1.594-.547l.469.797q-.266.265-.797.453-.672.25-1.484.25-1.188 0-2.016-.813-.922-.89-.922-2.375 0-1.562.953-2.5.844-.828 2-.828 1.344 0 2.094.75.75.735.75 1.938 0 .36-.094.672zm-2.704-2.422q-.75 0-1.25.484-.484.453-.547 1.125h3.485q0-.672-.422-1.125-.469-.484-1.266-.484zm7.373.25q-.36-.25-.734-.25-.594 0-1.031.547-.438.547-.438 1.312v3.594h-1.125v-6.281h1.125v1q.61-1.11 1.797-1.11.312 0 .875.11zm.836 4.828.406-1.063q.922.61 1.5.61 1.032 0 1.032-.86 0-.625-1-1.062-.766-.36-1.032-.531-.265-.188-.468-.422-.204-.235-.297-.485-.094-.265-.094-.562 0-.781.562-1.203.563-.438 1.47-.438.687 0 1.734.438l-.313 1.031q-.672-.531-1.344-.531-.39 0-.672.187-.265.188-.265.469 0 .61.687.922l.797.36q.735.327 1.063.765.343.422.343 1.062 0 .844-.593 1.329-.594.484-1.64.484-1 0-1.876-.5zm10.842-7.89-.39 1q-.563-.407-1.766-.407-1.141 0-1.829.969-.671.969-.671 2.5 0 1.469.687 2.39.703.907 1.813.907 1.218 0 1.859-.86l.64.89q-1.015 1.017-2.624 1.017-1.672 0-2.641-1.204-.969-1.218-.969-3.203 0-1.922 1.031-3.187 1.032-1.281 2.672-1.281 1.391 0 2.188.468zm1.193 5.109q0-1.453.781-2.344.797-.89 2.063-.89 1.36 0 2.094.859.75.859.75 2.375 0 1.515-.766 2.406-.766.875-2.078.875-1.344 0-2.094-.89-.75-.891-.75-2.391zm1.172 0q0 2.359 1.672 2.359.781 0 1.219-.625.453-.64.453-1.734 0-2.328-1.672-2.328-.75 0-1.219.625-.453.609-.453 1.703zm12.955 3.156v-3.969q0-1.484-1.281-1.484-.406 0-.766.25-.343.25-.484.562v4.64h-1.11v-4.452q0-.469-.343-.735-.344-.265-.922-.265-.344 0-.719.265-.375.25-.531.563v4.625h-1.11v-6.281h.72l.374.734q.64-.844 1.61-.844 1.343 0 1.89.828.188-.343.688-.578.515-.25 1.047-.25.984 0 1.515.578.532.579.532 1.61v4.203zm3.805-.344v2.813h-1.11v-8.75h1.11v.515q.625-.625 1.531-.625 1.328 0 2.078.828.75.829.75 2.438 0 1.437-.75 2.344-.75.906-2.172.906-.406 0-.859-.14-.453-.157-.578-.329zm0-4.578v3.656q.11.157.437.297.344.14.672.14 2.078 0 2.078-2.343 0-1.187-.5-1.734-.484-.547-1.578-.547-.234 0-.578.172-.328.156-.531.359zm6.717-3.734q.297 0 .484.203.203.203.203.484 0 .297-.203.5-.187.203-.484.203-.282 0-.485-.203t-.203-.5q0-.281.203-.484.203-.203.485-.203zm-.61 8.656v-5.344h-.86v-.937h1.97v6.28zm2.969-1.781v-7.063h1.125v6.875q0 .516.281.813.297.28.766.28v1q-2.172 0-2.172-1.905zm8.742-1.25h-4.531q0 1.109.61 1.687.53.516 1.374.516.953 0 1.594-.547l.469.797q-.266.265-.797.453-.672.25-1.484.25-1.188 0-2.016-.813-.922-.89-.922-2.375 0-1.562.953-2.5.844-.828 2-.828 1.344 0 2.094.75.75.735.75 1.938 0 .36-.094.672zm-2.703-2.422q-.75 0-1.25.484-.484.453-.547 1.125h3.485q0-.672-.422-1.125-.469-.484-1.266-.484zm7.373.25q-.36-.25-.734-.25-.594 0-1.031.547-.438.547-.438 1.312v3.594h-1.125v-6.281h1.125v1q.61-1.11 1.797-1.11.312 0 .875.11z"/><path fill="none" d="M208.701 32.508c6.334-2.615 25.473-14.18 38.003-15.695 12.53-1.514 31.257-.551 37.178 6.609 5.921 7.16-1.378 30.293-1.653 36.352"/><path stroke="#000" stroke-linejoin="round" stroke-linecap="butt" stroke-dasharray="4, 3" d="M208.701 32.508c6.334-2.615 25.473-14.18 38.003-15.695 12.53-1.514 31.257-.551 37.178 6.609 2.96 3.58 2.616 11.153 1.497 18.589-.56 3.718-1.313 7.4-1.943 10.534-.158.783-.308 1.531-.445 2.238-.069.353-.134.695-.196 1.026l-.103.569"/><path fill="#000" stroke="#000" stroke-linecap="butt" d="m282.692 56.378-.962-1.266.696 3.213 1.532-2.91z" fill-rule="evenodd"/><path fill="#f3f3f3" d="M225.906 4.965h63.464v19.81h-63.464z" fill-rule="evenodd"/><path stroke="#999" stroke-width="2" stroke-linejoin="round" stroke-linecap="butt" d="M225.906 4.965h63.464v19.81h-63.464z"/><path fill="#434343" d="M236.796 11.517v2.125h2.672v.875h-2.672v3.688h-1.047V10.58h4.703v.937zm9.156 4h-4.016q0 .969.547 1.5.469.453 1.203.453.86 0 1.422-.484l.422.703q-.235.234-.703.406-.594.219-1.328.219-1.047 0-1.782-.719-.812-.781-.812-2.11 0-1.374.828-2.218.75-.734 1.781-.734 1.188 0 1.86.672.656.64.656 1.703 0 .328-.078.61zm-2.39-2.156q-.657 0-1.11.422-.422.406-.485 1.015h3.078q0-.593-.375-1-.406-.437-1.109-.437zm8.202 2.156h-4.016q0 .969.547 1.5.469.453 1.203.453.86 0 1.422-.484l.422.703q-.235.234-.703.406-.594.219-1.328.219-1.047 0-1.782-.719-.812-.781-.812-2.11 0-1.374.828-2.218.75-.734 1.781-.734 1.188 0 1.86.672.656.64.656 1.703 0 .328-.078.61zm-2.39-2.156q-.657 0-1.11.422-.422.406-.485 1.015h3.078q0-.593-.375-1-.406-.437-1.109-.437zm7.046 4.844v-.422q-.516.515-1.5.515-1.047 0-1.704-.75-.64-.75-.64-2t.75-2.125q.75-.89 1.781-.89.86 0 1.313.406v-2.594h.984v7.86zm0-4.282q-.375-.562-1.032-.562-.781 0-1.281.594-.484.593-.484 1.515 0 2 1.828 2 .234 0 .562-.14.328-.157.407-.313zm3.249 3.875-.344.516h-.5v-7.969h.985v2.703q.14-.203.53-.36.391-.155.766-.155 1.141 0 1.844.797.719.78.719 1.984 0 1.39-.719 2.203-.703.797-1.922.797-.39 0-.781-.14-.375-.157-.578-.376zm.14-4v3.22q0 .077.376.265.375.187.562.187 1 0 1.438-.484.437-.485.437-1.61 0-.953-.516-1.484-.5-.531-1.359-.531-.187 0-.516.156-.312.156-.421.281zm8.094 3.766q-.594.75-1.813.75-.656 0-1.14-.469-.47-.484-.47-1.203 0-.844.735-1.422.75-.594 1.89-.594.313 0 .704.141 0-1.36-1.203-1.36-.922 0-1.422.5l-.422-.827q.281-.22.781-.375.5-.172.953-.172 1.204 0 1.75.547.563.546.563 1.75v2q0 .734.437.984v.484q-.609 0-.906-.172-.297-.171-.437-.562zm-.094-2.094q-.469-.11-.656-.11-.735 0-1.219.391-.469.375-.469.907 0 .875 1.031.875.735 0 1.313-.72zm6.755-2.39-.484.703q-.157-.157-.547-.282-.375-.14-.75-.14-.797 0-1.282.562-.468.563-.468 1.547 0 .985.484 1.5.484.5 1.344.5.672 0 1.344-.515l.39.843q-.797.516-1.969.516-1.14 0-1.89-.766-.735-.765-.735-2.078 0-1.328.766-2.125.781-.812 2.11-.812.437 0 .937.187.516.172.75.36zm4.667 5.125-1.735-2.782-.875.875v1.907h-.984v-7.86h.984v4.875l2.14-2.594h1.157l-1.797 2.125 2.188 3.454z"/><path fill="#f3f3f3" d="M106.75 180.973h100.44v32.98H106.75z" fill-rule="evenodd"/><path stroke="#e06666" stroke-width="3" stroke-linejoin="round" stroke-linecap="butt" d="M106.75 180.973h100.44v32.98H106.75z"/><path fill="none" d="M106.75 180.973h88.417v19.32h-88.416z"/><path fill="#000" d="M115.86 187.243h-3.969l-.343 1.969h2.828l-.235 1.281h-2.843l-.485 2.656h3.89l-.25 1.344h-5.452l1.578-8.578h5.531zm5.807 5q-.047.219-.047.485 0 1.28.203 1.765h-.922q-.406 0-.61-.625-.75.75-1.859.75-1.031 0-1.593-.578-.547-.578-.547-1.61 0-1.78 1.078-3.046 1.078-1.281 2.719-1.281 1.593 0 2.296.296zm-1.703-2.953q-.985 0-1.579.953-.578.938-.578 2.156 0 1.016 1 1.016.625 0 1.094-.781.484-.781.844-3.219-.406-.125-.781-.125zm7.66.64q-.703-.609-1.297-.609-.36 0-.625.172-.266.156-.266.438 0 .343.625.672.64.328.985.515.343.188.546.516.22.328.22.75 0 1.031-.782 1.64-.766.594-1.969.594-1.031 0-2.015-.594l.765-1.328q.735.688 1.438.688.453 0 .734-.219.297-.219.297-.594 0-.328-.563-.609-.546-.281-.968-.516-.422-.25-.64-.593-.22-.344-.22-.75 0-.922.735-1.454.734-.546 1.781-.546.734 0 1.89.484zm4.508 5.188q-.875 1.828-3.391 1.844v-1.422q1.656 0 2.125-1.078l.297-.703q-.797-.219-1.078-1.688l-.75-3.859h1.547q.687 4.125.875 4.312l2.015-4.312h1.656zm8.83-.625h-5.407l1.578-8.578h1.532l-1.328 7.234h3.875zm2.527-8.297q0-.39.281-.64.281-.266.672-.266.39 0 .672.266.281.25.281.64 0 .391-.281.657-.281.265-.672.265-.39 0-.672-.265-.281-.266-.281-.657zm.437 8.297h-1.484l.938-5.094h-.797l.25-1.187h2.265zm6.233-4.562q-.703-.61-1.297-.61-.36 0-.625.172-.266.156-.266.438 0 .343.625.672.641.328.985.515.343.188.547.516.218.328.218.75 0 1.031-.78 1.64-.767.594-1.97.594-1.03 0-2.015-.594l.765-1.328q.735.688 1.438.688.453 0 .734-.219.297-.219.297-.594 0-.328-.562-.609-.547-.281-.97-.516-.421-.25-.64-.593-.219-.344-.219-.75 0-.922.735-1.454.734-.546 1.781-.546.734 0 1.89.484zm5.789-.532h-1.719l-.64 2.782q-.079.328-.079.547 0 .656.735.656.328 0 1.047-.313v1.328q-.625.22-1.719.22-.719 0-1.156-.454-.422-.453-.422-1.156 0-.235.047-.469l.718-3.14h-.734l.25-1.188h.734l.25-1.281 1.672-.61-.437 1.891h1.719z"/><path fill="none" d="M493.121 123.213h106.142v24.63H493.12z"/><path fill="#783f04" d="M498.45 134.013h-.813v-.97h.812v-1.452l1.235-.485v1.938h1.906v.969h-1.906v3.468q0 .875.296 1.25.297.375.954.375.468 0 .984-.25l.172 1.094q-.766.188-1.688.188-.828 0-1.39-.61-.563-.61-.563-1.547zm8.627.218q-.406-.28-.812-.28-.656 0-1.156.608-.485.61-.485 1.454v4h-1.25v-6.97h1.25v1.11q.672-1.234 2-1.234.344 0 .969.11zm7.259 2.422h-5.031q0 1.219.671 1.875.594.578 1.532.578 1.062 0 1.765-.625l.516.891q-.281.297-.875.5-.734.266-1.656.266-1.313 0-2.235-.891-1.015-.984-1.015-2.64 0-1.72 1.047-2.766.937-.922 2.218-.922 1.5 0 2.344.828.813.812.813 2.14 0 .422-.094.766zm-3-2.703q-.828 0-1.39.531-.532.516-.61 1.266h3.86q0-.75-.47-1.25-.5-.547-1.39-.547zm10.269 2.703h-5.031q0 1.219.672 1.875.593.578 1.53.578 1.063 0 1.767-.625l.515.891q-.281.297-.875.5-.734.266-1.656.266-1.313 0-2.234-.891-1.016-.984-1.016-2.64 0-1.72 1.047-2.766.937-.922 2.219-.922 1.5 0 2.343.828.813.812.813 2.14 0 .422-.094.766zm-3-2.703q-.828 0-1.39.531-.532.516-.61 1.266h3.86q0-.75-.47-1.25-.5-.547-1.39-.547zm5.8 6.063h-1.046l3.453-9.579h1.031zm5.334 1.906.672-.985q1.078.72 1.984.72.844 0 1.328-.298.485-.28.485-.718 0-.844-1.22-.844-.218 0-.765.11-.531.109-.844.109-1.484 0-1.484-1.125 0-.344.344-.625.36-.282.86-.407-1.47-.687-1.47-2.39 0-1.094.766-1.813.766-.734 1.875-.734 1.031 0 1.61.422l.624-.75.813.765-.75.563q.469.61.469 1.61 0 1.062-.657 1.78-.656.704-1.718.813l-1.016.094q-.187.03-.5.156-.297.11-.297.312 0 .266.64.266.282 0 .86-.094.594-.109.89-.109 1.016 0 1.595.5.578.484.578 1.344 0 .968-.86 1.562-.86.594-2.187.594-.672 0-1.422-.25-.75-.234-1.203-.578zm2.625-8.016q-.64 0-1.047.469-.406.453-.406 1.094 0 .734.39 1.218.39.47 1.063.47.656 0 1.015-.454.375-.469.375-1.234 0-.64-.406-1.094-.39-.469-.984-.469zm8.612 6.11v-4.375q0-.782-.39-1.235-.376-.453-1.079-.453-.437 0-.89.266-.454.265-.704.61v5.187h-1.234v-9.829h1.234v3.625q.25-.39.797-.64.563-.25 1.14-.25 1.11 0 1.735.734.625.719.625 1.985v4.375zm3.141-3.297v-1.14h2.782v1.14zm5.972 2.906v3.125h-1.234v-9.703h1.234v.578q.704-.703 1.704-.703 1.484 0 2.312.922.828.922.828 2.703 0 1.594-.844 2.594-.828 1-2.406 1-.437 0-.937-.157-.5-.156-.657-.359zm0-5.078v4.062q.125.172.5.344.375.156.735.156 2.312 0 2.312-2.609 0-1.313-.547-1.922-.546-.625-1.765-.625-.25 0-.625.188-.375.187-.61.406zm10.13 4.672q-.735.922-2.266.922-.829 0-1.438-.594-.594-.594-.594-1.485 0-1.046.922-1.78.938-.735 2.375-.735.39 0 .89.172 0-1.703-1.515-1.703-1.156 0-1.781.625l-.516-1.032q.344-.28.969-.484.625-.203 1.188-.203 1.515 0 2.203.687.687.688.687 2.188v2.5q0 .922.547 1.219v.625q-.75 0-1.125-.22-.375-.218-.547-.702zm-.11-2.625q-.594-.125-.828-.125-.938 0-1.532.484-.593.469-.593 1.125 0 1.094 1.297 1.094.921 0 1.656-.89zm2.924 5.328.672-.985q1.078.72 1.984.72.844 0 1.328-.298.485-.28.485-.718 0-.844-1.219-.844-.219 0-.766.11-.53.109-.843.109-1.485 0-1.485-1.125 0-.344.344-.625.36-.282.86-.407-1.47-.687-1.47-2.39 0-1.094.766-1.813.766-.734 1.875-.734 1.032 0 1.61.422l.625-.75.812.765-.75.563q.469.61.469 1.61 0 1.062-.656 1.78-.657.704-1.719.813l-1.016.094q-.187.03-.5.156-.297.11-.297.312 0 .266.641.266.281 0 .86-.094.593-.109.89-.109 1.016 0 1.594.5.578.484.578 1.344 0 .968-.86 1.562-.859.594-2.187.594-.672 0-1.422-.25-.75-.234-1.203-.578zm2.625-8.016q-.64 0-1.047.469-.406.453-.406 1.094 0 .734.39 1.218.391.47 1.063.47.656 0 1.016-.454.375-.469.375-1.234 0-.64-.407-1.094-.39-.469-.984-.469zm10.19 2.75h-5.031q0 1.219.672 1.875.594.578 1.531.578 1.063 0 1.766-.625l.515.891q-.28.297-.875.5-.734.266-1.656.266-1.312 0-2.234-.891-1.016-.984-1.016-2.64 0-1.72 1.047-2.766.937-.922 2.219-.922 1.5 0 2.343.828.813.812.813 2.14 0 .422-.094.766zm-3-2.703q-.828 0-1.39.531-.532.516-.61 1.266h3.86q0-.75-.47-1.25-.5-.547-1.39-.547zm3.941 5.64.438-1.171q1.031.687 1.672.687 1.14 0 1.14-.968 0-.688-1.109-1.188-.844-.39-1.14-.594-.298-.203-.516-.453-.219-.25-.328-.547-.11-.297-.11-.625 0-.859.625-1.328.625-.484 1.64-.484.75 0 1.907.469l-.344 1.156q-.734-.594-1.484-.594-.438 0-.75.219-.297.203-.297.515 0 .672.766 1.016l.89.406q.813.375 1.172.86.375.468.375 1.172 0 .937-.656 1.468-.656.532-1.813.532-1.109 0-2.078-.547zm7.255.423h-1.047l3.453-9.579h1.031z"/><path fill="none" d="M402.887 188.856c18.343 0 86.647 6.761 110.056 0 23.408-6.76 25.328-33.805 30.393-40.566"/><path stroke="#b45f06" stroke-linejoin="round" stroke-linecap="butt" d="M402.887 188.856c18.343 0 86.647 6.761 110.056 0 11.704-3.38 18.036-11.832 22.075-20.283 2.02-4.226 3.466-8.451 4.724-12.043.629-1.796 1.211-3.433 1.794-4.833l.025-.059"/><path fill="#b45f06" stroke="#b45f06" stroke-linecap="butt" d="M543.102 148.732a1.645 1.645 0 1 1-1.541 2.906 1.645 1.645 0 0 1 1.541-2.906z"/><path fill="none" d="M217 199.658c10.878-5.78 53.15-19.267 65.268-34.681 12.117-15.415-7.022-46.887 7.436-57.806 14.458-10.919 65.818-19.269 79.312-7.708 13.494 11.561 1.376 64.228 1.651 77.074"/><path stroke="#666" stroke-width="2" stroke-linejoin="round" stroke-linecap="butt" d="M217 199.658c10.878-5.78 53.15-19.267 65.268-34.681 12.117-15.415-7.022-46.887 7.436-57.806 14.458-10.919 65.818-19.269 79.312-7.708 6.747 5.78 7.091 21.838 5.783 38.055-.655 8.109-1.722 16.258-2.608 23.182-.111.866-.22 1.712-.323 2.537l-.167 1.344"/><path fill="#666" stroke="#666" stroke-width="2" stroke-linecap="butt" d="m368.41 164.297 2.509 9.327 4.073-8.758z" fill-rule="evenodd"/><path fill="#434343" d="M327.502 110.24h113.385v28.882H327.502z" fill-rule="evenodd"/><path fill="#fff" d="M345.533 128.76v-4.156h-3.75v4.156h-1.171v-8.578h1.171v3.438h3.75v-3.438h1.172v8.578zm2.43-3.156q0-1.453.781-2.344.797-.89 2.063-.89 1.36 0 2.094.859.75.86.75 2.375 0 1.516-.766 2.406-.766.875-2.078.875-1.344 0-2.094-.89-.75-.891-.75-2.391zm1.172 0q0 2.36 1.672 2.36.781 0 1.219-.626.453-.64.453-1.734 0-2.328-1.672-2.328-.75 0-1.219.625-.453.61-.453 1.703zm5.268 2.781.406-1.062q.922.609 1.5.609 1.031 0 1.031-.86 0-.624-1-1.062-.766-.36-1.031-.531-.266-.188-.469-.422-.203-.234-.297-.484-.094-.266-.094-.563 0-.781.563-1.203.562-.437 1.469-.437.687 0 1.734.437l-.312 1.031q-.672-.531-1.344-.531-.39 0-.672.188-.266.187-.266.468 0 .61.688.922l.797.36q.734.328 1.062.765.344.422.344 1.063 0 .843-.594 1.328-.594.484-1.64.484-1 0-1.875-.5zm5.67-5.015h-.72v-.891h.72v-1.313l1.109-.421v1.734h1.734v.89h-1.734v3.11q0 .797.265 1.125.282.328.86.328.437 0 .89-.203l.172.969q-.703.187-1.53.187-.735 0-1.25-.547-.517-.562-.517-1.406zm4.445 3.609v-7.063h1.125v6.875q0 .516.281.813.297.281.766.281v1q-2.172 0-2.172-1.906zm4.601-6.875q.297 0 .485.203.203.203.203.484 0 .297-.203.5-.188.204-.485.204-.28 0-.484-.204-.203-.203-.203-.5 0-.28.203-.484.203-.203.484-.203zm-.609 8.656v-5.344h-.86v-.937h1.97v6.281zm2.469-.375.406-1.062q.922.609 1.5.609 1.031 0 1.031-.86 0-.624-1-1.062-.765-.36-1.031-.531-.266-.188-.469-.422-.203-.234-.297-.484-.093-.266-.093-.563 0-.781.562-1.203.563-.437 1.469-.437.687 0 1.734.437l-.312 1.031q-.672-.531-1.344-.531-.39 0-.672.188-.265.187-.265.468 0 .61.687.922l.797.36q.734.328 1.062.765.344.422.344 1.063 0 .843-.594 1.328-.593.484-1.64.484-1 0-1.875-.5zm5.67-5.015h-.72v-.891h.72v-1.313l1.109-.421v1.734h1.734v.89h-1.734v3.11q0 .797.266 1.125.28.328.859.328.438 0 .89-.203l.173.969q-.704.187-1.532.187-.734 0-1.25-.547-.515-.562-.515-1.406zm9.93-2.875-.391 1q-.563-.407-1.766-.407-1.14 0-1.828.969-.672.969-.672 2.5 0 1.469.688 2.39.703.907 1.812.907 1.219 0 1.86-.86l.64.891q-1.016 1.016-2.625 1.016-1.672 0-2.64-1.203-.97-1.22-.97-3.203 0-1.922 1.032-3.188 1.031-1.281 2.672-1.281 1.39 0 2.187.469zm1.193 5.109q0-1.453.78-2.344.798-.89 2.063-.89 1.36 0 2.094.859.75.86.75 2.375 0 1.516-.765 2.406-.766.875-2.079.875-1.343 0-2.093-.89-.75-.891-.75-2.391zm1.172 0q0 2.36 1.671 2.36.782 0 1.22-.626.452-.64.452-1.734 0-2.328-1.672-2.328-.75 0-1.218.625-.453.61-.453 1.703zm12.955 3.156v-3.969q0-1.484-1.282-1.484-.406 0-.765.25-.344.25-.485.563v4.64h-1.109v-4.453q0-.469-.344-.734-.343-.266-.922-.266-.343 0-.718.266-.375.25-.532.562v4.625h-1.109v-6.281h.719l.375.734q.64-.843 1.61-.843 1.343 0 1.89.828.187-.344.687-.578.516-.25 1.047-.25.985 0 1.516.578t.531 1.609v4.203zm3.804-.344v2.813h-1.109v-8.75h1.11v.516q.624-.625 1.53-.625 1.329 0 2.079.828.75.828.75 2.437 0 1.438-.75 2.344-.75.906-2.172.906-.406 0-.86-.14-.453-.157-.578-.329zm0-4.578v3.657q.11.156.438.296.344.141.672.141 2.078 0 2.078-2.344 0-1.187-.5-1.734-.485-.547-1.578-.547-.235 0-.578.172-.329.156-.532.36zm6.717-3.734q.297 0 .485.203.203.203.203.484 0 .297-.203.5-.188.204-.485.204-.281 0-.484-.204-.203-.203-.203-.5 0-.28.203-.484.203-.203.484-.203zm-.61 8.656v-5.344h-.859v-.937h1.97v6.281zm2.97-1.781v-7.063h1.125v6.875q0 .516.28.813.298.281.766.281v1q-2.171 0-2.171-1.906zm8.742-1.25h-4.532q0 1.11.61 1.687.531.516 1.375.516.953 0 1.594-.547l.468.797q-.265.266-.797.453-.671.25-1.484.25-1.187 0-2.016-.812-.921-.891-.921-2.375 0-1.563.953-2.5.843-.828 2-.828 1.343 0 2.093.75.75.734.75 1.937 0 .36-.093.672zm-2.703-2.422q-.75 0-1.25.484-.485.454-.547 1.125h3.484q0-.671-.422-1.125-.469-.484-1.265-.484zm7.373.25q-.36-.25-.735-.25-.594 0-1.031.547-.438.547-.438 1.312v3.594h-1.125v-6.281h1.125v1q.61-1.11 1.797-1.11.313 0 .875.11z"/></svg>