<svg fill="none" stroke-linecap="square" stroke-miterlimit="10" width="579.398" height="363" xmlns="http://www.w3.org/2000/svg"><path fill="none" d="M1.898 1.5h960v720h-960z"/><path fill="#b6d7a8" d="M1.898 1.5h245.67v103.811H1.897z" fill-rule="evenodd"/><path stroke="#38761d" stroke-width="3" stroke-linejoin="round" stroke-linecap="butt" d="M1.898 1.5h245.67v103.811H1.897z"/><path fill="none" d="M0 2.071h249.89v11.181H0z"/><path fill="#000" d="m6.953 11.794 1.922 3.797H7.156l-1.64-3.547q-.407-.015-.985-.046l-.656 3.593H2.297l1.578-8.578q1.703-.094 2.234-.094 1.391 0 2.188.547.812.532.812 1.532 0 1.03-.593 1.796-.579.766-1.563 1zm-1.75-3.468-.437 2.406q.343.031.609.031 2.219 0 2.219-1.406 0-.594-.438-.844-.422-.25-1.406-.25-.078 0-.547.063zm6.295 4.547q-.016.14-.016.25 0 .656.391 1.015.39.344 1.078.344.375 0 .844-.188.484-.203.766-.468l-.172 1.547q-.75.343-1.813.343-1.172 0-1.89-.734-.72-.734-.72-2.016 0-1.625 1.032-2.687Q12.045 9.2 13.732 9.2q.985 0 1.594.422.625.406.625 1.187 0 1.063-.922 1.672-.906.594-2.25.594-.656 0-1.281-.203zm.281-1.11q.375.11.828.11.797 0 1.344-.235.547-.25.547-.719 0-.5-1.11-.5-.437 0-.906.391-.453.375-.703.953zm6.106 3.656-.469 2.641h-1.453l1.266-6.812q.062-.375.062-.75 0-.516-.11-1.032l1.438-.265q.078.218.14.593.813-.593 1.61-.593 2.516 0 2.516 2.437 0 1.781-1.031 2.938-1.032 1.14-2.72 1.14-.687 0-1.25-.297zm.234-1.25q.281.297.844.297 1.156 0 1.766-.687.625-.703.625-2 0-.594-.375-.953-.375-.36-1.016-.36-.281 0-.672.188-.39.187-.578.422zm5.59-.921q0-1.704 1.031-2.875Q25.787 9.2 27.365 9.2q1.219 0 1.875.625.656.625.656 1.797 0 1.734-1.03 2.921-1.016 1.172-2.641 1.172-1.188 0-1.86-.64-.656-.641-.656-1.828zm1.531-.079q0 1.344 1.14 1.344.923 0 1.454-.844.531-.843.531-2.015 0-1.266-1.156-1.266-.89 0-1.438.844-.53.828-.53 1.937zm5.854 1.61q0-.39.265-.656.266-.282.657-.282.39 0 .656.282.281.265.281.656 0 .39-.281.672-.266.265-.656.265-.391 0-.657-.265-.265-.282-.265-.672zm.734-4.531q0-.391.266-.657.281-.281.656-.281.39 0 .656.281.282.266.282.657 0 .39-.282.671-.265.266-.656.266-.375 0-.656-.266-.266-.28-.266-.671zm11.693 5.343-.265-1.75h-3.063l-1.015 1.75h-1.594l5.219-8.703h.547l1.765 8.703zM42.6 9.498 40.834 12.7h2.25zm8.584 6.093H49.73l.11-.593q-.485.718-1.61.718-1.093 0-1.718-.64-.625-.657-.625-1.782 0-1.796 1-2.937 1-1.156 2.672-1.156.312 0 .703.125.39.125.578.265l.531-2.843h1.422zm-1.532-5.156q-1.015 0-1.625.75-.593.734-.593 1.89 0 1.423 1.187 1.423 1.281 0 1.656-2.032l.282-1.5q-.282-.531-.907-.531zm8.807-.031q.125.297.125.703 0 .922-.39 1.594-.391.656-1.298 1.078-.906.406-1 .562.391-.078.625-.078.657 0 1.11.406.469.391.469 1.016 0 1.14-.797 1.75-.797.625-2.328.625-.563 0-1.25-.234-.672-.22-1.094-.547l.64-1.11q.844.594 1.735.594 1.64 0 1.64-.875 0-.187-.171-.312-.172-.125-.516-.188l-1.11-.203q-.624-.187-.624-.719 0-.312.515-.625-.64-.187-1.047-.687-.39-.5-.39-1.11 0-1.265.828-2.046.844-.797 2.156-.797.813 0 1.36.343l.562-.593.86.843zm-3.672 1.5q0 .469.203.781.219.297.594.297.64 0 1.062-.516.422-.515.422-1.25 0-.828-.859-.828-.656 0-1.047.438-.375.422-.375 1.078zm9.703 3.687h-1.469l.094-.453q-.781.578-1.969.578-.812 0-1.28-.468-.454-.47-.454-1.282 0-.265.063-.61l.765-4.046h1.485l-.75 3.984q-.047.25-.047.438 0 .75.86.75.702 0 1.171-.453.469-.453.594-1.094l.64-3.625h1.47zm7.045-2.25q-.047.219-.047.485 0 1.28.203 1.765h-.921q-.407 0-.61-.625-.75.75-1.86.75-1.03 0-1.593-.578-.547-.578-.547-1.61 0-1.78 1.078-3.046Q68.316 9.2 69.957 9.2q1.594 0 2.297.297zm-1.703-2.953q-.984 0-1.578.953-.578.938-.578 2.157 0 1.015 1 1.015.625 0 1.094-.781.484-.781.843-3.219-.406-.125-.781-.125zm8.113.422q-.515-.39-.922-.39-.562 0-1.046.5-.47.484-.594 1.124l-.656 3.547h-1.47L74.43 9.31h1.468l-.093.547q.78-.656 1.718-.656.235 0 .86.109zm5.94 4.781h-1.453l.109-.593q-.484.718-1.61.718-1.093 0-1.718-.64-.625-.657-.625-1.782 0-1.796 1-2.937 1-1.156 2.672-1.156.312 0 .703.125.39.125.578.265l.531-2.843h1.422zm-1.531-5.156q-1.016 0-1.625.75-.594.734-.594 1.89 0 1.423 1.187 1.423 1.282 0 1.657-2.032l.28-1.5q-.28-.531-.905-.531zm11.134-2.094H90.77l-1.313 7.25H87.91l1.328-7.25h-2.734l.25-1.328h6.984zm2.08 4.532q-.015.14-.015.25 0 .656.39 1.015.391.344 1.078.344.375 0 .844-.188.485-.203.766-.468l-.172 1.547q-.75.343-1.813.343-1.171 0-1.89-.734-.719-.734-.719-2.016 0-1.625 1.031-2.687Q96.115 9.2 97.803 9.2q.984 0 1.593.422.625.406.625 1.187 0 1.063-.921 1.672-.907.594-2.25.594-.657 0-1.282-.203zm.282-1.11q.375.11.828.11.797 0 1.343-.235.547-.25.547-.719 0-.5-1.109-.5-.438 0-.906.391-.453.375-.703.953zm10.12 1.578q-.046.219-.046.485 0 1.28.203 1.765h-.922q-.406 0-.61-.625-.75.75-1.859.75-1.031 0-1.593-.578-.547-.578-.547-1.61 0-1.78 1.078-3.046 1.078-1.281 2.719-1.281 1.593 0 2.296.297zm-1.702-2.953q-.985 0-1.579.953-.578.938-.578 2.157 0 1.015 1 1.015.625 0 1.094-.781.484-.781.844-3.219-.406-.125-.781-.125zm12.691 1.094-.766 4.11h-1.5l.735-3.97q.047-.187.047-.39 0-.813-.875-.813-.297 0-.657.22-.359.202-.53.452l-.845 4.5h-1.5l.844-4.422v-.14q0-.61-.922-.61-.281 0-.64.204-.36.203-.563.484l-.844 4.484h-1.484l.844-4.531q.03-.156.03-.5 0-.578-.17-1.125l1.437-.25q.078.297.125.563.718-.547 1.78-.547 1.235 0 1.75.672.75-.672 1.876-.672 1.89 0 1.89 1.703 0 .25-.062.578zm5.232 4.11h-1.39l3.265-8.626h1.375zm12.426 0-.265-1.75h-3.063l-1.016 1.75h-1.593l5.218-8.704h.547l1.766 8.703zm-.922-6.094L131.93 12.7h2.25zm8.584 6.093h-1.453l.11-.593q-.485.718-1.61.718-1.094 0-1.719-.64-.625-.657-.625-1.782 0-1.796 1-2.937 1-1.156 2.672-1.156.313 0 .703.125.391.125.579.265l.53-2.843h1.423zm-1.53-5.156q-1.017 0-1.626.75-.594.734-.594 1.89 0 1.423 1.188 1.423 1.281 0 1.656-2.032l.281-1.5q-.28-.531-.906-.531zm8.806-.031q.125.297.125.703 0 .922-.39 1.594-.392.656-1.298 1.078-.906.406-1 .562.39-.078.625-.078.656 0 1.11.406.468.391.468 1.016 0 1.14-.797 1.75-.796.625-2.328.625-.562 0-1.25-.234-.672-.22-1.093-.547l.64-1.11q.844.594 1.735.594 1.64 0 1.64-.875 0-.187-.172-.312t-.515-.188l-1.11-.203q-.625-.187-.625-.719 0-.312.516-.625-.64-.187-1.047-.687-.39-.5-.39-1.11 0-1.265.828-2.046.843-.797 2.156-.797.812 0 1.36.343l.562-.593.86.843zm-3.672 1.5q0 .469.203.781.219.297.594.297.64 0 1.062-.516.422-.515.422-1.25 0-.828-.86-.828-.656 0-1.046.438-.375.422-.375 1.078zm9.703 3.687h-1.469l.094-.453q-.781.578-1.969.578-.812 0-1.281-.468-.453-.47-.453-1.282 0-.265.062-.61l.766-4.046h1.484l-.75 3.984q-.047.25-.047.438 0 .75.86.75.703 0 1.172-.453.468-.453.593-1.094l.641-3.625h1.469zm7.045-2.25q-.047.219-.047.485 0 1.28.203 1.765h-.922q-.406 0-.61-.625-.75.75-1.859.75-1.03 0-1.593-.578-.547-.578-.547-1.61 0-1.78 1.078-3.046 1.078-1.281 2.719-1.281 1.593 0 2.297.297zm-1.703-2.953q-.985 0-1.578.953-.579.938-.579 2.157 0 1.015 1 1.015.625 0 1.094-.781.485-.781.844-3.219-.406-.125-.781-.125zm8.113.422q-.516-.39-.922-.39-.562 0-1.047.5-.468.484-.593 1.124l-.657 3.547h-1.468l1.171-6.281h1.47l-.095.547q.782-.656 1.72-.656.234 0 .859.109zm5.94 4.781h-1.454l.11-.593q-.485.718-1.61.718-1.093 0-1.718-.64-.625-.657-.625-1.782 0-1.796 1-2.937 1-1.156 2.671-1.156.313 0 .704.125.39.125.578.265l.531-2.843h1.422zm-1.532-5.156q-1.015 0-1.625.75-.594.734-.594 1.89 0 1.423 1.188 1.423 1.281 0 1.656-2.032l.281-1.5q-.28-.531-.906-.531zm10.244-2.094h-4.125l-.359 1.969h3.016l-.235 1.281h-3.031l-.719 4h-1.578l1.594-8.578h5.687zm1.65-1.047q0-.39.282-.64.281-.266.672-.266.39 0 .672.266.281.25.281.64 0 .391-.281.657-.282.265-.672.265-.39 0-.672-.265-.281-.266-.281-.657zm.438 8.297h-1.484l.937-5.093h-.797l.25-1.188h2.266zm4.389-.5q-.344.563-1.047.563-.531 0-.844-.344-.297-.36-.297-.906 0-.719.282-2.047l1.172-5.61h1.453l-1.203 5.844q-.25 1.235-.25 1.782 0 .328.203.53.218.188.53.188zm5.963-4.593h-1.719l-.64 2.78q-.079.329-.079.548 0 .656.735.656.328 0 1.047-.313v1.329q-.625.218-1.72.218-.718 0-1.155-.453-.422-.453-.422-1.156 0-.234.047-.469l.718-3.14h-.734l.25-1.188h.734l.25-1.281 1.672-.61-.437 1.891h1.719zm2.35 2.375q-.016.14-.016.25 0 .656.39 1.015.391.344 1.079.344.375 0 .843-.188.485-.203.766-.468l-.172 1.547q-.75.343-1.812.343-1.172 0-1.891-.734-.719-.734-.719-2.016 0-1.625 1.031-2.687Q199.03 9.2 200.717 9.2q.984 0 1.594.422.625.406.625 1.187 0 1.063-.922 1.672-.907.594-2.25.594-.657 0-1.282-.203zm.28-1.11q.376.11.829.11.797 0 1.344-.235.546-.25.546-.719 0-.5-1.109-.5-.437 0-.906.391-.453.375-.703.953zm9.419-.953q-.516-.39-.922-.39-.563 0-1.047.5-.469.484-.594 1.124l-.656 3.547h-1.469l1.172-6.281h1.469l-.094.547q.781-.656 1.719-.656.234 0 .86.109zm4.908.219q-.703-.61-1.297-.61-.36 0-.625.172-.266.157-.266.438 0 .344.625.672.641.328.985.515.343.188.547.516.218.328.218.75 0 1.031-.78 1.64-.767.594-1.97.594-1.03 0-2.015-.593l.765-1.329q.735.688 1.438.688.453 0 .734-.219.297-.219.297-.594 0-.328-.562-.609-.547-.281-.97-.516-.421-.25-.64-.593-.219-.344-.219-.75 0-.922.735-1.453.734-.547 1.781-.547.734 0 1.89.484z"/><path fill="none" d="M9.898 24.398h224V97.5h-224z"/><path fill="#274e13" d="m17.789 33.87-1.125.015 1.015.688.313.39-.797.688-.344-.453-.531-1.047-.594 1.062-.281.407-.86-.657.329-.437 1.03-.547-1.155-.172-.579-.203.47-.984.624.234.813.625-.407-1.328v-.516h1.141v.485l-.39 1.375 1.03-.688.485-.187.36 1.062zm10.143 7.328-1.906-2.532-1.703 2.532h-1.438l2.532-3.563-2.328-3.406h1.39l1.563 2.39 1.75-2.39h1.375l-2.532 3.406 2.766 3.563zm6.677 0-1.906-2.532L31 41.198h-1.438l2.532-3.563-2.328-3.406h1.39l1.563 2.39 1.75-2.39h1.375l-2.532 3.406 2.766 3.563zm6.677 0-1.906-2.532-1.703 2.532H36.24l2.53-3.563-2.327-3.406h1.39l1.563 2.39 1.75-2.39h1.375l-2.531 3.406 2.765 3.563zm6.677 0-1.906-2.532-1.703 2.532h-1.437l2.53-3.563-2.327-3.406h1.39l1.563 2.39 1.75-2.39h1.375l-2.531 3.406 2.765 3.563zm6.678 0-1.907-2.532-1.703 2.532h-1.437l2.531-3.563-2.328-3.406h1.39l1.563 2.39 1.75-2.39h1.375l-2.531 3.406 2.765 3.563zm7.848 0h-1.047l3.454-9.578h1.03zm9.146-.422.437-1.172q1.031.687 1.672.687 1.14 0 1.14-.968 0-.688-1.109-1.188-.843-.39-1.14-.594-.297-.203-.516-.453-.219-.25-.328-.547-.11-.296-.11-.625 0-.859.626-1.328.625-.484 1.64-.484.75 0 1.906.469l-.343 1.156q-.735-.594-1.485-.594-.437 0-.75.219-.297.203-.297.516 0 .671.766 1.015l.89.406q.813.375 1.173.86.375.469.375 1.172 0 .937-.657 1.468-.656.532-1.812.532-1.11 0-2.078-.547zm11.723-2.938h-5.031q0 1.219.672 1.875.593.578 1.53.578 1.063 0 1.766-.625l.516.891q-.281.297-.875.5-.734.266-1.656.266-1.313 0-2.235-.891-1.015-.984-1.015-2.64 0-1.72 1.047-2.766.937-.922 2.218-.922 1.5 0 2.344.828.813.813.813 2.14 0 .423-.094.766zm-3-2.703q-.828 0-1.39.531-.532.516-.61 1.266h3.86q0-.75-.47-1.25-.5-.547-1.39-.547zm9.66-.344-.61.875q-.187-.187-.671-.359-.485-.172-.938-.172-1.016 0-1.61.719-.593.703-.593 1.922 0 1.234.61 1.875.609.64 1.687.64.828 0 1.672-.656l.484 1.047q-.984.64-2.469.64-1.422 0-2.36-.952-.92-.954-.92-2.594 0-1.656.968-2.656.969-1.016 2.64-1.016.547 0 1.172.234.64.219.938.453zm1.786.407h-.812v-.97h.812v-1.452l1.235-.485v1.938h1.906v.969h-1.906v3.468q0 .875.297 1.25.296.375.953.375.468 0 .984-.25l.172 1.094q-.766.188-1.688.188-.828 0-1.39-.61-.563-.61-.563-1.547zm6.113-3.61q.312 0 .531.235.234.218.234.53 0 .313-.234.548-.219.219-.531.219-.313 0-.547-.22-.219-.234-.219-.546 0-.313.219-.531.219-.235.547-.235zm-.672 9.61v-5.922h-.969v-1.047h2.203v6.969zm2.738-3.5q0-1.61.86-2.594.874-1 2.296-1 1.5 0 2.328.953.829.953.829 2.64 0 1.688-.86 2.657-.844.969-2.297.969-1.484 0-2.328-.97-.828-.983-.828-2.655zm1.297 0q0 2.625 1.86 2.625.859 0 1.343-.703.5-.704.5-1.922 0-2.594-1.844-2.594-.843 0-1.36.687-.5.688-.5 1.907zm10.605 3.5V37.15q0-1.125-.344-1.563-.328-.453-1.125-.453-.421 0-.89.266-.453.25-.703.61v5.187h-1.235v-6.97h.844l.39.892q.626-1.016 2-1.016 2.298 0 2.298 2.781v4.313zm2.533-.422.437-1.172q1.031.687 1.672.687 1.14 0 1.14-.968 0-.688-1.109-1.188-.844-.39-1.14-.594-.297-.203-.516-.453-.219-.25-.328-.547-.11-.296-.11-.625 0-.859.625-1.328.625-.484 1.641-.484.75 0 1.906.469l-.343 1.156q-.735-.594-1.485-.594-.437 0-.75.219-.297.203-.297.516 0 .671.766 1.015l.89.406q.813.375 1.172.86.375.469.375 1.172 0 .937-.656 1.468-.656.532-1.812.532-1.11 0-2.078-.547zm11.27.422h-1.048l3.454-9.578h1.03zm13.848 0-1.906-2.532-1.704 2.532h-1.437l2.531-3.563-2.328-3.406h1.39l1.563 2.39 1.75-2.39h1.375l-2.531 3.406 2.766 3.563zm6.677 0-1.906-2.532-1.703 2.532h-1.438l2.531-3.563-2.328-3.406h1.39l1.563 2.39 1.75-2.39h1.375l-2.53 3.406 2.765 3.563zm6.677 0-1.906-2.532-1.703 2.532h-1.438l2.531-3.563-2.328-3.406h1.39l1.563 2.39 1.75-2.39h1.375l-2.53 3.406 2.765 3.563zm6.677 0-1.906-2.532-1.703 2.532h-1.438l2.531-3.563-2.328-3.406h1.391l1.562 2.39 1.75-2.39h1.375l-2.53 3.406 2.765 3.563zm6.677 0-1.906-2.532-1.703 2.532h-1.438l2.532-3.563-2.329-3.406h1.391l1.563 2.39 1.75-2.39h1.375l-2.532 3.406 2.766 3.563zm6.677 0-1.906-2.532-1.703 2.532h-1.438l2.532-3.563-2.329-3.406h1.391l1.563 2.39 1.75-2.39h1.375l-2.532 3.406 2.766 3.563zM17.789 49.87l-1.125.015 1.015.688.313.39-.797.688-.344-.453-.531-1.047-.594 1.062-.281.407-.86-.657.329-.437 1.03-.547-1.155-.172-.579-.203.47-.984.624.234.813.625-.407-1.328v-.516h1.141v.485l-.39 1.375 1.03-.688.485-.187.36 1.062zm7.3-1.032v2.64h3.14v1.11h-3.14v3.438H29.4v1.172h-5.625v-9.532h5.703v1.172zm10.03 8.36V53.15q0-1.125-.344-1.563-.329-.453-1.125-.453-.422 0-.891.266-.453.25-.703.61v5.187H30.82v-6.97h.844l.39.892q.626-1.016 2-1.016 2.298 0 2.298 2.781v4.313zm2.735 1.906.672-.984q1.078.718 1.984.718.844 0 1.328-.297.484-.28.484-.718 0-.844-1.218-.844-.219 0-.766.11-.531.109-.844.109-1.484 0-1.484-1.125 0-.344.344-.625.36-.282.86-.407-1.47-.687-1.47-2.39 0-1.094.766-1.813.766-.734 1.875-.734 1.031 0 1.61.422l.624-.75.813.765-.75.563q.469.61.469 1.61 0 1.062-.657 1.78-.656.704-1.718.813l-1.016.094q-.188.031-.5.156-.297.11-.297.313 0 .265.64.265.282 0 .86-.094.594-.109.89-.109 1.016 0 1.594.5.579.484.579 1.344 0 .969-.86 1.562-.86.594-2.187.594-.672 0-1.422-.25-.75-.234-1.203-.578zm2.625-8.016q-.64 0-1.047.469-.406.453-.406 1.094 0 .734.39 1.219.39.468 1.063.468.656 0 1.015-.453.375-.469.375-1.234 0-.64-.406-1.094-.39-.469-.984-.469zm4.409 4.14V47.37h1.25v7.64q0 .563.312.89.328.329.844.329v1.094q-2.406 0-2.406-2.094zm5.118-7.64q.312 0 .531.235.234.218.234.53 0 .313-.234.548-.219.219-.531.219-.313 0-.547-.22-.219-.234-.219-.546 0-.313.219-.531.219-.235.547-.235zm-.672 9.61v-5.922h-.969v-1.047h2.203v6.969zm2.738-.422.438-1.172q1.03.687 1.671.687 1.141 0 1.141-.968 0-.688-1.11-1.188-.843-.39-1.14-.594-.297-.203-.516-.453-.218-.25-.328-.547-.11-.296-.11-.625 0-.859.626-1.328.625-.484 1.64-.484.75 0 1.907.469l-.344 1.156q-.734-.594-1.484-.594-.438 0-.75.219-.297.203-.297.516 0 .671.765 1.015l.891.406q.813.375 1.172.86.375.469.375 1.172 0 .937-.656 1.468-.657.532-1.813.532-1.11 0-2.078-.547zm10.145.422v-4.375q0-.782-.39-1.235-.376-.453-1.079-.453-.437 0-.89.266-.453.265-.703.61v5.187H57.92V47.37h1.235v3.625q.25-.391.796-.641.563-.25 1.141-.25 1.11 0 1.734.734.625.719.625 1.985v4.375zm4.392-8.36v2.64h3.344v1.11h-3.344v4.61h-1.313v-9.532h5.89v1.172zm6.87-1.25q.313 0 .532.235.234.218.234.53 0 .313-.234.548-.219.219-.531.219-.313 0-.547-.22-.219-.234-.219-.546 0-.313.219-.531.219-.235.547-.235zm-.671 9.61v-5.922h-.969v-1.047h2.203v6.969zm3.285-1.97V47.37h1.25v7.64q0 .563.312.89.328.329.844.329v1.094q-2.406 0-2.406-2.094zm4.29-4.03h-.813v-.97h.813v-1.452l1.234-.485v1.938h1.907v.969h-1.907v3.468q0 .875.297 1.25t.953.375q.47 0 .985-.25l.172 1.094q-.766.188-1.688.188-.828 0-1.39-.61-.563-.61-.563-1.547zm10.706 2.64h-5.031q0 1.219.672 1.875.594.578 1.531.578 1.063 0 1.766-.625l.515.891q-.28.297-.875.5-.734.266-1.656.266-1.312 0-2.234-.891-1.016-.984-1.016-2.64 0-1.72 1.047-2.766.937-.922 2.219-.922 1.5 0 2.343.828.813.813.813 2.14 0 .423-.094.766zm-3-2.703q-.828 0-1.39.531-.532.516-.61 1.266h3.86q0-.75-.47-1.25-.5-.547-1.39-.547zm8.191.281q-.406-.28-.812-.28-.656 0-1.156.609-.485.609-.485 1.453v4h-1.25v-6.97h1.25v1.11q.672-1.234 2-1.234.344 0 .969.11zm6.805 5.782h-1.046l3.453-9.578h1.03zm9.146-.422.437-1.172q1.032.687 1.672.687 1.14 0 1.14-.968 0-.688-1.108-1.188-.844-.39-1.141-.594-.297-.203-.516-.453-.218-.25-.328-.547-.11-.296-.11-.625 0-.859.626-1.328.625-.484 1.64-.484.75 0 1.907.469l-.344 1.156q-.734-.594-1.484-.594-.438 0-.75.219-.297.203-.297.516 0 .671.765 1.015l.89.406q.813.375 1.173.86.375.469.375 1.172 0 .937-.656 1.468-.657.532-1.813.532-1.11 0-2.078-.547zm11.723-2.938h-5.031q0 1.219.672 1.875.593.578 1.53.578 1.063 0 1.767-.625l.515.891q-.281.297-.875.5-.734.266-1.656.266-1.313 0-2.234-.891-1.016-.984-1.016-2.64 0-1.72 1.047-2.766.937-.922 2.219-.922 1.5 0 2.343.828.813.813.813 2.14 0 .423-.094.766zm-3-2.703q-.828 0-1.39.531-.532.516-.61 1.266h3.86q0-.75-.47-1.25-.5-.547-1.39-.547zm9.66-.344-.61.875q-.187-.187-.671-.359-.485-.172-.938-.172-1.015 0-1.61.719-.593.703-.593 1.922 0 1.234.61 1.875.609.64 1.687.64.828 0 1.672-.656l.484 1.047q-.984.64-2.469.64-1.421 0-2.359-.952-.922-.954-.922-2.594 0-1.656.969-2.656.969-1.016 2.64-1.016.547 0 1.172.234.641.219.938.453zm1.786.407h-.812v-.97h.812v-1.452l1.235-.485v1.938h1.906v.969h-1.906v3.468q0 .875.297 1.25t.953.375q.469 0 .984-.25l.172 1.094q-.766.188-1.687.188-.829 0-1.391-.61-.563-.61-.563-1.547zm6.113-3.61q.312 0 .531.235.235.218.235.53 0 .313-.235.548-.219.219-.531.219-.313 0-.547-.22-.219-.234-.219-.546 0-.313.22-.531.218-.235.546-.235zm-.672 9.61v-5.922h-.969v-1.047h2.203v6.969zm2.738-3.5q0-1.61.86-2.594.875-1 2.296-1 1.5 0 2.329.953.828.953.828 2.64 0 1.688-.86 2.657-.843.969-2.297.969-1.484 0-2.328-.97-.828-.983-.828-2.655zm1.297 0q0 2.625 1.86 2.625.859 0 1.343-.703.5-.704.5-1.922 0-2.594-1.844-2.594-.843 0-1.359.687-.5.688-.5 1.907zm10.605 3.5V53.15q0-1.125-.343-1.563-.329-.453-1.125-.453-.422 0-.891.266-.453.25-.703.61v5.187h-1.235v-6.97h.844l.39.892q.626-1.016 2-1.016 2.298 0 2.298 2.781v4.313zm2.533-.422.437-1.172q1.031.687 1.672.687 1.14 0 1.14-.968 0-.688-1.109-1.188-.843-.39-1.14-.594-.297-.203-.516-.453-.219-.25-.328-.547-.11-.296-.11-.625 0-.859.626-1.328.625-.484 1.64-.484.75 0 1.906.469l-.343 1.156q-.735-.594-1.485-.594-.437 0-.75.219-.297.203-.297.516 0 .671.766 1.015l.89.406q.813.375 1.173.86.375.469.375 1.172 0 .937-.657 1.468-.656.532-1.812.532-1.11 0-2.078-.547zm11.27.422h-1.047l3.453-9.578h1.03zm13.848 0-1.906-2.532-1.703 2.532h-1.438l2.531-3.563-2.328-3.406h1.39l1.563 2.39 1.75-2.39h1.375l-2.53 3.406 2.765 3.563zm6.677 0-1.906-2.532-1.703 2.532h-1.438l2.531-3.563-2.328-3.406h1.391l1.562 2.39 1.75-2.39h1.375l-2.53 3.406 2.765 3.563zm6.677 0-1.906-2.532-1.703 2.532h-1.438l2.532-3.563-2.329-3.406h1.391l1.563 2.39 1.75-2.39h1.375l-2.532 3.406 2.766 3.563zm6.677 0-1.906-2.532-1.703 2.532h-1.438l2.532-3.563-2.329-3.406h1.391l1.563 2.39 1.75-2.39h1.375l-2.532 3.406 2.766 3.563zm6.677 0-1.906-2.532-1.703 2.532h-1.438l2.532-3.563-2.328-3.406h1.39l1.563 2.39 1.75-2.39h1.375l-2.532 3.406 2.766 3.563zm6.677 0-1.906-2.532-1.703 2.532h-1.437l2.53-3.563-2.327-3.406h1.39l1.563 2.39 1.75-2.39h1.375l-2.531 3.406 2.765 3.563zM17.789 65.87l-1.125.015 1.015.688.313.39-.797.688-.344-.453-.531-1.047-.594 1.062-.281.407-.86-.657.329-.437 1.03-.547-1.155-.172-.579-.203.47-.984.624.234.813.625-.407-1.328v-.516h1.141v.485l-.39 1.375 1.03-.688.485-.187.36 1.062zm10.143 7.328-1.906-2.532-1.703 2.532h-1.438l2.532-3.563-2.328-3.406h1.39l1.563 2.39 1.75-2.39h1.375l-2.532 3.406 2.766 3.563zm6.677 0-1.906-2.532L31 73.198h-1.438l2.532-3.563-2.328-3.406h1.39l1.563 2.39 1.75-2.39h1.375l-2.532 3.406 2.766 3.563zm6.677 0-1.906-2.532-1.703 2.532H36.24l2.53-3.563-2.327-3.406h1.39l1.563 2.39 1.75-2.39h1.375l-2.531 3.406 2.765 3.563zm6.677 0-1.906-2.532-1.703 2.532h-1.437l2.53-3.563-2.327-3.406h1.39l1.563 2.39 1.75-2.39h1.375l-2.531 3.406 2.765 3.563zm6.678 0-1.907-2.532-1.703 2.532h-1.437l2.531-3.563-2.328-3.406h1.39l1.563 2.39 1.75-2.39h1.375l-2.531 3.406 2.765 3.563zm7.848 0h-1.047l3.454-9.578h1.03zm9.146-.422.437-1.172q1.031.687 1.672.687 1.14 0 1.14-.968 0-.688-1.109-1.188-.843-.39-1.14-.594-.297-.203-.516-.453-.219-.25-.328-.547-.11-.296-.11-.625 0-.859.626-1.328.625-.484 1.64-.484.75 0 1.906.469l-.343 1.156q-.735-.594-1.485-.594-.437 0-.75.219-.297.203-.297.516 0 .671.766 1.015l.89.406q.813.375 1.173.86.375.469.375 1.172 0 .937-.657 1.468-.656.532-1.812.532-1.11 0-2.078-.547zm11.723-2.938h-5.031q0 1.219.672 1.875.593.578 1.53.578 1.063 0 1.766-.625l.516.891q-.281.297-.875.5-.734.266-1.656.266-1.313 0-2.235-.891-1.015-.984-1.015-2.64 0-1.72 1.047-2.766.937-.922 2.218-.922 1.5 0 2.344.828.813.813.813 2.14 0 .423-.094.766zm-3-2.703q-.828 0-1.39.531-.532.516-.61 1.266h3.86q0-.75-.47-1.25-.5-.547-1.39-.547zm9.66-.344-.61.875q-.187-.187-.671-.359-.485-.172-.938-.172-1.016 0-1.61.719-.593.703-.593 1.922 0 1.234.61 1.875.609.64 1.687.64.828 0 1.672-.656l.484 1.047q-.984.64-2.469.64-1.422 0-2.36-.952-.92-.954-.92-2.594 0-1.656.968-2.656.969-1.016 2.64-1.016.547 0 1.172.234.64.219.938.453zm1.786.407h-.812v-.97h.812v-1.452l1.235-.485v1.938h1.906v.969h-1.906v3.468q0 .875.297 1.25.296.375.953.375.468 0 .984-.25l.172 1.094q-.766.188-1.688.188-.828 0-1.39-.61-.563-.61-.563-1.547zm6.113-3.61q.312 0 .531.235.234.218.234.53 0 .313-.234.548-.219.219-.531.219-.313 0-.547-.22-.219-.234-.219-.546 0-.313.219-.531.219-.235.547-.235zm-.672 9.61v-5.922h-.969v-1.047h2.203v6.969zm2.738-3.5q0-1.61.86-2.594.874-1 2.296-1 1.5 0 2.328.953.829.953.829 2.64 0 1.688-.86 2.657-.844.969-2.297.969-1.484 0-2.328-.97-.828-.983-.828-2.655zm1.297 0q0 2.625 1.86 2.625.859 0 1.343-.703.5-.704.5-1.922 0-2.594-1.844-2.594-.843 0-1.36.687-.5.688-.5 1.907zm10.605 3.5V69.15q0-1.125-.344-1.563-.328-.453-1.125-.453-.421 0-.89.266-.453.25-.703.61v5.187h-1.235v-6.97h.844l.39.892q.626-1.016 2-1.016 2.298 0 2.298 2.781v4.313zm2.533-.422.437-1.172q1.031.687 1.672.687 1.14 0 1.14-.968 0-.688-1.109-1.188-.844-.39-1.14-.594-.297-.203-.516-.453-.219-.25-.328-.547-.11-.296-.11-.625 0-.859.625-1.328.625-.484 1.641-.484.75 0 1.906.469l-.343 1.156q-.735-.594-1.485-.594-.437 0-.75.219-.297.203-.297.516 0 .671.766 1.015l.89.406q.813.375 1.172.86.375.469.375 1.172 0 .937-.656 1.468-.656.532-1.812.532-1.11 0-2.078-.547zm11.27.422h-1.048l3.454-9.578h1.03zm13.848 0-1.906-2.532-1.704 2.532h-1.437l2.531-3.563-2.328-3.406h1.39l1.563 2.39 1.75-2.39h1.375l-2.531 3.406 2.766 3.563zm6.677 0-1.906-2.532-1.703 2.532h-1.438l2.531-3.563-2.328-3.406h1.39l1.563 2.39 1.75-2.39h1.375l-2.53 3.406 2.765 3.563zm6.677 0-1.906-2.532-1.703 2.532h-1.438l2.531-3.563-2.328-3.406h1.39l1.563 2.39 1.75-2.39h1.375l-2.53 3.406 2.765 3.563zm6.677 0-1.906-2.532-1.703 2.532h-1.438l2.531-3.563-2.328-3.406h1.391l1.562 2.39 1.75-2.39h1.375l-2.53 3.406 2.765 3.563zm6.677 0-1.906-2.532-1.703 2.532h-1.438l2.532-3.563-2.329-3.406h1.391l1.563 2.39 1.75-2.39h1.375l-2.532 3.406 2.766 3.563zm6.677 0-1.906-2.532-1.703 2.532h-1.438l2.532-3.563-2.329-3.406h1.391l1.563 2.39 1.75-2.39h1.375l-2.532 3.406 2.766 3.563z"/><path fill="#93c47d" d="M321.898 1.5h245.67v103.937h-245.67z" fill-rule="evenodd"/><path stroke="#38761d" stroke-width="3" stroke-linejoin="round" stroke-linecap="butt" d="M321.898 1.5h245.67v103.937h-245.67z"/><path fill="none" d="M323.961 1.5h243.213v11.181H323.96z"/><path fill="#000" d="m330.914 11.223 1.922 3.797h-1.719l-1.64-3.547q-.407-.016-.985-.047l-.656 3.594h-1.578l1.578-8.578q1.703-.094 2.234-.094 1.391 0 2.188.547.812.531.812 1.531 0 1.031-.593 1.797-.579.766-1.563 1zm-1.75-3.469-.437 2.407q.343.03.609.03 2.219 0 2.219-1.405 0-.594-.438-.844-.422-.25-1.406-.25-.078 0-.547.062zm6.295 4.547q-.016.14-.016.25 0 .656.391 1.016.39.344 1.078.344.375 0 .844-.188.484-.203.766-.469l-.172 1.547q-.75.344-1.813.344-1.172 0-1.89-.734-.72-.735-.72-2.016 0-1.625 1.032-2.688 1.047-1.078 2.734-1.078.985 0 1.594.422.625.406.625 1.188 0 1.062-.922 1.672-.906.593-2.25.593-.656 0-1.28-.203zm.281-1.11q.375.11.828.11.797 0 1.344-.234.547-.25.547-.719 0-.5-1.11-.5-.437 0-.906.39-.453.376-.703.954zm6.106 3.657-.469 2.64h-1.453l1.266-6.812q.062-.375.062-.75 0-.515-.11-1.031l1.438-.266q.078.22.14.594.813-.594 1.61-.594 2.516 0 2.516 2.438 0 1.781-1.031 2.937-1.032 1.141-2.72 1.141-.687 0-1.25-.297zm.234-1.25q.281.297.844.297 1.156 0 1.766-.688.625-.703.625-2 0-.593-.375-.953-.375-.359-1.016-.359-.281 0-.672.187-.39.188-.578.422zm5.59-.922q0-1.703 1.031-2.875 1.047-1.172 2.625-1.172 1.219 0 1.875.625.656.625.656 1.797 0 1.735-1.03 2.922-1.016 1.172-2.641 1.172-1.188 0-1.86-.64-.656-.641-.656-1.829zm1.531-.078q0 1.344 1.14 1.344.923 0 1.454-.844.531-.844.531-2.016 0-1.265-1.156-1.265-.89 0-1.438.844-.53.828-.53 1.937zm5.854 1.61q0-.391.265-.657.266-.281.657-.281.39 0 .656.281.281.266.281.656 0 .391-.281.672-.266.266-.656.266-.391 0-.657-.266-.265-.28-.265-.672zm.734-4.532q0-.39.266-.656.281-.281.656-.281.39 0 .656.281.281.266.281.656t-.28.672q-.266.266-.657.266-.375 0-.656-.266-.266-.281-.266-.672zm11.693 5.344-.265-1.75h-3.063l-1.015 1.75h-1.594l5.219-8.703h.547l1.765 8.703zm-.921-6.094-1.766 3.203h2.25zm8.584 6.094h-1.454l.11-.594q-.485.719-1.61.719-1.093 0-1.718-.64-.625-.657-.625-1.782 0-1.797 1-2.937 1-1.157 2.672-1.157.312 0 .703.125.39.125.578.266l.531-2.844h1.422zm-1.532-5.156q-1.015 0-1.625.75-.593.734-.593 1.89 0 1.422 1.187 1.422 1.281 0 1.656-2.031l.282-1.5q-.282-.531-.907-.531zm8.807-.032q.125.297.125.704 0 .922-.39 1.593-.391.657-1.298 1.079-.906.406-1 .562.391-.078.625-.078.657 0 1.11.406.469.39.469 1.016 0 1.14-.797 1.75-.797.625-2.328.625-.563 0-1.25-.235-.672-.218-1.094-.547l.64-1.109q.844.594 1.735.594 1.64 0 1.64-.875 0-.188-.171-.313-.172-.125-.516-.187l-1.11-.203q-.624-.188-.624-.719 0-.313.515-.625-.64-.188-1.047-.688-.39-.5-.39-1.109 0-1.266.828-2.047.844-.797 2.156-.797.813 0 1.36.344l.562-.594.86.844zm-3.672 1.5q0 .47.203.782.219.297.594.297.64 0 1.062-.516.422-.516.422-1.25 0-.828-.859-.828-.656 0-1.047.437-.375.422-.375 1.079zm9.703 3.688h-1.469l.094-.453q-.781.578-1.969.578-.812 0-1.28-.469-.454-.469-.454-1.281 0-.266.063-.61l.765-4.046h1.485l-.75 3.984q-.047.25-.047.438 0 .75.86.75.702 0 1.171-.453.469-.454.594-1.094l.64-3.625h1.47zm7.045-2.25q-.047.219-.047.484 0 1.282.203 1.766h-.921q-.407 0-.61-.625-.75.75-1.86.75-1.03 0-1.593-.578-.547-.578-.547-1.61 0-1.78 1.078-3.046 1.078-1.282 2.719-1.282 1.594 0 2.297.297zm-1.703-2.953q-.984 0-1.578.953-.578.937-.578 2.156 0 1.016 1 1.016.625 0 1.094-.781.484-.782.843-3.22-.406-.124-.781-.124zm8.113.422q-.515-.39-.922-.39-.562 0-1.046.5-.47.483-.594 1.124l-.656 3.547h-1.47l1.173-6.281h1.468l-.093.547q.781-.657 1.718-.657.235 0 .86.11zm5.94 4.781h-1.453l.109-.594q-.484.719-1.61.719-1.093 0-1.718-.64-.625-.657-.625-1.782 0-1.797 1-2.937 1-1.157 2.672-1.157.312 0 .703.125.39.125.578.266l.531-2.844h1.422zm-1.531-5.156q-1.016 0-1.625.75-.594.734-.594 1.89 0 1.422 1.187 1.422 1.282 0 1.657-2.031l.28-1.5q-.28-.531-.905-.531zm11.134-2.094h-2.718l-1.313 7.25h-1.547l1.328-7.25h-2.734l.25-1.328h6.984zm2.08 4.531q-.015.14-.015.25 0 .656.39 1.016.391.344 1.078.344.375 0 .844-.188.485-.203.766-.469l-.172 1.547q-.75.344-1.813.344-1.171 0-1.89-.734-.719-.735-.719-2.016 0-1.625 1.031-2.688 1.047-1.078 2.735-1.078.984 0 1.593.422.625.406.625 1.188 0 1.062-.921 1.672-.907.593-2.25.593-.657 0-1.282-.203zm.282-1.11q.375.11.828.11.797 0 1.343-.234.547-.25.547-.719 0-.5-1.109-.5-.438 0-.906.39-.453.376-.703.954zm10.12 1.579q-.046.219-.046.484 0 1.282.203 1.766h-.922q-.406 0-.61-.625-.75.75-1.859.75-1.031 0-1.593-.578-.547-.578-.547-1.61 0-1.78 1.078-3.046 1.078-1.282 2.719-1.282 1.593 0 2.296.297zm-1.702-2.953q-.985 0-1.579.953-.578.937-.578 2.156 0 1.016 1 1.016.625 0 1.094-.781.484-.782.844-3.22-.406-.124-.781-.124zm12.691 1.094-.766 4.109h-1.5l.735-3.969q.047-.187.047-.39 0-.813-.875-.813-.297 0-.657.219-.359.203-.53.453l-.845 4.5h-1.5l.844-4.422v-.14q0-.61-.922-.61-.281 0-.64.203-.36.203-.563.485l-.844 4.484h-1.484l.844-4.531q.03-.157.03-.5 0-.578-.17-1.125l1.437-.25q.078.297.125.562.718-.547 1.78-.547 1.235 0 1.75.672.75-.672 1.876-.672 1.89 0 1.89 1.703 0 .25-.062.579zm5.232 4.109h-1.39l3.265-8.625h1.375zm12.426 0-.265-1.75h-3.063l-1.016 1.75h-1.593l5.218-8.703h.547l1.766 8.703zm-.922-6.094-1.765 3.203h2.25zm8.584 6.094h-1.453l.11-.594q-.485.719-1.61.719-1.094 0-1.719-.64-.625-.657-.625-1.782 0-1.797 1-2.937 1-1.157 2.672-1.157.313 0 .703.125.391.125.579.266l.53-2.844h1.423zm-1.531-5.156q-1.016 0-1.625.75-.594.734-.594 1.89 0 1.422 1.188 1.422 1.281 0 1.656-2.031l.281-1.5q-.281-.531-.906-.531zm10.041 4.375q-1.328.922-3.25.922-1.469 0-2.39-.938-.922-.953-.922-2.406 0-2.547 1.39-4.031 1.406-1.5 3.828-1.5 1.313 0 1.953.593l-.453 1.266q-.86-.516-1.718-.516-1.547 0-2.485 1.141-.937 1.125-.937 2.828 0 1.047.578 1.64.578.595 1.594.595.828 0 1.453-.47l.312-1.702h-1.187l.234-1.266h2.703zm6.49.781h-1.468l.093-.453q-.781.578-1.969.578-.812 0-1.28-.469-.454-.469-.454-1.281 0-.266.063-.61l.765-4.046h1.485l-.75 3.984q-.047.25-.047.438 0 .75.86.75.702 0 1.171-.453.469-.454.594-1.094l.64-3.625h1.47zm7.045-2.25q-.047.219-.047.484 0 1.282.203 1.766h-.921q-.407 0-.61-.625-.75.75-1.86.75-1.03 0-1.593-.578-.547-.578-.547-1.61 0-1.78 1.078-3.046 1.078-1.282 2.72-1.282 1.593 0 2.296.297zm-1.703-2.953q-.984 0-1.578.953-.578.937-.578 2.156 0 1.016 1 1.016.625 0 1.094-.781.484-.782.843-3.22-.406-.124-.78-.124zm8.113.422q-.515-.39-.922-.39-.562 0-1.046.5-.47.483-.594 1.124l-.656 3.547h-1.47l1.173-6.281h1.468l-.093.547q.781-.657 1.719-.657.234 0 .859.11zm5.94 4.781h-1.453l.11-.594q-.485.719-1.61.719-1.094 0-1.72-.64-.624-.657-.624-1.782 0-1.797 1-2.937 1-1.157 2.672-1.157.312 0 .703.125.39.125.578.266l.531-2.844h1.422zm-1.531-5.156q-1.016 0-1.625.75-.594.734-.594 1.89 0 1.422 1.187 1.422 1.282 0 1.657-2.031l.28-1.5q-.28-.531-.905-.531zm8.494-1.735q-.688-.5-1.39-.5-1.407 0-1.407 1.063 0 .453.75 1.078l.875.75q.422.36.578.516.156.156.328.453.172.281.266.578.093.297.093.594 0 1.187-.89 1.843-.875.657-2.281.657-1.157 0-2.188-.5l.5-1.5q.781.593 1.813.593.625 0 1.03-.265.423-.266.423-.766 0-.484-.75-1.062l-.922-.735q-.422-.343-.578-.484-.141-.156-.313-.422-.156-.281-.234-.563-.078-.296-.078-.609 0-1.172.78-1.86.782-.702 2.063-.702.422 0 1.079.109.656.094.921.203zm2.83 6.891h-2.078l1.562-8.563q.86-.156 1.61-.156 1.968 0 3.03.906 1.079.891 1.079 2.579 0 2.39-1.422 3.812-1.422 1.422-3.781 1.422zm.765-7.328-1.046 5.969q.25.015.468.015 1.563 0 2.485-1.11.937-1.108.937-2.843 0-.937-.64-1.515-.641-.579-1.641-.579-.281 0-.563.063zm11.01 7.453h-.578l-3.172-5.563-.953 5.438H516l1.563-8.578h.703l3.109 5.312.922-5.312h1.516zm6.922-7.016q-.687-.5-1.39-.5-1.407 0-1.407 1.063 0 .453.75 1.078l.875.75q.422.36.578.516.157.156.328.453.172.281.266.578.094.297.094.594 0 1.187-.89 1.843-.876.657-2.282.657-1.156 0-2.188-.5l.5-1.5q.782.593 1.813.593.625 0 1.031-.265.422-.266.422-.766 0-.484-.75-1.062l-.922-.735q-.422-.344-.578-.484-.14-.156-.313-.422-.156-.281-.234-.563-.078-.296-.078-.609 0-1.172.781-1.86.782-.702 2.063-.702.422 0 1.078.109.656.094.922.203zm7.768-.359h-4.125l-.36 1.969h3.016l-.235 1.281h-3.03l-.72 4h-1.578l1.594-8.578h5.688zm1.65-1.047q0-.39.281-.64.282-.266.672-.266.39 0 .672.265.281.25.281.641 0 .39-.281.656t-.672.266q-.39 0-.672-.266-.281-.265-.281-.656zm.438 8.297h-1.485l.938-5.094h-.797l.25-1.187h2.265zm4.388-.5q-.344.563-1.047.563-.531 0-.843-.344-.297-.36-.297-.907 0-.718.28-2.046l1.173-5.61h1.453l-1.203 5.844q-.25 1.234-.25 1.781 0 .328.203.531.219.188.531.188zm5.963-4.594h-1.719l-.64 2.781q-.078.329-.078.547 0 .657.734.657.328 0 1.047-.313v1.328q-.625.219-1.719.219-.719 0-1.156-.453-.422-.453-.422-1.156 0-.235.047-.47l.719-3.14h-.735l.25-1.187h.735l.25-1.282 1.671-.609-.437 1.89h1.719zm2.35 2.375q-.016.14-.016.25 0 .657.39 1.016.391.344 1.079.344.375 0 .844-.188.484-.203.765-.469l-.172 1.547q-.75.344-1.812.344-1.172 0-1.89-.734-.72-.735-.72-2.016 0-1.625 1.032-2.688 1.047-1.078 2.734-1.078.984 0 1.594.422.625.406.625 1.188 0 1.062-.922 1.672-.906.593-2.25.593-.656 0-1.281-.203zm.28-1.11q.376.11.829.11.797 0 1.344-.234.547-.25.547-.719 0-.5-1.11-.5-.437 0-.906.39-.453.376-.703.954zm9.419-.952q-.516-.39-.922-.39-.562 0-1.047.5-.469.484-.594 1.124l-.656 3.547h-1.469l1.172-6.281h1.469l-.094.547q.782-.657 1.72-.657.233 0 .858.11z"/><path fill="none" d="m225.898 60.949 160-3.433"/><path stroke="#000" stroke-width="4" stroke-linejoin="round" stroke-linecap="butt" d="m225.898 60.949 136.006-2.918"/><path fill="#000" stroke="#000" stroke-width="4" stroke-linecap="butt" d="m362.045 64.636 18.007-6.995-18.29-6.216z" fill-rule="evenodd"/><path fill="#434343" d="M241.898 44.618h113.386V73.5H241.898z" fill-rule="evenodd"/><path fill="#fff" d="M259.93 63.138v-4.156h-3.75v4.156h-1.172V54.56h1.172v3.437h3.75V54.56h1.172v8.578zm2.43-3.156q0-1.453.78-2.344.798-.89 2.063-.89 1.36 0 2.094.859.75.86.75 2.375 0 1.515-.766 2.406-.765.875-2.078.875-1.344 0-2.094-.89-.75-.891-.75-2.391zm1.171 0q0 2.36 1.672 2.36.781 0 1.219-.626.453-.64.453-1.734 0-2.328-1.672-2.328-.75 0-1.219.625-.453.61-.453 1.703zm5.268 2.781.406-1.062q.922.609 1.5.609 1.031 0 1.031-.86 0-.624-1-1.062-.765-.36-1.03-.531-.266-.188-.47-.422-.203-.234-.296-.484-.094-.266-.094-.563 0-.781.562-1.203.563-.438 1.47-.438.687 0 1.733.438l-.312 1.031q-.672-.531-1.344-.531-.39 0-.672.187-.265.188-.265.47 0 .609.687.921l.797.36q.734.328 1.063.765.343.422.343 1.063 0 .843-.593 1.328-.594.484-1.641.484-1 0-1.875-.5zm5.67-5.016h-.719v-.89h.719v-1.313l1.11-.422v1.735h1.734v.89h-1.735v3.11q0 .797.266 1.125.281.328.86.328.437 0 .89-.203l.172.969q-.703.187-1.532.187-.734 0-1.25-.547-.515-.562-.515-1.406zm4.445 3.61v-7.063h1.125v6.875q0 .516.281.813.297.281.766.281v1q-2.172 0-2.172-1.906zm4.602-6.875q.297 0 .484.203.203.203.203.484 0 .297-.203.5-.187.203-.484.203-.282 0-.485-.203t-.203-.5q0-.28.203-.484.203-.203.485-.203zm-.61 8.656v-5.344h-.86v-.937h1.97v6.281zm2.47-.375.405-1.062q.922.609 1.5.609 1.032 0 1.032-.86 0-.624-1-1.062-.766-.36-1.032-.531-.265-.188-.468-.422-.204-.234-.297-.484-.094-.266-.094-.563 0-.781.562-1.203.563-.438 1.47-.438.687 0 1.734.438l-.313 1.031q-.672-.531-1.344-.531-.39 0-.672.187-.265.188-.265.47 0 .609.687.921l.797.36q.735.328 1.063.765.343.422.343 1.063 0 .843-.593 1.328-.594.484-1.64.484-1 0-1.876-.5zm5.669-5.016h-.719v-.89h.719v-1.313l1.11-.422v1.735h1.734v.89h-1.735v3.11q0 .797.266 1.125.281.328.86.328.437 0 .89-.203l.172.969q-.703.187-1.531.187-.735 0-1.25-.547-.516-.562-.516-1.406zm9.93-2.875-.391 1q-.562-.406-1.766-.406-1.14 0-1.828.969-.672.969-.672 2.5 0 1.469.688 2.39.703.907 1.812.907 1.22 0 1.86-.86l.64.891q-1.015 1.016-2.625 1.016-1.671 0-2.64-1.203-.969-1.22-.969-3.204 0-1.921 1.031-3.187 1.032-1.281 2.672-1.281 1.39 0 2.188.468zm1.193 5.11q0-1.453.781-2.344.797-.89 2.063-.89 1.36 0 2.094.859.75.86.75 2.375 0 1.515-.766 2.406-.766.875-2.078.875-1.344 0-2.094-.89-.75-.891-.75-2.391zm1.172 0q0 2.36 1.672 2.36.781 0 1.219-.626.453-.64.453-1.734 0-2.328-1.672-2.328-.75 0-1.219.625-.453.61-.453 1.703zm12.955 3.156V59.17q0-1.484-1.281-1.484-.406 0-.766.25-.344.25-.484.562v4.641h-1.11v-4.453q0-.469-.343-.734-.344-.266-.922-.266-.344 0-.719.266-.375.25-.531.562v4.625h-1.11v-6.281h.72l.374.734q.64-.844 1.61-.844 1.343 0 1.89.829.188-.344.688-.579.515-.25 1.047-.25.984 0 1.515.579.531.578.531 1.609v4.203zm3.805-.344v2.813h-1.11v-8.75h1.11v.515q.625-.625 1.53-.625 1.33 0 2.08.829.75.828.75 2.437 0 1.438-.75 2.344-.75.906-2.173.906-.406 0-.86-.14-.452-.157-.577-.329zm0-4.578v3.656q.11.157.437.297.344.141.672.141 2.078 0 2.078-2.344 0-1.187-.5-1.734-.484-.547-1.578-.547-.234 0-.578.172-.328.156-.531.36zm6.716-3.734q.297 0 .485.203.203.203.203.484 0 .297-.203.5-.188.203-.485.203-.28 0-.484-.203-.203-.203-.203-.5 0-.28.203-.484.203-.203.484-.203zm-.609 8.656v-5.344h-.86v-.937h1.97v6.281zm2.969-1.781v-7.063h1.125v6.875q0 .516.281.813.297.281.766.281v1q-2.172 0-2.172-1.906zm8.742-1.25h-4.531q0 1.11.61 1.687.53.516 1.374.516.953 0 1.594-.547l.469.797q-.266.266-.797.453-.672.25-1.485.25-1.187 0-2.015-.812-.922-.891-.922-2.375 0-1.563.953-2.5.844-.829 2-.829 1.344 0 2.094.75.75.735.75 1.938 0 .36-.094.672zm-2.703-2.422q-.75 0-1.25.484-.484.453-.547 1.125h3.484q0-.672-.421-1.125-.47-.484-1.266-.484zm7.373.25q-.36-.25-.734-.25-.594 0-1.032.547-.437.547-.437 1.312v3.594h-1.125v-6.281h1.125v1q.61-1.11 1.797-1.11.312 0 .875.11z"/><path fill="#93c47d" d="M161.898 153.5h245.67v103.937h-245.67z" fill-rule="evenodd"/><path stroke="#38761d" stroke-width="3" stroke-linejoin="round" stroke-linecap="butt" d="M161.898 153.5h245.67v103.937h-245.67z"/><path fill="none" d="M163.961 153.5h243.748v11.181H163.961z"/><path fill="#000" d="m170.914 163.223 1.922 3.797h-1.719l-1.64-3.547q-.407-.015-.985-.047l-.656 3.594h-1.578l1.578-8.578q1.703-.094 2.234-.094 1.391 0 2.188.547.812.531.812 1.531 0 1.032-.593 1.797-.579.766-1.563 1zm-1.75-3.469-.437 2.407q.343.03.609.03 2.219 0 2.219-1.405 0-.594-.438-.844-.422-.25-1.406-.25-.078 0-.547.062zm6.295 4.547q-.016.14-.016.25 0 .657.391 1.016.39.344 1.078.344.375 0 .844-.188.484-.203.766-.469l-.172 1.547q-.75.344-1.813.344-1.172 0-1.89-.734-.72-.735-.72-2.016 0-1.625 1.032-2.688 1.047-1.078 2.734-1.078.985 0 1.594.422.625.407.625 1.188 0 1.062-.922 1.672-.906.593-2.25.593-.656 0-1.28-.203zm.281-1.11q.375.11.828.11.797 0 1.344-.234.547-.25.547-.719 0-.5-1.11-.5-.437 0-.906.39-.453.376-.703.954zm6.106 3.657-.469 2.64h-1.453l1.266-6.812q.062-.375.062-.75 0-.515-.11-1.031l1.438-.266q.078.22.14.594.813-.594 1.61-.594 2.516 0 2.516 2.438 0 1.781-1.031 2.937-1.032 1.141-2.72 1.141-.687 0-1.25-.297zm.234-1.25q.281.297.844.297 1.156 0 1.766-.688.625-.703.625-2 0-.593-.375-.953-.375-.359-1.016-.359-.281 0-.672.188-.39.187-.578.421zm5.59-.922q0-1.703 1.031-2.875 1.047-1.172 2.625-1.172 1.219 0 1.875.625.656.625.656 1.797 0 1.735-1.03 2.922-1.016 1.172-2.641 1.172-1.188 0-1.86-.64-.656-.641-.656-1.829zm1.531-.078q0 1.344 1.14 1.344.923 0 1.454-.844.531-.844.531-2.015 0-1.266-1.156-1.266-.89 0-1.438.844-.53.828-.53 1.937zm5.854 1.61q0-.391.265-.657.266-.281.657-.281.39 0 .656.281.281.266.281.657 0 .39-.281.671-.266.266-.656.266-.391 0-.657-.266-.265-.28-.265-.671zm.734-4.532q0-.39.266-.656.281-.281.656-.281.39 0 .656.281.281.266.281.656t-.28.672q-.266.266-.657.266-.375 0-.656-.266-.266-.281-.266-.672zm11.693 5.344-.265-1.75h-3.063l-1.015 1.75h-1.594l5.219-8.703h.547l1.765 8.703zm-.921-6.094-1.766 3.203h2.25zm8.584 6.094h-1.454l.11-.594q-.485.719-1.61.719-1.093 0-1.718-.64-.625-.657-.625-1.782 0-1.797 1-2.937 1-1.157 2.672-1.157.312 0 .703.125.39.125.578.266l.531-2.844h1.422zm-1.532-5.156q-1.015 0-1.625.75-.593.734-.593 1.89 0 1.422 1.187 1.422 1.281 0 1.656-2.031l.282-1.5q-.282-.531-.907-.531zm8.807-.031q.125.296.125.703 0 .922-.39 1.593-.391.657-1.298 1.079-.906.406-1 .562.391-.078.625-.078.657 0 1.11.406.469.39.469 1.016 0 1.14-.797 1.75-.797.625-2.328.625-.563 0-1.25-.235-.672-.218-1.094-.546l.64-1.11q.844.594 1.735.594 1.64 0 1.64-.875 0-.188-.171-.313-.172-.125-.516-.187l-1.11-.203q-.624-.188-.624-.719 0-.312.515-.625-.64-.187-1.047-.687-.39-.5-.39-1.11 0-1.265.828-2.047.844-.797 2.156-.797.813 0 1.36.344l.562-.594.86.844zm-3.672 1.5q0 .468.203.78.219.298.594.298.64 0 1.062-.516.422-.516.422-1.25 0-.828-.859-.828-.656 0-1.047.437-.375.422-.375 1.079zm9.703 3.687h-1.469l.094-.453q-.781.578-1.969.578-.812 0-1.28-.469-.454-.468-.454-1.28 0-.267.063-.61l.765-4.047h1.485l-.75 3.984q-.047.25-.047.438 0 .75.859.75.703 0 1.172-.453.469-.454.594-1.094l.64-3.625h1.469zm7.045-2.25q-.047.219-.047.484 0 1.282.203 1.766h-.921q-.407 0-.61-.625-.75.75-1.86.75-1.03 0-1.593-.578-.547-.578-.547-1.61 0-1.78 1.078-3.046 1.078-1.282 2.719-1.282 1.594 0 2.297.297zm-1.703-2.953q-.984 0-1.578.953-.578.938-.578 2.156 0 1.016 1 1.016.625 0 1.094-.781.484-.782.843-3.22-.406-.124-.781-.124zm8.113.422q-.515-.39-.922-.39-.562 0-1.046.5-.47.484-.594 1.124l-.656 3.547h-1.47l1.173-6.281h1.468l-.093.547q.781-.657 1.718-.657.235 0 .86.11zm5.94 4.781h-1.453l.109-.594q-.484.72-1.61.72-1.093 0-1.718-.642-.625-.656-.625-1.78 0-1.798 1-2.938 1-1.157 2.672-1.157.312 0 .703.125.39.125.578.266l.531-2.844h1.422zm-1.531-5.156q-1.016 0-1.625.75-.594.734-.594 1.89 0 1.422 1.187 1.422 1.282 0 1.657-2.03l.28-1.5q-.28-.532-.905-.532zm11.134-2.094h-2.718l-1.313 7.25h-1.547l1.328-7.25h-2.734l.25-1.328h6.984zm2.08 4.531q-.015.14-.015.25 0 .657.39 1.016.391.344 1.078.344.375 0 .844-.188.485-.203.766-.469l-.172 1.547q-.75.344-1.813.344-1.171 0-1.89-.734-.719-.735-.719-2.016 0-1.625 1.031-2.688 1.047-1.078 2.735-1.078.984 0 1.593.422.625.407.625 1.188 0 1.062-.921 1.672-.907.593-2.25.593-.657 0-1.282-.203zm.282-1.11q.375.11.828.11.797 0 1.343-.234.547-.25.547-.719 0-.5-1.109-.5-.438 0-.906.39-.453.376-.703.954zm10.12 1.579q-.046.219-.046.484 0 1.282.203 1.766h-.922q-.406 0-.61-.625-.75.75-1.859.75-1.031 0-1.593-.578-.547-.578-.547-1.61 0-1.78 1.078-3.046 1.078-1.282 2.719-1.282 1.593 0 2.296.297zm-1.702-2.953q-.985 0-1.579.953-.578.938-.578 2.156 0 1.016 1 1.016.625 0 1.094-.781.484-.782.844-3.22-.406-.124-.781-.124zm12.691 1.094-.766 4.109h-1.5l.735-3.969q.047-.187.047-.39 0-.813-.875-.813-.297 0-.657.219-.359.203-.53.453l-.845 4.5h-1.5l.844-4.422v-.14q0-.61-.922-.61-.281 0-.64.203-.36.203-.563.485l-.844 4.484h-1.484l.844-4.531q.03-.156.03-.5 0-.578-.17-1.125l1.437-.25q.078.297.125.562.718-.547 1.78-.547 1.235 0 1.75.672.75-.672 1.876-.672 1.89 0 1.89 1.704 0 .25-.062.578zm5.232 4.109h-1.39l3.265-8.625h1.375zm14.317-7.25h-4.125l-.36 1.969H299l-.234 1.281h-3.032l-.718 4h-1.578l1.593-8.578h5.688zm1.65-1.047q0-.39.281-.64.282-.266.672-.266.391 0 .672.265.281.25.281.641 0 .39-.28.656-.282.266-.673.266-.39 0-.672-.266-.28-.265-.28-.656zm.438 8.297h-1.485l.938-5.094h-.797l.25-1.187h2.266zm4.388-.5q-.343.563-1.047.563-.53 0-.843-.344-.297-.36-.297-.906 0-.72.281-2.047l1.172-5.61h1.453l-1.203 5.844q-.25 1.234-.25 1.781 0 .328.203.532.219.187.531.187zm5.963-4.594h-1.718l-.641 2.782q-.078.328-.078.546 0 .657.734.657.328 0 1.047-.313v1.328q-.625.219-1.719.219-.718 0-1.156-.453-.422-.453-.422-1.156 0-.235.047-.47l.719-3.14h-.735l.25-1.187h.735l.25-1.281 1.672-.61-.438 1.89h1.719zm2.35 2.375q-.016.14-.016.25 0 .657.39 1.016.392.344 1.079.344.375 0 .844-.188.484-.203.765-.469l-.171 1.547q-.75.344-1.813.344-1.172 0-1.89-.734-.72-.735-.72-2.016 0-1.625 1.032-2.688 1.047-1.078 2.734-1.078.985 0 1.594.422.625.407.625 1.188 0 1.062-.922 1.672-.906.593-2.25.593-.656 0-1.281-.203zm.281-1.11q.375.11.828.11.797 0 1.344-.234.547-.25.547-.719 0-.5-1.11-.5-.437 0-.906.39-.453.376-.703.954zm9.418-.952q-.516-.39-.922-.39-.562 0-1.047.5-.468.484-.593 1.124l-.657 3.547h-1.468l1.171-6.281h1.47l-.094.547q.78-.657 1.718-.657.235 0 .86.11zm4.908.219q-.703-.61-1.297-.61-.359 0-.625.172-.265.156-.265.438 0 .343.625.671.64.329.984.516.344.188.547.516.219.328.219.75 0 1.03-.781 1.64-.766.594-1.97.594-1.03 0-2.015-.594l.766-1.328q.734.688 1.437.688.453 0 .735-.22.297-.218.297-.593 0-.328-.563-.61-.547-.28-.969-.515-.422-.25-.64-.594-.22-.343-.22-.75 0-.921.735-1.453.735-.547 1.782-.547.734 0 1.89.485zm5.82.765 1.922 3.797h-1.718l-1.64-3.547q-.407-.015-.985-.047l-.657 3.594h-1.578l1.578-8.578q1.704-.094 2.235-.094 1.39 0 2.187.547.813.531.813 1.531 0 1.032-.594 1.797-.578.766-1.562 1zm-1.75-3.469-.437 2.407q.344.03.61.03 2.218 0 2.218-1.405 0-.594-.437-.844-.422-.25-1.407-.25-.078 0-.546.062zm6.296 4.547q-.016.14-.016.25 0 .657.39 1.016.391.344 1.079.344.375 0 .843-.188.485-.203.766-.469l-.172 1.547q-.75.344-1.812.344-1.172 0-1.89-.734-.72-.735-.72-2.016 0-1.625 1.032-2.688 1.046-1.078 2.734-1.078.984 0 1.594.422.625.407.625 1.188 0 1.062-.922 1.672-.906.593-2.25.593-.656 0-1.281-.203zm.28-1.11q.376.11.829.11.797 0 1.344-.234.547-.25.547-.719 0-.5-1.11-.5-.437 0-.906.39-.453.376-.703.954zm10.153-1.359q.125.297.125.704 0 .921-.39 1.593-.391.657-1.297 1.079-.907.406-1 .562.39-.078.625-.078.656 0 1.109.406.469.39.469 1.016 0 1.14-.797 1.75-.797.625-2.328.625-.563 0-1.25-.235-.672-.218-1.094-.546l.64-1.11q.844.594 1.735.594 1.64 0 1.64-.875 0-.188-.171-.313-.172-.125-.516-.187l-1.11-.203q-.624-.188-.624-.719 0-.312.515-.625-.64-.187-1.046-.687-.391-.5-.391-1.11 0-1.265.828-2.047.844-.797 2.156-.797.813 0 1.36.344l.562-.594.86.844zm-3.672 1.5q0 .47.203.782.22.297.594.297.64 0 1.063-.516.422-.516.422-1.25 0-.828-.86-.828-.656 0-1.047.437-.375.422-.375 1.079zm6.157-4.609q0-.39.28-.64.282-.266.673-.266.39 0 .672.265.28.25.28.641 0 .39-.28.656-.282.266-.672.266-.391 0-.672-.266-.281-.265-.281-.656zm.437 8.297h-1.484l.937-5.094h-.797l.25-1.187h2.266zm6.232-4.563q-.703-.609-1.296-.609-.36 0-.625.172-.266.156-.266.438 0 .343.625.671.64.329.984.516.344.188.547.516.219.328.219.75 0 1.03-.781 1.64-.766.594-1.97.594-1.03 0-2.015-.594l.766-1.328q.734.688 1.437.688.454 0 .735-.22.297-.218.297-.593 0-.328-.563-.61-.547-.28-.969-.515-.421-.25-.64-.594-.219-.343-.219-.75 0-.921.734-1.453.735-.547 1.782-.547.734 0 1.89.485zm5.79-.53h-1.72l-.64 2.78q-.078.329-.078.547 0 .657.734.657.329 0 1.047-.313v1.328q-.625.219-1.718.219-.72 0-1.157-.453-.422-.453-.422-1.156 0-.235.047-.47l.719-3.14h-.734l.25-1.187h.734l.25-1.281 1.672-.61-.438 1.89h1.72zm5.427.312q-.515-.39-.922-.39-.562 0-1.047.5-.468.484-.593 1.124l-.657 3.547h-1.468l1.172-6.281h1.468l-.093.547q.78-.657 1.718-.657.235 0 .86.11zm3.908 5.406q-.875 1.828-3.39 1.844v-1.422q1.656 0 2.125-1.078l.297-.703q-.797-.22-1.078-1.688l-.75-3.86h1.546q.688 4.126.875 4.313l2.016-4.312h1.656z"/><path fill="none" d="m337.898 89.5-16 88"/><path stroke="#000" stroke-width="4" stroke-linejoin="round" stroke-linecap="butt" d="m337.898 89.5-11.707 64.387"/><path fill="#000" stroke="#000" stroke-width="4" stroke-linecap="butt" d="m319.69 152.705 3.254 19.042 9.748-16.678z" fill-rule="evenodd"/><path fill="none" d="M334.441 24.87h211.465V49.5H334.44z"/><path fill="#274e13" d="m340.379 41.17-.438.625h-.625v-9.953h1.235v3.375q.187-.25.671-.438.485-.203.954-.203 1.421 0 2.312.985.89.984.89 2.5 0 1.734-.89 2.734t-2.422 1q-.484 0-.969-.172-.468-.187-.718-.453zm.172-5.016v4.032q0 .093.468.343.469.235.703.235 1.266 0 1.813-.61.547-.609.547-2.03 0-1.188-.64-1.845-.641-.671-1.72-.671-.234 0-.64.203-.406.187-.531.343zm7.362-1.453v4.438q0 1.625 1.407 1.625.61 0 1.11-.344.515-.36.671-.828v-4.89h1.234v6.968h-1.234v-.969q-.203.422-.828.766-.625.328-1.235.328-1.14 0-1.75-.656-.609-.656-.609-1.86v-4.578zm7.392-2.64q.313 0 .531.234.235.219.235.531 0 .313-.235.547-.218.219-.53.219-.313 0-.548-.219-.218-.234-.218-.547 0-.312.218-.53.219-.235.547-.235zm-.672 9.61v-5.923h-.968v-1.047h2.203v6.97zm3.285-1.97v-7.859h1.25v7.64q0 .563.313.891.328.328.844.328v1.094q-2.407 0-2.407-2.094zm8.26 1.97v-.517q-.641.641-1.876.641-1.312 0-2.125-.937-.812-.938-.812-2.5 0-1.563.937-2.672.938-1.11 2.235-1.11 1.078 0 1.64.5v-3.234h1.235v9.828zm0-5.36q-.47-.703-1.282-.703-1 0-1.61.75-.609.734-.609 1.89 0 2.516 2.281 2.516.297 0 .704-.188.406-.187.515-.39zm4.409 5.36h-1.047l3.453-9.579h1.032z"/><path fill="none" d="M174.443 176.87h223.559v40.787H174.443z"/><path fill="#274e13" d="M180.552 193.28v3.124h-1.234v-9.703h1.234v.578q.703-.703 1.703-.703 1.485 0 2.313.922.828.922.828 2.703 0 1.594-.844 2.594-.828 1-2.406 1-.437 0-.937-.156t-.657-.36zm0-5.079v4.063q.125.172.5.344.375.156.735.156 2.312 0 2.312-2.61 0-1.312-.547-1.921-.547-.625-1.765-.625-.25 0-.625.187-.375.188-.61.406zm6.285 3.5v-7.859h1.25v7.64q0 .563.313.891.328.328.843.328v1.094q-2.406 0-2.406-2.094zm7.775 1.172q-.735.922-2.266.922-.828 0-1.437-.594-.594-.593-.594-1.484 0-1.047.922-1.781.937-.735 2.375-.735.39 0 .89.172 0-1.703-1.515-1.703-1.157 0-1.782.625l-.515-1.031q.344-.281.969-.485.625-.203 1.187-.203 1.516 0 2.203.688.688.687.688 2.187v2.5q0 .922.547 1.22v.624q-.75 0-1.125-.219-.375-.218-.547-.703zm-.11-2.625q-.593-.125-.828-.125-.937 0-1.531.485-.594.468-.594 1.125 0 1.093 1.297 1.093.922 0 1.656-.89zm3.628-2.578h-.813v-.969h.813v-1.453l1.234-.484v1.937h1.906v.97h-1.906v3.468q0 .875.297 1.25t.953.375q.469 0 .985-.25l.171 1.094q-.765.187-1.687.187-.828 0-1.39-.61-.563-.609-.563-1.546zm8.597-2.719q-.375-.125-.703-.125-.563 0-.938.438-.36.422-.36 1.078 0 .172.032.36h1.422v1.046h-1.422v5.922h-1.234v-5.922h-1.016v-1.047h1.016q0-1.328.656-2.093.656-.766 1.734-.766.547 0 1.156.203zm.707 5.22q0-1.61.86-2.595.875-1 2.297-1 1.5 0 2.328.953.828.954.828 2.641 0 1.688-.86 2.656-.843.97-2.296.97-1.485 0-2.328-.97-.829-.984-.829-2.656zm1.297 0q0 2.624 1.86 2.624.859 0 1.343-.703.5-.703.5-1.922 0-2.594-1.843-2.594-.844 0-1.36.688-.5.687-.5 1.906zm10.106-2.282q-.407-.281-.813-.281-.656 0-1.156.609-.485.61-.485 1.453v4h-1.25v-6.969h1.25v1.11q.672-1.235 2-1.235.344 0 .97.11zm9.461 5.781v-4.406q0-1.656-1.437-1.656-.438 0-.829.28-.39.282-.53.626v5.156h-1.25v-4.953q0-.516-.391-.813-.375-.296-1.016-.296-.375 0-.797.296-.406.282-.594.625v5.141h-1.234v-6.969h.812l.407.813q.718-.938 1.797-.938 1.484 0 2.093.922.203-.39.766-.656.578-.266 1.172-.266 1.078 0 1.672.641.593.64.593 1.797v4.656zm8.407 0h-1.047l3.453-9.578h1.031zm13.849 0-1.907-2.531-1.703 2.531h-1.437l2.53-3.562-2.327-3.407h1.39l1.563 2.391 1.75-2.39h1.375l-2.531 3.406 2.765 3.562zm6.677 0-1.907-2.531-1.703 2.531h-1.437l2.531-3.562-2.328-3.407h1.39l1.563 2.391 1.75-2.39h1.375l-2.531 3.406 2.765 3.562zm6.677 0L262 191.14l-1.703 2.531h-1.437l2.531-3.562-2.328-3.407h1.39l1.563 2.391 1.75-2.39h1.375l-2.531 3.406 2.765 3.562zm6.677 0-1.906-2.531-1.704 2.531h-1.437l2.531-3.562-2.328-3.407h1.39l1.563 2.391 1.75-2.39h1.375l-2.531 3.406 2.766 3.562zm6.677 0-1.906-2.531-1.704 2.531h-1.437l2.531-3.562-2.328-3.407h1.39l1.563 2.391 1.75-2.39h1.375l-2.531 3.406 2.766 3.562zM180.552 209.28v3.124h-1.234v-9.703h1.234v.578q.703-.703 1.703-.703 1.485 0 2.313.922.828.922.828 2.703 0 1.594-.844 2.594-.828 1-2.406 1-.437 0-.937-.156t-.657-.36zm0-5.079v4.063q.125.172.5.344.375.156.735.156 2.312 0 2.312-2.61 0-1.312-.547-1.921-.547-.625-1.765-.625-.25 0-.625.187-.375.188-.61.406zm6.285 3.5v-7.859h1.25v7.64q0 .563.313.891.328.328.843.328v1.094q-2.406 0-2.406-2.094zm7.775 1.172q-.735.922-2.266.922-.828 0-1.437-.594-.594-.593-.594-1.484 0-1.047.922-1.781.937-.735 2.375-.735.39 0 .89.172 0-1.703-1.515-1.703-1.157 0-1.782.625l-.515-1.031q.344-.281.969-.485.625-.203 1.187-.203 1.516 0 2.203.688.688.687.688 2.187v2.5q0 .922.547 1.22v.624q-.75 0-1.125-.219-.375-.218-.547-.703zm-.11-2.625q-.593-.125-.828-.125-.937 0-1.531.485-.594.468-.594 1.125 0 1.093 1.297 1.093.922 0 1.656-.89zm3.628-2.578h-.813v-.969h.813v-1.453l1.234-.484v1.937h1.906v.97h-1.906v3.468q0 .875.297 1.25t.953.375q.469 0 .985-.25l.171 1.094q-.765.187-1.687.187-.828 0-1.39-.61-.563-.609-.563-1.546zm8.597-2.719q-.375-.125-.703-.125-.563 0-.938.438-.36.422-.36 1.078 0 .172.032.36h1.422v1.046h-1.422v5.922h-1.234v-5.922h-1.016v-1.047h1.016q0-1.328.656-2.093.656-.766 1.734-.766.547 0 1.156.203zm.707 5.22q0-1.61.86-2.595.875-1 2.297-1 1.5 0 2.328.953.828.954.828 2.641 0 1.688-.86 2.656-.843.97-2.296.97-1.485 0-2.328-.97-.829-.984-.829-2.656zm1.297 0q0 2.624 1.86 2.624.859 0 1.343-.703.5-.703.5-1.922 0-2.594-1.843-2.594-.844 0-1.36.688-.5.687-.5 1.906zm10.106-2.282q-.407-.281-.813-.281-.656 0-1.156.609-.485.61-.485 1.453v4h-1.25v-6.969h1.25v1.11q.672-1.235 2-1.235.344 0 .97.11zm9.461 5.781v-4.406q0-1.656-1.437-1.656-.438 0-.829.28-.39.282-.53.626v5.156h-1.25v-4.953q0-.516-.391-.813-.375-.296-1.016-.296-.375 0-.797.296-.406.282-.594.625v5.141h-1.234v-6.969h.812l.407.813q.718-.938 1.797-.938 1.484 0 2.093.922.203-.39.766-.656.578-.266 1.172-.266 1.078 0 1.672.641.593.64.593 1.797v4.656zm8.407 0h-1.047l3.453-9.578h1.031zm15.474-3.36h-5.032q0 1.22.672 1.876.594.578 1.531.578 1.063 0 1.766-.625l.516.89q-.282.297-.875.5-.735.266-1.657.266-1.312 0-2.234-.89-1.016-.985-1.016-2.641 0-1.719 1.047-2.766.938-.922 2.22-.922 1.5 0 2.343.828.812.813.812 2.141 0 .422-.093.766zm-3-2.702q-.829 0-1.391.53-.531.516-.61 1.266h3.86q0-.75-.469-1.25-.5-.546-1.39-.546zm8.644 6.062-1.906-2.531-1.704 2.531h-1.437l2.531-3.562-2.328-3.407h1.39l1.563 2.391 1.75-2.39h1.375l-2.531 3.406 2.766 3.562zm2.88-6h-.812v-.969h.812v-1.453l1.234-.484v1.937h1.907v.97h-1.907v3.468q0 .875.297 1.25t.953.375q.47 0 .985-.25l.172 1.094q-.766.187-1.688.187-.828 0-1.39-.61-.563-.609-.563-1.546zm10.706 2.64h-5.03q0 1.22.67 1.876.595.578 1.532.578 1.063 0 1.766-.625l.515.89q-.28.297-.875.5-.734.266-1.656.266-1.312 0-2.234-.89-1.016-.985-1.016-2.641 0-1.719 1.047-2.766.938-.922 2.219-.922 1.5 0 2.344.828.812.813.812 2.141 0 .422-.094.766zm-3-2.702q-.828 0-1.39.53-.532.516-.61 1.266h3.86q0-.75-.469-1.25-.5-.546-1.39-.546zm8.692 6.062v-4.047q0-1.125-.344-1.562-.328-.453-1.125-.453-.422 0-.89.265-.454.25-.704.61v5.187h-1.234v-6.969h.843l.391.891q.625-1.016 2-1.016 2.297 0 2.297 2.782v4.312zm2.532-.422.437-1.172q1.032.688 1.672.688 1.14 0 1.14-.969 0-.687-1.109-1.187-.843-.391-1.14-.594-.297-.203-.516-.453-.219-.25-.328-.547-.11-.297-.11-.625 0-.86.626-1.328.625-.485 1.64-.485.75 0 1.907.47l-.344 1.155q-.735-.593-1.485-.593-.437 0-.75.218-.296.203-.296.516 0 .672.765 1.016l.89.406q.813.375 1.173.86.375.468.375 1.171 0 .938-.657 1.469-.656.531-1.812.531-1.11 0-2.078-.547zm7.13-9.187q.312 0 .53.234.235.219.235.531 0 .313-.235.547-.218.219-.53.219-.313 0-.548-.219-.218-.234-.218-.547 0-.312.218-.53.22-.235.547-.235zm-.673 9.61v-5.923h-.968v-1.047h2.203v6.97zm2.738-3.5q0-1.61.86-2.595.875-1 2.297-1 1.5 0 2.328.953.828.954.828 2.641 0 1.688-.86 2.656-.843.97-2.296.97-1.485 0-2.328-.97-.829-.984-.829-2.656zm1.297 0q0 2.624 1.86 2.624.86 0 1.343-.703.5-.703.5-1.922 0-2.594-1.843-2.594-.844 0-1.36.688-.5.687-.5 1.906zm10.606 3.5v-4.048q0-1.125-.344-1.562-.328-.453-1.125-.453-.422 0-.89.265-.454.25-.704.61v5.187h-1.234v-6.969h.843l.391.891q.625-1.016 2-1.016 2.297 0 2.297 2.782v4.312zm8.407 0h-1.047l3.453-9.579h1.031zm13.848 0-1.906-2.532-1.703 2.531h-1.438l2.532-3.562-2.328-3.407h1.39l1.563 2.391 1.75-2.39h1.375l-2.532 3.406 2.766 3.562zm6.677 0-1.906-2.532-1.703 2.531h-1.438l2.532-3.562-2.328-3.407h1.39l1.563 2.391 1.75-2.39h1.375l-2.532 3.406 2.766 3.562zm6.677 0-1.906-2.532-1.703 2.531h-1.437l2.53-3.562-2.327-3.407h1.39l1.563 2.391 1.75-2.39h1.375l-2.531 3.406 2.765 3.562zm6.677 0-1.906-2.532-1.703 2.531h-1.437l2.53-3.562-2.327-3.407h1.39l1.563 2.391 1.75-2.39h1.375l-2.531 3.406 2.765 3.562zm6.678 0-1.907-2.532-1.703 2.531h-1.437l2.531-3.562-2.328-3.407h1.39l1.563 2.391 1.75-2.39h1.375l-2.531 3.406 2.765 3.562z"/><path fill="#b6d7a8" d="M156.229 305.563h245.669V361.5h-245.67z" fill-rule="evenodd"/><path stroke="#38761d" stroke-width="3" stroke-linejoin="round" stroke-linecap="butt" d="M156.229 305.563h245.669V361.5h-245.67z"/><path fill="none" d="M156.229 306.067h181.669V329.5h-181.67z"/><path fill="#000" d="M165.041 319.587h-1.547l.735-4h-3.407l-.734 4h-1.547l1.578-8.578h1.547l-.61 3.297h3.407l.61-3.297h1.546zm1.748-2.344q0-1.703 1.031-2.875 1.047-1.172 2.625-1.172 1.22 0 1.875.625.657.625.657 1.797 0 1.735-1.032 2.922-1.015 1.172-2.64 1.172-1.188 0-1.86-.64-.656-.641-.656-1.829zm1.531-.078q0 1.344 1.141 1.344.922 0 1.453-.844t.531-2.016q0-1.265-1.156-1.265-.89 0-1.437.844-.532.828-.532 1.937zm9.526-2.14q-.703-.61-1.297-.61-.36 0-.625.172-.266.156-.266.437 0 .344.625.672.641.328.985.516.343.187.547.516.218.328.218.75 0 1.03-.78 1.64-.767.594-1.97.594-1.03 0-2.015-.594l.765-1.328q.735.688 1.438.688.453 0 .734-.22.297-.218.297-.593 0-.328-.562-.61-.547-.28-.97-.515-.421-.25-.64-.594-.219-.343-.219-.75 0-.922.735-1.453.734-.547 1.781-.547.734 0 1.89.485zm5.789-.532h-1.719l-.64 2.781q-.079.329-.079.547 0 .657.735.657.328 0 1.047-.313v1.328q-.625.219-1.719.219-.719 0-1.156-.453-.422-.453-.422-1.156 0-.235.047-.47l.718-3.14h-.734l.25-1.187h.734l.25-1.282 1.672-.609-.437 1.89h1.719zm1.303 4.281q0-.39.265-.656.266-.281.657-.281.39 0 .656.281.281.266.281.656 0 .391-.281.672-.266.266-.656.266-.391 0-.657-.266-.265-.281-.265-.672zm.734-4.53q0-.391.266-.657.28-.281.656-.281.39 0 .656.28.281.267.281.657t-.28.672q-.266.266-.657.266-.375 0-.656-.266-.266-.281-.266-.672zm12.115 3.093q-.047.219-.047.484 0 1.282.203 1.766h-.921q-.407 0-.61-.625-.75.75-1.86.75-1.03 0-1.593-.578-.547-.578-.547-1.61 0-1.78 1.078-3.046 1.078-1.282 2.72-1.282 1.593 0 2.296.297zm-1.703-2.953q-.984 0-1.578.953-.578.937-.578 2.156 0 1.016 1 1.016.625 0 1.094-.781.484-.782.843-3.22-.406-.124-.78-.124zm8.692 5.203h-1.454l.11-.594q-.485.719-1.61.719-1.093 0-1.718-.64-.625-.657-.625-1.782 0-1.797 1-2.937 1-1.157 2.672-1.157.312 0 .703.125.39.125.578.266l.531-2.844h1.422zm-1.532-5.156q-1.015 0-1.625.75-.593.734-.593 1.89 0 1.422 1.187 1.422 1.281 0 1.656-2.031l.282-1.5q-.282-.531-.907-.531zm7.9.062h-1.718l-.64 2.781q-.079.329-.079.547 0 .657.735.657.328 0 1.046-.313v1.328q-.625.219-1.718.219-.719 0-1.157-.453-.421-.453-.421-1.156 0-.235.046-.47l.72-3.14h-.735l.25-1.187h.734l.25-1.282 1.672-.609-.437 1.89h1.718zm2.225-3.203q0-.39.282-.64.28-.266.671-.266t.672.265q.282.25.282.641 0 .39-.282.656-.281.266-.672.266-.39 0-.671-.266-.282-.265-.282-.656zm.438 8.297h-1.485l.938-5.094h-.797l.25-1.187h2.266zm7.263 0h-1.453l.11-.594q-.485.719-1.61.719-1.093 0-1.718-.64-.625-.657-.625-1.782 0-1.797 1-2.937 1-1.157 2.671-1.157.313 0 .704.125.39.125.578.266l.531-2.844h1.422zm-1.53-5.156q-1.016 0-1.626.75-.594.734-.594 1.89 0 1.422 1.188 1.422 1.281 0 1.656-2.031l.281-1.5q-.28-.531-.906-.531zm6.618 5.78q-.875 1.83-3.39 1.845v-1.422q1.656 0 2.125-1.078l.297-.703q-.797-.22-1.079-1.688l-.75-3.86h1.547q.688 4.126.875 4.313l2.016-4.312h1.656zm4.33-1.437q0-.39.266-.656.266-.281.656-.281t.657.281q.28.266.28.656 0 .391-.28.672-.266.266-.657.266-.39 0-.656-.266-.266-.281-.266-.672zm3.625-1.53q0-1.704 1.032-2.876 1.047-1.172 2.625-1.172 1.218 0 1.875.625.656.625.656 1.797 0 1.735-1.031 2.922-1.016 1.172-2.64 1.172-1.188 0-1.86-.64-.657-.641-.657-1.829zm1.532-.079q0 1.344 1.14 1.344.922 0 1.453-.844.532-.844.532-2.016 0-1.265-1.157-1.265-.89 0-1.437.844-.531.828-.531 1.937zm9.978-2.36q-.515-.39-.922-.39-.562 0-1.047.5-.468.484-.593 1.125l-.657 3.547h-1.468l1.172-6.281h1.468l-.093.547q.78-.657 1.718-.657.235 0 .86.11zm6.096-.406q.125.297.125.704 0 .921-.39 1.593-.391.657-1.298 1.078-.906.407-1 .563.391-.078.625-.078.657 0 1.11.406.469.39.469 1.016 0 1.14-.797 1.75-.797.625-2.328.625-.563 0-1.25-.235-.672-.218-1.094-.547l.64-1.109q.844.594 1.735.594 1.64 0 1.64-.875 0-.188-.171-.313-.172-.125-.516-.187l-1.11-.203q-.624-.188-.624-.719 0-.313.515-.625-.64-.188-1.047-.688-.39-.5-.39-1.109 0-1.266.828-2.047.844-.797 2.156-.797.813 0 1.36.344l.562-.594.86.844zm-3.672 1.5q0 .47.203.782.219.297.594.297.64 0 1.062-.516.422-.516.422-1.25 0-.828-.86-.828-.655 0-1.046.437-.375.422-.375 1.078z"/><path fill="none" d="m289.898 225.5 10.016 120"/><path stroke="#000" stroke-width="4" stroke-linejoin="round" stroke-linecap="butt" d="m289.898 225.5 8.02 96.083"/><path fill="#000" stroke="#000" stroke-width="4" stroke-linecap="butt" d="m291.334 322.133 8.093 17.54 5.075-18.64z" fill-rule="evenodd"/><path fill="#efefef" d="M257.898 268.618h68.031V297.5h-68.031z" fill-rule="evenodd"/><path fill="#999" d="M267.857 278.56h1.172v5.875q0 .781.5 1.297.5.5 1.328.5.86 0 1.36-.485.5-.5.5-1.343v-5.844h1.171v5.969q0 1.297-.812 2.031-.813.719-2.219.719-1.437 0-2.219-.703-.78-.72-.78-2.063zm8.813 8.234v2.813h-1.11v-8.75h1.11v.515q.625-.625 1.53-.625 1.329 0 2.079.829.75.828.75 2.437 0 1.438-.75 2.344-.75.906-2.172.906-.406 0-.86-.14-.452-.157-.577-.329zm0-4.578v3.656q.109.157.437.297.344.141.672.141 2.078 0 2.078-2.344 0-1.187-.5-1.734-.484-.547-1.578-.547-.234 0-.578.172-.328.156-.531.36zm5.654 3.14v-7.062h1.125v6.875q0 .516.281.813.297.281.766.281v1q-2.172 0-2.172-1.906zm3.039-1.374q0-1.453.781-2.344.797-.89 2.063-.89 1.36 0 2.093.859.75.86.75 2.375 0 1.515-.765 2.406-.766.875-2.078.875-1.344 0-2.094-.89-.75-.891-.75-2.391zm1.172 0q0 2.36 1.672 2.36.78 0 1.218-.626.454-.64.454-1.734 0-2.328-1.672-2.328-.75 0-1.22.625-.452.61-.452 1.703zm9.236 2.437q-.672.844-2.047.844-.75 0-1.297-.531-.53-.547-.53-1.344 0-.953.827-1.61.844-.671 2.14-.671.345 0 .798.156 0-1.515-1.36-1.515-1.046 0-1.609.562l-.469-.938q.313-.265.875-.437.563-.188 1.078-.188 1.36 0 1.97.625.624.61.624 1.97v2.25q0 .827.5 1.093v.563q-.687 0-1.031-.188-.328-.203-.469-.64zm-.11-2.359q-.53-.125-.734-.125-.843 0-1.39.438-.531.437-.531 1.03 0 .97 1.156.97.844 0 1.5-.797zm6.837 3.078v-.469q-.578.579-1.688.579-1.172 0-1.906-.844t-.734-2.25q0-1.406.843-2.406.844-1 2.016-1 .969 0 1.469.453v-2.907h1.125v8.844zm0-4.828q-.422-.625-1.157-.625-.89 0-1.453.672-.547.656-.547 1.687 0 2.266 2.063 2.266.266 0 .625-.156.375-.172.469-.36zm7.675 2.313h-.765q-.203-.563-.203-.797 0-.422.156-.86.156-.453.703-1.062.547-.61.734-.938.188-.328.188-.64 0-1.032-1.25-1.032-.594 0-1.047.438l-.422-.844q.594-.484 1.766-.484.875 0 1.453.5.594.5.594 1.328 0 .422-.157.812-.14.391-.453.72l-.859.905q-.516.641-.516 1.422 0 .125.078.531zm-.234.875q.36 0 .61.265.265.25.265.61 0 .359-.266.625-.25.265-.609.265-.375 0-.64-.265-.25-.266-.25-.625 0-.36.25-.61.265-.265.64-.265zm4.64-.875h-.765q-.203-.563-.203-.797 0-.422.156-.86.156-.453.703-1.062.547-.61.735-.938.187-.328.187-.64 0-1.032-1.25-1.032-.594 0-1.047.438l-.422-.844q.594-.484 1.766-.484.875 0 1.453.5.594.5.594 1.328 0 .422-.156.812-.14.391-.453.72l-.86.905q-.515.641-.515 1.422 0 .125.078.531zm-.234.875q.36 0 .61.265.265.25.265.61 0 .359-.265.625-.25.265-.61.265-.375 0-.64-.265-.25-.266-.25-.625 0-.36.25-.61.265-.265.64-.265z"/><path fill="none" d="m235.087 90.852 14.803 86.645"/><path stroke="#000" stroke-width="4" stroke-linejoin="round" stroke-linecap="butt" d="m235.087 90.852 10.761 62.988"/><path fill="#000" stroke="#000" stroke-width="4" stroke-linecap="butt" d="m239.336 154.953 9.57 16.78 3.455-19.005z" fill-rule="evenodd"/><path fill="#434343" d="M232.512 116.618h113.386V145.5H232.512z" fill-rule="evenodd"/><path fill="#fff" d="M249.993 127.607v2.39h3.016v.985h-3.016v4.156h-1.172v-8.578h5.313v1.047zm6.19-1.125q.296 0 .484.203.203.203.203.484 0 .297-.203.5-.188.203-.484.203-.282 0-.485-.203t-.203-.5q0-.28.203-.484.203-.203.485-.203zm-.61 8.656v-5.344h-.86v-.937h1.97v6.281zm2.969-1.781v-7.063h1.125v6.875q0 .516.281.813.297.281.766.281v1q-2.172 0-2.172-1.906zm3.852-3.61h-.72v-.89h.72v-1.313l1.109-.422v1.735h1.734v.89h-1.734v3.11q0 .797.266 1.125.28.328.859.328.437 0 .89-.203l.172.969q-.703.187-1.53.187-.735 0-1.25-.547-.516-.562-.516-1.406zm9.648 2.36h-4.531q0 1.11.61 1.687.53.516 1.374.516.953 0 1.594-.547l.469.797q-.266.266-.797.453-.672.25-1.485.25-1.187 0-2.015-.812-.922-.891-.922-2.375 0-1.563.953-2.5.844-.829 2-.829 1.344 0 2.094.75.75.735.75 1.938 0 .36-.094.672zm-2.703-2.422q-.75 0-1.25.484-.485.453-.547 1.125h3.484q0-.672-.422-1.125-.468-.484-1.265-.484zm7.373.25q-.36-.25-.734-.25-.594 0-1.032.547-.437.547-.437 1.312v3.594h-1.125v-6.281h1.125v1q.61-1.11 1.797-1.11.312 0 .875.11zm.836 4.828.406-1.062q.922.609 1.5.609 1.031 0 1.031-.86 0-.624-1-1.062-.765-.36-1.03-.531-.267-.188-.47-.422-.203-.234-.297-.484-.093-.266-.093-.563 0-.781.562-1.203.563-.438 1.469-.438.688 0 1.734.438l-.312 1.031q-.672-.531-1.344-.531-.39 0-.672.187-.265.188-.265.47 0 .609.687.921l.797.36q.734.328 1.063.765.343.422.343 1.063 0 .843-.593 1.328-.594.484-1.641.484-1 0-1.875-.5zm10.842-7.89-.391 1q-.562-.407-1.766-.407-1.14 0-1.828.969-.672.969-.672 2.5 0 1.469.688 2.39.703.907 1.812.907 1.22 0 1.86-.86l.64.891q-1.015 1.016-2.625 1.016-1.671 0-2.64-1.203-.969-1.22-.969-3.204 0-1.921 1.031-3.187 1.032-1.281 2.672-1.281 1.39 0 2.188.468zm1.193 5.109q0-1.453.781-2.344.797-.89 2.063-.89 1.36 0 2.094.859.75.86.75 2.375 0 1.515-.766 2.406-.766.875-2.078.875-1.344 0-2.094-.89-.75-.891-.75-2.391zm1.172 0q0 2.36 1.672 2.36.781 0 1.219-.626.453-.64.453-1.734 0-2.328-1.672-2.328-.75 0-1.219.625-.453.61-.453 1.703zm12.955 3.156v-3.969q0-1.484-1.281-1.484-.407 0-.766.25-.344.25-.484.562v4.641h-1.11v-4.453q0-.469-.343-.734-.344-.266-.922-.266-.344 0-.719.266-.375.25-.531.562v4.625h-1.11v-6.281h.72l.374.734q.64-.844 1.61-.844 1.343 0 1.89.829.188-.344.688-.579.515-.25 1.046-.25.985 0 1.516.579.531.578.531 1.609v4.203zm3.805-.344v2.813h-1.11v-8.75h1.11v.515q.625-.625 1.53-.625 1.329 0 2.079.829.75.828.75 2.437 0 1.438-.75 2.344-.75.906-2.172.906-.406 0-.86-.14-.452-.157-.577-.329zm0-4.578v3.656q.109.157.437.297.344.141.672.141 2.078 0 2.078-2.344 0-1.187-.5-1.734-.484-.547-1.578-.547-.234 0-.578.172-.328.156-.531.36zm6.716-3.734q.297 0 .485.203.203.203.203.484 0 .297-.203.5-.188.203-.485.203-.28 0-.484-.203-.203-.203-.203-.5 0-.28.203-.484.203-.203.484-.203zm-.609 8.656v-5.344h-.86v-.937h1.97v6.281zm2.969-1.781v-7.063h1.125v6.875q0 .516.281.813.297.281.766.281v1q-2.172 0-2.172-1.906zm8.742-1.25h-4.531q0 1.11.61 1.687.53.516 1.374.516.953 0 1.594-.547l.469.797q-.266.266-.797.453-.672.25-1.485.25-1.187 0-2.015-.812-.922-.891-.922-2.375 0-1.563.953-2.5.844-.829 2-.829 1.344 0 2.094.75.75.735.75 1.938 0 .36-.094.672zm-2.703-2.422q-.75 0-1.25.484-.484.453-.547 1.125h3.484q0-.672-.421-1.125-.47-.484-1.266-.484zm7.373.25q-.36-.25-.734-.25-.594 0-1.032.547-.437.547-.437 1.312v3.594h-1.125v-6.281h1.125v1q.61-1.11 1.797-1.11.312 0 .875.11z"/><path fill="none" d="M201.914 337.5c-9.324-8-46.62-13.333-55.944-48-9.324-34.667-11.988-133.333 0-160s59.94 0 71.928 0"/><path stroke="#000" stroke-linejoin="round" stroke-linecap="butt" stroke-dasharray="4, 3" d="M201.914 337.5c-9.324-8-46.62-13.333-55.944-48-9.324-34.667-11.988-133.333 0-160 5.994-13.334 20.979-13.334 35.964-10 7.492 1.666 14.985 4.166 21.354 6.25 3.184 1.041 6.087 1.979 8.57 2.656.62.17 1.214.322 1.78.457.282.067.558.13.826.187l.036.007"/><path fill="#000" stroke="#000" stroke-linecap="butt" d="m214.5 129.057-1.26.97 3.208-.716-2.918-1.514z" fill-rule="evenodd"/><path fill="#f3f3f3" d="M97.898 113.5h72v28.882h-72z" fill-rule="evenodd"/><path stroke="#999" stroke-width="2" stroke-linejoin="round" stroke-linecap="butt" d="M97.898 113.5h72v28.882h-72z"/><path fill="#434343" d="M110.416 124.489v2.39h3.015v.985h-3.015v4.156h-1.172v-8.578h5.312v1.047zm10.33 4.5h-4.532q0 1.11.61 1.687.531.516 1.375.516.953 0 1.594-.547l.468.797q-.265.265-.797.453-.671.25-1.484.25-1.187 0-2.016-.813-.921-.89-.921-2.375 0-1.562.953-2.5.843-.828 2-.828 1.343 0 2.093.75.75.735.75 1.938 0 .36-.093.672zm-2.703-2.422q-.75 0-1.25.484-.485.453-.547 1.125h3.484q0-.672-.422-1.125-.469-.484-1.265-.484zm9.248 2.422h-4.532q0 1.11.61 1.687.53.516 1.375.516.953 0 1.593-.547l.47.797q-.266.265-.798.453-.672.25-1.484.25-1.188 0-2.016-.813-.922-.89-.922-2.375 0-1.562.954-2.5.843-.828 2-.828 1.343 0 2.093.75.75.735.75 1.938 0 .36-.093.672zm-2.704-2.422q-.75 0-1.25.484-.484.453-.546 1.125h3.484q0-.672-.422-1.125-.469-.484-1.266-.484zm7.936 5.453v-.469q-.578.578-1.688.578-1.171 0-1.906-.843-.734-.844-.734-2.25 0-1.407.844-2.407.843-1 2.015-1 .969 0 1.469.453v-2.906h1.125v8.844zm0-4.828q-.422-.625-1.156-.625-.89 0-1.453.672-.547.656-.547 1.687 0 2.266 2.062 2.266.266 0 .625-.156.375-.172.469-.36zm3.654 4.375-.39.578h-.547v-8.969h1.11v3.031q.155-.218.593-.39.437-.188.86-.188 1.28 0 2.077.891.813.89.813 2.25 0 1.562-.813 2.469-.796.906-2.171.906-.438 0-.875-.172-.422-.172-.657-.406zm.172-4.516v3.625q0 .094.406.313.422.203.641.203 1.14 0 1.625-.531.5-.547.5-1.829 0-1.078-.578-1.671-.578-.594-1.547-.594-.203 0-.578.172-.36.172-.469.312zm9.123 4.25q-.672.844-2.047.844-.75 0-1.297-.531-.53-.547-.53-1.344 0-.953.827-1.61.844-.671 2.14-.671.345 0 .798.156 0-1.516-1.36-1.516-1.046 0-1.609.563l-.469-.938q.313-.265.875-.437.563-.188 1.078-.188 1.36 0 1.97.625.624.61.624 1.97v2.25q0 .827.5 1.093v.562q-.687 0-1.031-.187-.328-.203-.469-.64zm-.11-2.36q-.53-.124-.734-.124-.843 0-1.39.437-.531.438-.531 1.032 0 .968 1.156.968.844 0 1.5-.797zm7.602-2.687-.562.782q-.156-.172-.594-.313-.437-.156-.844-.156-.906 0-1.453.64-.531.625-.531 1.735t.547 1.687q.547.563 1.516.563.75 0 1.515-.578l.438.937q-.891.594-2.22.594-1.28 0-2.124-.86-.844-.874-.844-2.343 0-1.5.875-2.406.875-.907 2.39-.907.485 0 1.048.203.562.204.843.422zm5.254 5.766-1.968-3.14-.97 1v2.14h-1.109v-8.844h1.11v5.485l2.406-2.922h1.297l-2.016 2.39 2.453 3.891z"/><path fill="#f3f3f3" d="M444.229 137.5h133.669v40h-133.67z" fill-rule="evenodd"/><path stroke="#e06666" stroke-width="3" stroke-linejoin="round" stroke-linecap="butt" d="M444.229 137.5h133.669v40h-133.67z"/><path fill="none" d="M444.229 137.5h117.669v23.433h-117.67z"/><path fill="#000" d="M451.229 146.442q.953.515.953 1.672 0 3.031-3.563 3.031-1.265 0-2.078-.89l.75-1.313q.672.86 1.516.86.797 0 1.297-.454.5-.453.5-1.187 0-1.063-1.672-1.063l.25-1.297q1.828 0 1.828-1.312 0-.86-1.047-.86-.594 0-1.187.47l-.766-.954q.844-.86 2.219-.86 1.062 0 1.734.563.672.547.672 1.484 0 .641-.39 1.22-.391.562-1.016.89zm7.125-.203q-.516-.39-.922-.39-.563 0-1.047.5-.469.484-.594 1.124l-.656 3.547h-1.469l1.172-6.281h1.469l-.094.547q.781-.657 1.719-.657.234 0 .86.11zm5.94 4.781h-1.454l.11-.594q-.485.719-1.61.719-1.094 0-1.719-.64-.625-.657-.625-1.782 0-1.797 1-2.937 1-1.157 2.672-1.157.313 0 .703.125.39.125.578.266l.532-2.844h1.422zm-1.532-5.156q-1.016 0-1.625.75-.594.734-.594 1.89 0 1.422 1.188 1.422 1.28 0 1.656-2.031l.281-1.5q-.281-.531-.906-.531zm8.375 4.984-.469 2.64h-1.453l1.266-6.812q.062-.375.062-.75 0-.515-.11-1.031l1.438-.266q.078.22.14.594.813-.594 1.61-.594 2.516 0 2.516 2.438 0 1.781-1.031 2.937-1.032 1.141-2.72 1.141-.687 0-1.25-.297zm.234-1.25q.282.297.844.297 1.156 0 1.766-.688.625-.703.625-2 0-.593-.375-.953-.375-.359-1.016-.359-.281 0-.672.188-.39.187-.578.421zm10.965-.828q-.047.219-.047.484 0 1.282.203 1.766h-.922q-.406 0-.609-.625-.75.75-1.86.75-1.03 0-1.593-.578-.547-.578-.547-1.61 0-1.78 1.078-3.046 1.078-1.282 2.719-1.282 1.594 0 2.297.297zm-1.703-2.953q-.984 0-1.578.953-.578.938-.578 2.156 0 1.016 1 1.016.625 0 1.094-.781.484-.782.843-3.22-.406-.124-.781-.124zm8.113.422q-.515-.39-.922-.39-.562 0-1.046.5-.47.484-.594 1.124l-.656 3.547h-1.47l1.173-6.281h1.468l-.093.547q.78-.657 1.718-.657.235 0 .86.11zm5.19-.313h-1.719l-.64 2.782q-.079.328-.079.546 0 .657.735.657.328 0 1.047-.313v1.328q-.625.219-1.72.219-.718 0-1.155-.453-.422-.453-.422-1.156 0-.235.047-.47l.718-3.14h-.734l.25-1.187h.734l.25-1.281 1.672-.61-.437 1.89h1.718zm2.224-3.203q0-.39.282-.64.28-.266.671-.266t.672.265q.282.25.282.641 0 .39-.282.656-.28.266-.672.266-.39 0-.671-.266-.282-.265-.282-.656zm.438 8.297h-1.485l.938-5.094h-.797l.25-1.187h2.266zm3.607-2.719q-.015.14-.015.25 0 .657.39 1.016.39.344 1.078.344.375 0 .844-.188.485-.203.766-.469l-.172 1.547q-.75.344-1.813.344-1.171 0-1.89-.734-.719-.735-.719-2.016 0-1.625 1.031-2.688 1.047-1.078 2.735-1.078.984 0 1.593.422.625.407.625 1.188 0 1.062-.921 1.672-.907.593-2.25.593-.657 0-1.282-.203zm.282-1.11q.375.11.828.11.797 0 1.343-.234.547-.25.547-.719 0-.5-1.11-.5-.437 0-.905.39-.453.376-.703.954zm8.964-.734q-.703-.609-1.297-.609-.359 0-.625.172-.265.156-.265.438 0 .343.625.671.64.329.984.516.344.188.547.516.219.328.219.75 0 1.03-.781 1.64-.766.594-1.97.594-1.03 0-2.015-.594l.766-1.328q.734.688 1.437.688.453 0 .735-.22.297-.218.297-.593 0-.328-.563-.61-.547-.28-.969-.515-.422-.25-.64-.594-.219-.343-.219-.75 0-.921.734-1.453.735-.547 1.782-.547.734 0 1.89.485z"/><path fill="none" d="m473.898 153.5-25.165-79.433"/><path stroke="#666" stroke-width="2" stroke-linejoin="round" stroke-linecap="butt" d="m473.898 153.5-21.541-67.993"/><path fill="#666" stroke="#666" stroke-width="2" stroke-linecap="butt" d="m455.506 84.509-5.89-7.655-.408 9.65z" fill-rule="evenodd"/><path fill="none" d="m465.898 161.5-83.906 16"/><path stroke="#666" stroke-width="2" stroke-linejoin="round" stroke-linecap="butt" d="m465.898 161.5-72.118 13.752"/><path fill="#666" stroke="#666" stroke-width="2" stroke-linecap="butt" d="m393.161 172.007-8.296 4.945 9.534 1.545z" fill-rule="evenodd"/></svg>